<?xml version="1.0" encoding="UTF-8" standalone="no"?>
<!-- Created with Sodipodi ("http://www.sodipodi.com/") -->
<svg
   xmlns:dc="http://purl.org/dc/elements/1.1/"
   xmlns:cc="http://web.resource.org/cc/"
   xmlns:rdf="http://www.w3.org/1999/02/22-rdf-syntax-ns#"
   xmlns:svg="http://www.w3.org/2000/svg"
   xmlns="http://www.w3.org/2000/svg"
   xmlns:xlink="http://www.w3.org/1999/xlink"
   xmlns:sodipodi="http://inkscape.sourceforge.net/DTD/sodipodi-0.dtd"
   xmlns:inkscape="http://www.inkscape.org/namespaces/inkscape"
   inkscape:export-ydpi="27.000000"
   inkscape:export-xdpi="27.000000"
   inkscape:export-filename="/home/francois/Images/Rodent/Rodent/xfce4-mouse.png"
   inkscape:version="0.41"
   sodipodi:docname="xfce4-mouse.svg"
   sodipodi:docbase="/home/francois/Images/Rodent/Rodent"
   height="128pt"
   width="128pt"
   sodipodi:version="0.32"
   id="svg750">
  <defs
     id="defs752">
    <linearGradient
       id="linearGradient2094">
      <stop
         id="stop2096"
         offset="0.0000000"
         style="stop-color:#efe0cd;stop-opacity:1.0000000;" />
      <stop
         id="stop2102"
         offset="0.84285712"
         style="stop-color:#f7efe6;stop-opacity:1.0000000;" />
      <stop
         id="stop2100"
         offset="1.0000000"
         style="stop-color:#ffffff;stop-opacity:1.0000000;" />
    </linearGradient>
    <linearGradient
       id="linearGradient2091">
      <stop
         id="stop2093"
         offset="0.0000000"
         style="stop-color:#887fa3;stop-opacity:1.0000000;" />
      <stop
         id="stop2095"
         offset="0.27142859"
         style="stop-color:#c3bfd1;stop-opacity:1.0000000;" />
      <stop
         id="stop2097"
         offset="1.0000000"
         style="stop-color:#ffffff;stop-opacity:1.0000000;" />
    </linearGradient>
    <linearGradient
       id="linearGradient2850">
      <stop
         id="stop2852"
         offset="0.0000000"
         style="stop-color:#887fa3;stop-opacity:0.0000000;" />
      <stop
         id="stop2091"
         offset="0.87142855"
         style="stop-color:#443f51;stop-opacity:0.10588235;" />
      <stop
         id="stop2856"
         offset="1.0000000"
         style="stop-color:#000000;stop-opacity:0.21138212;" />
    </linearGradient>
    <linearGradient
       id="linearGradient855">
      <stop
         id="stop856"
         offset="0.0000000"
         style="stop-color:#826647;stop-opacity:1.0000000;" />
      <stop
         id="stop2094"
         offset="0.48571429"
         style="stop-color:#c0b2a3;stop-opacity:1.0000000;" />
      <stop
         id="stop858"
         offset="1.0000000"
         style="stop-color:#ffffff;stop-opacity:1.0000000;" />
    </linearGradient>
    <linearGradient
       id="linearGradient851">
      <stop
         id="stop853"
         offset="0.0000000"
         style="stop-color:#7a7f97;stop-opacity:1.0000000;" />
      <stop
         id="stop854"
         offset="0.63091606"
         style="stop-color:#bcbfcb;stop-opacity:1.0000000;" />
      <stop
         id="stop855"
         offset="1.0000000"
         style="stop-color:#ffffff;stop-opacity:1.0000000;" />
    </linearGradient>
    <linearGradient
       id="linearGradient847">
      <stop
         id="stop849"
         offset="0.0000000"
         style="stop-color:#f3f3f8;stop-opacity:1.0000000;" />
      <stop
         id="stop850"
         offset="0.50000000"
         style="stop-color:#79bce6;stop-opacity:1.0000000;" />
      <stop
         id="stop851"
         offset="1.0000000"
         style="stop-color:#0086d4;stop-opacity:1.0000000;" />
    </linearGradient>
    <linearGradient
       id="linearGradient844">
      <stop
         id="stop845"
         offset="0.0000000"
         style="stop-color:#7a7f97;stop-opacity:1.0000000;" />
      <stop
         id="stop852"
         offset="0.63091606"
         style="stop-color:#bcbfcb;stop-opacity:1.0000000;" />
      <stop
         id="stop847"
         offset="1.0000000"
         style="stop-color:#ffffff;stop-opacity:1.0000000;" />
    </linearGradient>
    <linearGradient
       id="linearGradient839">
      <stop
         id="stop840"
         offset="0.0000000"
         style="stop-color:#ffffff;stop-opacity:1.0000000;" />
      <stop
         id="stop842"
         offset="1.0000000"
         style="stop-color:#ffffff;stop-opacity:0.0000000;" />
    </linearGradient>
    <linearGradient
       id="linearGradient835">
      <stop
         id="stop836"
         offset="0"
         style="stop-color:#e6e2e2;stop-opacity:1.0000;" />
      <stop
         id="stop837"
         offset="1"
         style="stop-color:#979595;stop-opacity:1.0000;" />
    </linearGradient>
    <linearGradient
       id="linearGradient768">
      <stop
         id="stop769"
         offset="0.0000000"
         style="stop-color:#f3f3f8;stop-opacity:1.0000000;" />
      <stop
         id="stop843"
         offset="0.24938931"
         style="stop-color:#79bcd4;stop-opacity:1.0000000;" />
      <stop
         id="stop770"
         offset="1.0000000"
         style="stop-color:#0086b1;stop-opacity:1.0000000;" />
    </linearGradient>
    <linearGradient
       y2="0.41394335"
       x2="-0.087499999"
       y1="0.19825707"
       x1="0.86250001"
       id="linearGradient771"
       xlink:href="#linearGradient855" />
    <linearGradient
       id="linearGradient787"
       xlink:href="#linearGradient768" />
    <linearGradient
       gradientUnits="userSpaceOnUse"
       gradientTransform="scale(0.804847,1.242473)"
       y2="23.656837"
       x2="53.959995"
       y1="74.707329"
       x1="69.561905"
       id="linearGradient2088"
       xlink:href="#linearGradient2094"
       inkscape:collect="always" />
    <linearGradient
       gradientUnits="userSpaceOnUse"
       y2="42.699501"
       x2="115.48492"
       y1="30.955641"
       x1="111.03352"
       gradientTransform="matrix(0.707107,0.000000,0.000000,0.948820,0.000000,13.28383)"
       id="linearGradient8936"
       xlink:href="#linearGradient839"
       inkscape:collect="always" />
  </defs>
  <sodipodi:namedview
     inkscape:current-layer="svg750"
     inkscape:window-y="64"
     inkscape:window-x="13"
     inkscape:window-height="653"
     inkscape:window-width="1242"
     inkscape:cy="80.000000"
     inkscape:cx="80.000000"
     inkscape:zoom="2.9500000"
     gridspacingy="1mm"
     gridspacingx="1mm"
     snaptogrid="false"
     showgrid="true"
     id="base" />
  <path
     id="path942"
     d="M 77.739471 28.168699 C 78.279266 25.684698 76.220653 23.924514 74.244754 22.912126 C 72.533593 21.821982 70.449219 20.869223 69.635571 18.896665 C 68.499728 16.957405 67.344290 14.394805 68.778108 12.297715 C 69.716510 10.806017 70.263285 8.7348347 72.007259 8.0495662 C 73.864616 6.9248653 75.888122 6.1609805 78.098806 6.3367956 C 81.078380 6.1017361 84.017645 6.6123051 86.906268 7.2891311 C 89.049878 7.6796849 91.225707 7.8179435 93.298574 8.5483024 C 97.674221 9.6642818 101.77749 11.609640 106.10830 12.849560 C 106.10830 12.944124 106.29743 13.133251 106.39200 13.133250 "
     style="fill:none;fill-rule:evenodd;stroke:#000000;stroke-opacity:0.49318179;stroke-width:7.5000000;stroke-linejoin:round;stroke-linecap:round;fill-opacity:1;stroke-dasharray:none;stroke-miterlimit:4.0000000;" />
  <path
     sodipodi:nodetypes="cccccc"
     id="path859"
     d="M 118.30112,37.465259 C 118.30112,54.000689 117.73505,70.536119 117.73505,87.071559 C 117.73505,115.41801 101.99932,150.85101 77.961729,150.85101 C 53.924139,150.85101 38.188386,115.41801 38.188386,87.071549 C 38.188386,70.536109 37.622320,54.000689 37.622320,37.465259 C 65.093843,26.835339 90.829615,26.835339 118.30112,37.465259 z "
     style="font-size:12.000000;fill:none;fill-opacity:0.45879999;fill-rule:evenodd;stroke:#000000;stroke-width:6.1527882;stroke-linecap:round;stroke-linejoin:round;stroke-miterlimit:4.0000000;stroke-opacity:0.38056681" />
  <path
     sodipodi:nodetypes="cccccc"
     id="path1328"
     d="M 117.39480,36.490640 C 117.39480,53.026070 116.93810,69.561500 116.93810,86.096940 C 116.93810,114.44340 102.76490,149.87640 77.961730,149.87640 C 53.158570,149.87640 38.985350,114.44340 38.985350,86.096930 C 38.985350,69.561490 38.528650,53.026070 38.528650,36.490640 C 66.875110,25.860720 89.048350,25.860720 117.39480,36.490640 z "
     style="font-size:12.000000;fill:url(#linearGradient2088);fill-opacity:1.0;fill-rule:evenodd;stroke:#000000;stroke-width:1.8750000;stroke-linecap:round;stroke-linejoin:round;stroke-miterlimit:4.0000000" />
  <path
     style="stroke-opacity:1.0000000;stroke-linejoin:miter;stroke-linecap:butt;stroke-width:0.25000000pt;stroke:none;fill-rule:evenodd;fill-opacity:0.63562751;fill:#ffffff"
     d="M 44.745763,36.610169 C 44.745763,36.610169 41.214467,100.33898 53.149606,126.10170 C 50.169492,94.237288 46.062992,86.101695 57.370879,83.389831 C 70.712666,80.677966 69.152542,39.322033 59.661017,33.898305 C 51.525424,29.830509 48.813559,55.593221 44.745763,36.610169 z "
     id="path2864"
     sodipodi:nodetypes="ccccc" />
  <path
     sodipodi:nodetypes="ccccc"
     id="path2102"
     d="M 108.39609,32.947280 C 109.22754,49.000929 107.93940,57.750430 104.39609,68.380350 C 97.309487,82.553580 88.679587,82.553580 78.049637,82.553580 M 78.049637,29.403980 L 78.049637,82.553580"
     style="font-size:12.000000;fill:none;fill-rule:evenodd;stroke:#000000;stroke-width:3.7500000;stroke-linecap:butt;stroke-linejoin:miter;stroke-miterlimit:4.0000000;stroke-opacity:0.35222670" />
  <path
     sodipodi:nodetypes="ccccc"
     id="path1342"
     d="M 47.615270,32.947280 C 46.783824,49.000929 48.071960,57.750430 51.615270,68.380350 C 58.701880,82.553580 67.331780,82.553580 77.961730,82.553580 M 77.961730,29.403980 L 77.961730,82.553580"
     style="font-size:12.000000;fill:none;fill-rule:evenodd;stroke:#000000;stroke-width:3.7500000;stroke-linecap:butt;stroke-linejoin:miter;stroke-miterlimit:4.0000000;stroke-dasharray:none;stroke-opacity:0.35222670" />
  <path
     sodipodi:nodetypes="ccccc"
     id="path783"
     d="M 47.615270,32.947280 C 46.783824,49.000929 48.071960,57.750430 51.615270,68.380350 C 58.701880,82.553580 67.331780,82.553580 77.961730,82.553580 M 77.961730,29.403980 L 77.961730,82.553580"
     style="font-size:12.000000;fill:none;fill-rule:evenodd;stroke:#000000;stroke-width:1.8750000;stroke-linecap:butt;stroke-linejoin:miter;stroke-miterlimit:4.0000000" />
  <path
     sodipodi:nodetypes="ccccc"
     id="path1337"
     d="M 108.39609,32.947280 C 109.22754,49.000929 107.93940,57.750430 104.39609,68.380350 C 97.309487,82.553580 88.679587,82.553580 78.049637,82.553580 M 78.049637,29.403980 L 78.049637,82.553580"
     style="font-size:12.000000;fill:none;fill-rule:evenodd;stroke:#000000;stroke-width:1.8750000;stroke-linecap:butt;stroke-linejoin:miter;stroke-miterlimit:4.0000000" />
  <rect
     ry="6.8085098"
     y="40.033901"
     x="70.875107"
     height="28.346451"
     width="14.173220"
     id="rect784"
     style="font-size:12.000;fill:#eed680;fill-rule:evenodd;fill-opacity:1.0000000;stroke:#000000;stroke-opacity:1.0000;stroke-width:2.5000;stroke-dasharray:none;" />
  <path
     id="path860"
     d="M 77.739471 28.168699 C 78.279266 25.684698 76.220653 23.924514 74.244754 22.912126 C 72.533593 21.821982 70.449219 20.869223 69.635571 18.896665 C 68.499728 16.957405 67.344290 14.394805 68.778108 12.297715 C 69.716510 10.806017 70.263285 8.7348347 72.007259 8.0495662 C 73.864616 6.9248653 75.888122 6.1609805 78.098806 6.3367956 C 81.078380 6.1017361 84.017645 6.6123051 86.906268 7.2891311 C 89.049878 7.6796849 91.225707 7.8179435 93.298574 8.5483024 C 97.674221 9.6642818 101.77749 11.609640 106.10830 12.849560 C 106.10830 12.944124 106.29743 13.133251 106.39200 13.133250 "
     style="fill:none;fill-rule:evenodd;stroke:black;stroke-opacity:1;stroke-width:3.7500;stroke-linejoin:round;stroke-linecap:round;fill-opacity:1;stroke-dasharray:none;" />
  <metadata
     id="metadata38">
    <rdf:RDF
       id="RDF39">
      <cc:Work
         id="Work40"
         rdf:about="">
        <dc:format
           id="format41">image/svg+xml</dc:format>
        <dc:type
           rdf:resource="http://purl.org/dc/dcmitype/StillImage"
           id="type43" />
      </cc:Work>
    </rdf:RDF>
  </metadata>
  <rect
     rx="6.8085098"
     ry="6.8085098"
     y="41.690884"
     x="72.532082"
     height="14.571368"
     width="10.859284"
     id="rect8170"
     style="font-size:12.000000;fill:url(#linearGradient8936);fill-opacity:1.0000000;fill-rule:evenodd;stroke:none;stroke-width:1.9154582;stroke-opacity:1.0000000" />
  <path
     style="fill:#000000;fill-opacity:0.19028337;fill-rule:evenodd;stroke:none;stroke-width:0.25000000pt;stroke-linecap:butt;stroke-linejoin:miter;stroke-opacity:1.0000000"
     d="M 65.762712,144.06780 C 65.762712,144.06780 72.542373,112.13266 93.559322,109.49153 C 114.57627,106.85039 115.25424,52.542373 115.25424,52.542373 C 115.25424,52.542373 115.14246,78.843922 114.23912,93.774358 C 113.33577,108.70479 110.96290,112.26412 105.76271,126.44068 C 99.430134,139.87856 85.155478,154.91526 65.762712,144.06780 z "
     id="path2104"
     sodipodi:nodetypes="cccscc" />
  <path
     sodipodi:nodetypes="cccccc"
     id="path1341"
     d="M 116.09032,37.872661 C 116.09032,53.939612 115.64656,70.006563 115.64656,86.073524 C 115.64656,113.61688 101.87491,148.04600 77.774448,148.04600 C 53.674007,148.04600 39.902340,113.61688 39.902340,86.073514 C 39.902340,70.006554 39.458579,53.939612 39.458579,37.872661 C 67.001932,27.543906 88.546964,27.543906 116.09032,37.872661 z "
     style="font-size:12.000000;fill:none;fill-opacity:1.0000000;fill-rule:evenodd;stroke:#000000;stroke-width:3.6437557;stroke-linecap:round;stroke-linejoin:round;stroke-miterlimit:4.0000000;stroke-opacity:0.37246963" />
</svg>
