/* XPM */
static char * link_off_xpm[] = {
"24 7 7 1",
" 	c None",
".	c #020206",
"+	c #6A6A6B",
"@	c #EAEAEA",
"#	c #D2D2D2",
"$	c #939395",
"%	c #B6B6B6",
" .......        ....... ",
".+@####$.      .$%@@@@%.",
".%........    ........@.",
".#.   .+%#      %.   .#.",
".#........    ........@.",
".+$##%$$.      .+%%%%#+.",
" .......        ....... "};
