/* XPM */
static char * trim_out_xpm[] = {
"20 20 4 1",
" 	c None",
".	c #000000",
"+	c #8E8E8E",
"@	c #FFFFFF",
"                    ",
"                    ",
"  .+                ",
"  ..+@              ",
"  ...+@             ",
"  ....+@            ",
"  .....+@           ",
"  ......+@          ",
"  .......+@         ",
"  ........+@        ",
"  .........+@       ",
"  ..........+@      ",
"  ...........+@     ",
"  ............+@    ",
"  .............+@   ",
"  ..............+@  ",
"   +++++++++++++++@ ",
"    @@@@@@@@@@@@@@@ ",
"                    ",
"                    "};
