<?xml version="1.0" encoding="UTF-8" standalone="no"?>
<!-- Created with Inkscape (http://www.inkscape.org/) -->
<svg
   xmlns:dc="http://purl.org/dc/elements/1.1/"
   xmlns:cc="http://creativecommons.org/ns#"
   xmlns:rdf="http://www.w3.org/1999/02/22-rdf-syntax-ns#"
   xmlns:svg="http://www.w3.org/2000/svg"
   xmlns="http://www.w3.org/2000/svg"
   xmlns:xlink="http://www.w3.org/1999/xlink"
   xmlns:sodipodi="http://sodipodi.sourceforge.net/DTD/sodipodi-0.dtd"
   xmlns:inkscape="http://www.inkscape.org/namespaces/inkscape"
   width="48"
   height="48"
   id="svg2"
   sodipodi:version="0.32"
   inkscape:version="0.45+devel"
   version="1.0"
   sodipodi:docbase="/usr/local/share/kiba-dock/icons"
   sodipodi:docname="gear.svg"
   inkscape:output_extension="org.inkscape.output.svg.inkscape"
   style="display:inline">
  <defs
     id="defs4">
    <inkscape:perspective
       sodipodi:type="inkscape:persp3d"
       inkscape:vp_x="-50 : 600 : 1"
       inkscape:vp_y="0 : 1000 : 0"
       inkscape:vp_z="700 : 600 : 1"
       inkscape:persp3d-origin="300 : 400 : 1"
       id="perspective54" />
    <inkscape:perspective
       sodipodi:type="inkscape:persp3d"
       inkscape:vp_x="-50 : 600 : 1"
       inkscape:vp_y="0 : 1000 : 0"
       inkscape:vp_z="700 : 600 : 1"
       inkscape:persp3d-origin="300 : 400 : 1"
       id="perspective53" />
    <inkscape:perspective
       sodipodi:type="inkscape:persp3d"
       inkscape:vp_x="-50 : 600 : 1"
       inkscape:vp_y="0 : 1000 : 0"
       inkscape:vp_z="700 : 600 : 1"
       inkscape:persp3d-origin="300 : 400 : 1"
       id="perspective50" />
    <inkscape:perspective
       sodipodi:type="inkscape:persp3d"
       inkscape:vp_x="-50 : 600 : 1"
       inkscape:vp_y="0 : 1000 : 0"
       inkscape:vp_z="700 : 600 : 1"
       inkscape:persp3d-origin="300 : 400 : 1"
       id="perspective52" />
    <inkscape:perspective
       sodipodi:type="inkscape:persp3d"
       inkscape:vp_x="-50 : 600 : 1"
       inkscape:vp_y="0 : 1000 : 0"
       inkscape:vp_z="700 : 600 : 1"
       inkscape:persp3d-origin="300 : 400 : 1"
       id="perspective49" />
    <inkscape:perspective
       sodipodi:type="inkscape:persp3d"
       inkscape:vp_x="-50 : 600 : 1"
       inkscape:vp_y="0 : 1000 : 0"
       inkscape:vp_z="700 : 600 : 1"
       inkscape:persp3d-origin="300 : 400 : 1"
       id="perspective48" />
    <inkscape:perspective
       sodipodi:type="inkscape:persp3d"
       inkscape:vp_x="-50 : 600 : 1"
       inkscape:vp_y="0 : 1000 : 0"
       inkscape:vp_z="700 : 600 : 1"
       inkscape:persp3d-origin="300 : 400 : 1"
       id="perspective79" />
    <linearGradient
       inkscape:collect="always"
       id="linearGradient3198">
      <stop
         style="stop-color:black;stop-opacity:1;"
         offset="0"
         id="stop3200" />
      <stop
         style="stop-color:black;stop-opacity:0;"
         offset="1"
         id="stop3202" />
    </linearGradient>
    <linearGradient
       inkscape:collect="always"
       id="linearGradient2892">
      <stop
         style="stop-color:white;stop-opacity:1;"
         offset="0"
         id="stop2894" />
      <stop
         style="stop-color:white;stop-opacity:0;"
         offset="1"
         id="stop2896" />
    </linearGradient>
    <linearGradient
       id="linearGradient2881">
      <stop
         style="stop-color:black;stop-opacity:1;"
         offset="0"
         id="stop2883" />
      <stop
         style="stop-color:black;stop-opacity:0;"
         offset="1"
         id="stop2885" />
    </linearGradient>
    <linearGradient
       id="linearGradient2859">
      <stop
         style="stop-color:white;stop-opacity:1;"
         offset="0"
         id="stop2861" />
      <stop
         style="stop-color:white;stop-opacity:0;"
         offset="1"
         id="stop2863" />
    </linearGradient>
    <linearGradient
       id="linearGradient2903">
      <stop
         style="stop-color:#888a85;stop-opacity:1"
         offset="0"
         id="stop2905" />
      <stop
         style="stop-color:#c8cdc3;stop-opacity:1;"
         offset="1"
         id="stop2907" />
    </linearGradient>
    <linearGradient
       id="linearGradient2895">
      <stop
         style="stop-color:#d9dcd5;stop-opacity:1;"
         offset="0"
         id="stop2897" />
      <stop
         style="stop-color:#7c7e78;stop-opacity:1;"
         offset="1"
         id="stop2899" />
    </linearGradient>
    <linearGradient
       inkscape:collect="always"
       xlink:href="#linearGradient2859"
       id="linearGradient3120"
       gradientUnits="userSpaceOnUse"
       gradientTransform="matrix(0.965926,-0.258819,0.258819,0.965926,-4.11682,6.729656)"
       x1="16.487501"
       y1="13.970829"
       x2="32.566654"
       y2="30.758347" />
    <linearGradient
       inkscape:collect="always"
       xlink:href="#linearGradient2892"
       id="linearGradient3122"
       gradientUnits="userSpaceOnUse"
       gradientTransform="matrix(0.965926,-0.258819,0.258819,0.965926,-4.116824,6.729647)"
       x1="28.357094"
       y1="22.794661"
       x2="17.732124"
       y2="5.1875181" />
    <radialGradient
       inkscape:collect="always"
       xlink:href="#linearGradient3198"
       id="radialGradient3204"
       cx="15.3125"
       cy="34.65625"
       fx="15.3125"
       fy="34.65625"
       r="9.5"
       gradientTransform="matrix(1,0,0,1.003289,0,-0.114001)"
       gradientUnits="userSpaceOnUse" />
    <radialGradient
       inkscape:collect="always"
       xlink:href="#linearGradient3198"
       id="radialGradient3208"
       gradientUnits="userSpaceOnUse"
       gradientTransform="matrix(1,0,0,1.003289,0,-0.114001)"
       cx="15.3125"
       cy="34.65625"
       fx="15.3125"
       fy="34.65625"
       r="9.5" />
    <linearGradient
       inkscape:collect="always"
       xlink:href="#linearGradient2895"
       id="linearGradient7926"
       gradientUnits="userSpaceOnUse"
       gradientTransform="matrix(1.6555206,2.292084e-7,-2.292084e-7,1.6555206,-8.7354344,-4.3938722)"
       x1="21.788134"
       y1="21.876961"
       x2="10.211396"
       y2="3.4232786" />
    <radialGradient
       inkscape:collect="always"
       xlink:href="#linearGradient2881"
       id="radialGradient7929"
       gradientUnits="userSpaceOnUse"
       gradientTransform="matrix(1.8174283,-0.4742967,0.499176,1.7416153,-38.330386,17.891079)"
       cx="31"
       cy="12"
       fx="31"
       fy="12"
       r="11.125" />
    <linearGradient
       inkscape:collect="always"
       xlink:href="#linearGradient2859"
       id="linearGradient8715"
       gradientUnits="userSpaceOnUse"
       gradientTransform="matrix(0.965926,-0.258819,0.258819,0.965926,-4.11682,6.729656)"
       x1="16.487501"
       y1="13.970829"
       x2="32.566654"
       y2="30.758347" />
    <linearGradient
       inkscape:collect="always"
       xlink:href="#linearGradient2895"
       id="linearGradient8719"
       gradientUnits="userSpaceOnUse"
       gradientTransform="matrix(1.6555206,2.292084e-7,-2.292084e-7,1.6555206,-8.7354344,-4.3938722)"
       x1="21.788134"
       y1="21.876961"
       x2="10.211396"
       y2="3.4232786" />
    <linearGradient
       inkscape:collect="always"
       xlink:href="#linearGradient2892"
       id="linearGradient8723"
       gradientUnits="userSpaceOnUse"
       gradientTransform="matrix(0.965926,-0.258819,0.258819,0.965926,-4.116824,6.729647)"
       x1="28.357094"
       y1="22.794661"
       x2="17.732124"
       y2="5.1875181" />
    <radialGradient
       inkscape:collect="always"
       xlink:href="#linearGradient2881"
       id="radialGradient8679"
       gradientUnits="userSpaceOnUse"
       gradientTransform="matrix(1.8764277,-2.3061311e-3,4.4882773e-2,1.8005664,-34.707845,2.5519352)"
       cx="30.983717"
       cy="11.986243"
       fx="30.983717"
       fy="11.986243"
       r="11.125" />
    <radialGradient
       inkscape:collect="always"
       xlink:href="#linearGradient2903"
       id="radialGradient8681"
       cx="23.995575"
       cy="24.000002"
       fx="23.995575"
       fy="24.000002"
       r="22.98608"
       gradientTransform="matrix(1,0,0,0.9631686,0,0.883954)"
       gradientUnits="userSpaceOnUse" />
  </defs>
  <sodipodi:namedview
     id="base"
     pagecolor="#ffffff"
     bordercolor="#666666"
     borderopacity="1.0"
     inkscape:pageopacity="0.0"
     inkscape:pageshadow="2"
     inkscape:zoom="5.656854"
     inkscape:cx="5.7515144"
     inkscape:cy="36.907656"
     inkscape:document-units="px"
     inkscape:current-layer="layer3"
     showgrid="false"
     inkscape:window-width="1280"
     inkscape:window-height="717"
     inkscape:window-x="0"
     inkscape:window-y="49"
     inkscape:showpageshadow="false"
     width="48px"
     height="48px"
     gridtolerance="10000"
     inkscape:grid-points="false"
     inkscape:grid-bbox="true"
     showborder="true"
     borderlayer="true"
     inkscape:guide-bbox="true"
     inkscape:object-paths="false"
     showguides="true">
    <inkscape:grid
       id="GridFromPre046Settings"
       type="xygrid"
       originx="0px"
       originy="0px"
       spacingx="0.5px"
       spacingy="0.5px"
       color="#0000ff"
       empcolor="#0000ff"
       opacity="0.2"
       empopacity="0.4"
       empspacing="2"
       enabled="true"
       visible="true" />
  </sodipodi:namedview>
  <metadata
     id="metadata7">
    <rdf:RDF>
      <cc:Work
         rdf:about="">
        <dc:format>image/svg+xml</dc:format>
        <dc:type
           rdf:resource="http://purl.org/dc/dcmitype/StillImage" />
        <dc:creator>
          <cc:Agent>
            <dc:title>Lapo Calamandrei, Patrick Niklaus</dc:title>
          </cc:Agent>
        </dc:creator>
        <dc:title>Gear</dc:title>
        <cc:license
           rdf:resource="" />
        <dc:subject>
          <rdf:Bag>
            <rdf:li>gear</rdf:li>
          </rdf:Bag>
        </dc:subject>
        <dc:date></dc:date>
        <dc:rights>
          <cc:Agent>
            <dc:title></dc:title>
          </cc:Agent>
        </dc:rights>
        <dc:publisher>
          <cc:Agent>
            <dc:title></dc:title>
          </cc:Agent>
        </dc:publisher>
        <dc:identifier></dc:identifier>
        <dc:source></dc:source>
        <dc:relation></dc:relation>
        <dc:language></dc:language>
        <dc:coverage></dc:coverage>
        <dc:description></dc:description>
        <dc:contributor>
          <cc:Agent>
            <dc:title></dc:title>
          </cc:Agent>
        </dc:contributor>
      </cc:Work>
      <cc:Work
         rdf:about="">
        <dc:format>image/svg+xml</dc:format>
        <dc:type
           rdf:resource="http://purl.org/dc/dcmitype/StillImage" />
      </cc:Work>
    </rdf:RDF>
  </metadata>
  <g
     inkscape:groupmode="layer"
     id="layer3"
     inkscape:label="Raster"
     style="display:none">
    <path
       sodipodi:type="inkscape:offset"
       inkscape:radius="24.522501"
       inkscape:original="M -11.09375 8.75 C -14.094358 8.75 -16.53125 11.045159 -16.53125 13.875 C -16.53125 16.704841 -14.094358 19 -11.09375 19 C -8.0931423 19 -5.65625 16.704841 -5.65625 13.875 C -5.65625 11.045159 -8.0931423 8.7500005 -11.09375 8.75 z "
       style="opacity:0.9;fill:#31609d;fill-opacity:0.28617362;stroke:none;stroke-width:2.63946915;stroke-linecap:butt;stroke-linejoin:miter;stroke-miterlimit:4;stroke-dasharray:none;stroke-opacity:0.79607843;display:inline"
       id="path8675"
       d="M -11.09375,-15.78125 C -26.599166,-15.78125 -41.0625,-3.0330611 -41.0625,13.875 C -41.0625,30.783061 -26.599166,43.53125 -11.09375,43.53125 C 4.4116666,43.53125 18.875,30.783063 18.875,13.875 C 18.875,-3.0330628 4.4116617,-15.781247 -11.09375,-15.78125 z"
       transform="matrix(-0.2111937,0.7325154,-0.747122,-0.232809,32.023389,35.356568)" />
    <path
       style="opacity:0.9;fill:none;fill-opacity:1;stroke:#000000;stroke-width:0.40000001;stroke-linecap:butt;stroke-linejoin:miter;stroke-miterlimit:4;stroke-dasharray:none;stroke-opacity:1;display:inline"
       d="M 48.457367,24 L -0.5,24 L 48.457367,24 z"
       id="rect8666"
       sodipodi:nodetypes="ccc" />
    <path
       sodipodi:nodetypes="ccc"
       id="path8669"
       d="M 23.978684,48.478683 L 23.978684,-0.4786835 L 23.978684,48.478683 z"
       style="opacity:0.9;fill:none;fill-opacity:1;stroke:#000000;stroke-width:0.40000001;stroke-linecap:butt;stroke-linejoin:miter;stroke-miterlimit:4;stroke-dasharray:none;stroke-opacity:1;display:inline" />
  </g>
  <g
     inkscape:label="Base"
     inkscape:groupmode="layer"
     id="layer1"
     style="display:inline">
    <path
       style="fill:url(#radialGradient8681);fill-opacity:1;stroke:#2e3436;stroke-width:1;stroke-linecap:square;stroke-linejoin:miter;stroke-miterlimit:4;stroke-dasharray:none;stroke-opacity:1"
       d="M 23.82191,1.4768041 C 22.775333,1.481079 21.744338,1.5728302 20.738687,1.7222117 L 20.411493,8.5907298 C 18.626728,8.9998468 16.973667,9.6916068 15.477105,10.648008 L 9.8951031,6.4574748 C 7.8082187,7.80468 6.8828188,8.739715 5.557284,10.840455 L 10.56091,15.615386 C 9.6200468,17.121784 8.9454266,18.78194 8.5547864,20.570876 L 1.6097299,21.046021 C 1.4707513,22.053182 1.5146651,23.085088 1.521208,24.131677 C 1.5277488,25.178269 1.7467363,26.20946 1.8982976,27.215433 L 8.5984481,27.555119 C 9.0114349,29.340775 9.7067771,30.995334 10.666426,32.493972 L 6.5128728,37.288717 C 7.8646048,39.37852 8.8016495,40.30595 10.90527,41.636039 L 15.644475,37.420936 C 17.152918,38.365063 18.814542,39.043282 20.604332,39.4378 L 21.047765,46.30299 C 22.05523,46.444149 23.08732,46.527473 24.133896,46.523198 C 25.180472,46.518922 26.211467,46.427172 27.217118,46.277791 L 27.588506,39.409272 C 29.373274,39.000154 31.026333,38.308396 32.522895,37.351996 L 38.016508,41.647627 C 40.103395,40.300421 41.028793,39.365387 42.354328,37.264647 L 37.439091,32.384617 C 38.379953,30.878218 39.054573,29.218065 39.445215,27.429126 L 46.353659,27.086565 C 46.492634,26.079405 46.485331,25.047497 46.478792,24.000907 C 46.472248,22.954319 46.26778,21.923125 46.116217,20.917151 L 39.401551,20.444883 C 38.988566,18.659228 38.293222,17.004668 37.333574,15.506033 L 41.487128,10.595099 C 40.264593,8.5370167 39.19835,7.5778647 37.094732,6.2477765 L 32.355524,10.579067 C 30.847082,9.6349398 29.185457,8.9567198 27.395666,8.5622028 L 26.908041,1.6970129 C 25.900574,1.5558539 24.868488,1.4725295 23.82191,1.4768041 z M 23.970892,19.34384 C 26.541069,19.333343 28.640046,21.41078 28.656116,23.980984 C 28.672184,26.551191 26.599289,28.645665 24.029108,28.656162 C 21.458928,28.666661 19.359951,26.589226 19.343883,24.019019 C 19.327817,21.448815 21.400713,19.354338 23.970892,19.34384 z"
       id="path2779"
       sodipodi:nodetypes="cccccccccsccccccccsccccccccsccccccccccsssc" />
    <path
       style="opacity:0.8;fill:url(#radialGradient8679);fill-opacity:1;stroke:none;stroke-width:1.13333356;stroke-linecap:square;stroke-linejoin:miter;stroke-miterlimit:4;stroke-dasharray:none;stroke-opacity:1"
       d="M 23.65625,4.03125 C 23.058368,4.0335889 22.550406,4.1222683 22.125,4.15625 L 21.1875,4.21875 L 21.15625,5.09375 L 20.90625,9.71875 C 18.851145,10.062982 17.040989,10.899814 15.4375,11.9375 L 10.96875,8.25 L 7.4375,11.8125 L 11.1875,16.03125 C 10.120654,17.577618 9.2099114,19.168658 8.96875,21.28125 L 4.15625,21.625 L 3.21875,21.6875 L 3.1875,22.59375 C 3.1564149,23.00151 3.0587625,23.708644 3.0625,24.28125 C 3.066238,24.853855 3.1510953,25.311253 3.1875,25.71875 L 3.25,26.625 L 4.1875,26.65625 L 9.0625,27.09375 C 9.4641992,28.983133 10.194272,30.743307 11.28125,32.28125 L 8.125,35.71875 L 7.5625,36.40625 L 8.125,37.0625 C 8.792213,37.794675 9.7911598,38.712338 10.5625,39.34375 L 11.25,39.90625 L 11.96875,39.34375 L 15.59375,36.3125 C 17.210703,37.337589 19.085702,38.103579 21.0625,38.46875 L 21.4375,43.03125 L 21.5,43.9375 L 22.4375,44 C 22.86333,44.030655 23.464621,44.09609 24.0625,44.09375 C 24.660378,44.091412 25.35584,44.033985 25.78125,44 L 26.71875,43.9375 L 26.78125,43.0625 L 27.15625,38.4375 C 29.128177,38.05688 30.92776,37.287687 32.53125,36.25 L 36.3125,39.34375 L 37,39.875 L 37.6875,39.3125 C 38.450562,38.675085 39.373629,37.768606 40.03125,37.03125 L 40.59375,36.375 L 40.03125,35.71875 L 36.8125,32.125 C 37.879346,30.578632 38.622988,28.829927 39,26.9375 L 43.84375,26.5625 L 44.75,26.5 L 44.8125,25.625 C 44.843581,25.217245 44.878738,24.635106 44.875,24.0625 C 44.87126,23.489902 44.817656,22.844997 44.78125,22.4375 L 44.71875,21.53125 L 43.8125,21.46875 L 39,21.125 C 38.598301,19.235617 37.805729,17.506694 36.71875,15.96875 L 39.90625,12.375 L 40.5,11.6875 L 39.90625,11.03125 C 39.23904,10.299076 38.271341,9.3501648 37.5,8.71875 L 36.78125,8.15625 L 36.09375,8.71875 L 32.375,11.78125 C 30.758046,10.756161 28.974965,9.9366384 26.9375,9.71875 L 26.53125,5.09375 L 26.46875,4.21875 L 25.53125,4.15625 C 25.10542,4.125598 24.254126,4.0289135 23.65625,4.03125 z M 23.90625,18.84375 C 24.421257,18.838347 24.946675,18.906016 25.46875,19.0625 C 28.253151,19.897079 29.735703,22.802221 28.933709,25.477903 C 28.131715,28.153585 25.315651,29.772079 22.53125,28.9375 C 19.746849,28.102921 18.286394,25.175682 19.088388,22.5 C 19.740008,20.326008 21.674554,18.867164 23.90625,18.84375 z"
       id="path2875"
       sodipodi:nodetypes="cccccccccccccsccccccccccccccccsccccccccccccccccsccccccccccccccccccssssc" />
    <path
       style="fill:none;fill-opacity:1;stroke:#ffffff;stroke-width:1;stroke-linecap:square;stroke-linejoin:miter;stroke-miterlimit:4;stroke-dasharray:none;stroke-opacity:0.79607843"
       d="M 23.703438,2.4329835 C 23.219067,2.4349616 22.159018,2.5497726 21.676669,2.5900043 L 21.418678,9.4422118 C 18.949463,9.8432688 17.280202,10.740402 15.404462,11.983149 L 9.9165982,7.7006446 C 9.1101692,8.3426846 7.5992779,9.4858236 6.9173337,10.669153 L 11.879609,15.58628 C 10.463413,17.472343 9.7425123,19.118868 9.432472,21.573119 L 2.5507135,21.997681 C 2.5010895,22.47222 2.5298717,23.646953 2.5328997,24.131331 C 2.5359279,24.615708 2.6740157,25.720097 2.7759084,26.24668 L 9.5063797,26.630882 C 9.9937403,29.042512 10.606037,30.63461 11.996645,32.595178 L 7.7778599,37.359955 C 8.5165856,38.469464 9.5979323,39.632919 10.790054,40.388228 L 15.516068,36.104212 C 17.470667,37.409605 19.168969,38.09613 21.604676,38.562309 L 22.00068,45.457346 C 22.483509,45.493637 23.383506,45.566858 23.867877,45.56488 C 24.352247,45.562902 25.760663,45.536424 26.301404,45.443886 L 26.654116,38.513724 C 29.016477,38.032595 30.713868,37.370436 32.606843,36.013806 L 38.063358,40.439992 C 39.480696,39.461641 40.387,38.375835 41.07141,37.422335 L 36.134795,32.421962 C 37.55099,30.535897 38.229866,28.912955 38.539906,26.458707 L 45.476587,26.090495 C 45.511833,25.607746 45.486521,24.44935 45.483491,23.964973 C 45.480465,23.480598 45.277419,22.355117 45.23614,21.872679 L 38.537897,21.442009 C 38.026861,18.988303 37.362129,17.337704 36.001393,15.441782 L 40.253972,10.460221 C 39.441125,9.2131995 38.457171,8.3410285 37.153111,7.5312995 L 32.387582,11.883303 C 30.498442,10.463019 28.845196,9.7787258 26.390267,9.4633658 L 25.966872,2.55153 C 25.484044,2.5152406 24.187811,2.4310066 23.703438,2.4329835 z"
       id="path2819"
       sodipodi:nodetypes="cccccccccsccccccccsccccccccsccccccccc" />
  </g>
  <g
     inkscape:groupmode="layer"
     id="layer2"
     inkscape:label="Overlay"
     style="display:inline">
    <path
       sodipodi:type="inkscape:offset"
       inkscape:radius="0.40072253"
       inkscape:original="M 25.21875 9.6875 C 18.686961 9.2964937 12.540376 13.528598 10.78125 20.09375 C 8.7708186 27.596782 13.21572 35.333321 20.71875 37.34375 C 28.221779 39.354179 35.958319 34.909283 37.96875 27.40625 C 39.979177 19.90322 35.534281 12.16668 28.03125 10.15625 C 27.093372 9.9049464 26.151863 9.743358 25.21875 9.6875 z M 23.65625 18.53125 C 24.335142 18.436587 25.046591 18.467773 25.75 18.65625 C 28.563636 19.410157 30.222655 22.311373 29.46875 25.125 C 28.714844 27.938626 25.813636 29.597658 23 28.84375 C 20.186363 28.089841 18.527345 25.188627 19.28125 22.375 C 19.846681 20.26478 21.619575 18.81524 23.65625 18.53125 z "
       style="opacity:0.9;fill:url(#linearGradient8719);fill-opacity:1;stroke:none;stroke-width:1.00000024;stroke-linecap:square;stroke-linejoin:miter;stroke-miterlimit:4;stroke-dasharray:none;stroke-opacity:1"
       id="path8717"
       d="M 25.25,9.28125 C 18.531077,8.8790415 12.214631,13.251024 10.40625,20 C 8.3397774,27.712181 12.911935,35.652042 20.625,37.71875 C 28.337177,39.78522 36.27704,35.213068 38.34375,27.5 C 40.410218,19.787822 35.838066,11.847959 28.125,9.78125 C 27.163842,9.5237085 26.213078,9.3389018 25.25,9.28125 z M 24.65625,18.875 C 24.980189,18.893029 25.331833,18.944323 25.65625,19.03125 C 28.25967,19.72883 29.791793,22.426103 29.09375,25.03125 C 28.396171,27.63466 25.698905,29.166796 23.09375,28.46875 C 20.490329,27.771168 18.958207,25.073897 19.65625,22.46875 C 20.179356,20.51649 21.835293,19.200126 23.71875,18.9375 C 24.033272,18.893644 24.332311,18.856971 24.65625,18.875 z"
       transform="matrix(1.0210231,-0.2782213,0.280435,1.0216271,-7.547776,6.5180056)" />
    <path
       sodipodi:type="inkscape:offset"
       inkscape:radius="0.53799099"
       inkscape:original="M 23.5 10.5 C 18.808 10.5 15 14.308 15 19 C 15 23.692 18.808 27.5 23.5 27.5 C 28.192 27.5 32 23.692 32 19 C 32 14.308 28.192 10.5 23.5 10.5 z "
       style="fill:none;fill-opacity:1;stroke:url(#linearGradient8715);stroke-width:0.60722524;stroke-linecap:square;stroke-linejoin:miter;stroke-miterlimit:4;stroke-dasharray:none;stroke-opacity:1"
       id="path8713"
       d="M 23.5,9.96875 C 18.516913,9.96875 14.46875,14.016913 14.46875,19 C 14.46875,23.983087 18.516913,28.03125 23.5,28.03125 C 28.483087,28.03125 32.53125,23.983087 32.53125,19 C 32.53125,14.016913 28.483087,9.96875 23.5,9.96875 z"
       transform="matrix(1.6485434,-6.7212357e-3,1.0307913e-2,1.6450872,-14.920982,-7.08309)" />
    <path
       sodipodi:type="inkscape:offset"
       inkscape:radius="-1.0931966"
       inkscape:original="M 23.5 10.5 C 18.808 10.5 15 14.308 15 19 C 15 23.692 18.808 27.5 23.5 27.5 C 28.192 27.5 32 23.692 32 19 C 32 14.308 28.192 10.5 23.5 10.5 z "
       style="fill:none;fill-opacity:1;stroke:url(#linearGradient8723);stroke-width:1.51648939;stroke-linecap:square;stroke-linejoin:miter;stroke-miterlimit:4;stroke-dasharray:none;stroke-opacity:1;display:inline"
       id="path8721"
       d="M 23.5,11.59375 C 19.399488,11.59375 16.09375,14.899488 16.09375,19 C 16.09375,23.100512 19.399488,26.40625 23.5,26.40625 C 27.600512,26.40625 30.90625,23.100512 30.90625,19 C 30.90625,14.899488 27.600512,11.59375 23.5,11.59375 z"
       transform="matrix(0.7668902,-3.133253e-3,4.7952065e-3,0.7668977,5.8870045,9.5025638)" />
  </g>
</svg>
