/* XPM */
static char * ogle_xpm[] = {
"24 24 10 1",
" 	c None",
".	c #000000",
"+	c #999999",
"@	c #B2B2B2",
"#	c #CCCCCC",
"$	c #7F7F7F",
"%	c #7F7F00",
"&	c #191919",
"*	c #666667",
"=	c #E5E5E5",
"                        ",
"    ...     ...         ",
"   &+#+&   &+#+&        ",
"  .+@@#+. .+@@#+.       ",
"  .@@@@@. .@@@@@.       ",
"  .%@+@$. .%@+@$.       ",
"   &$@$&   &$@$&        ",
"    ...     ...         ",
" .................    . ",
" .+++++++++++++++.   .. ",
" .+++++++++++++++.  .+. ",
" .#@##@##@##@##@#. .+@. ",
" .##@##@##@##@##@..+#=. ",
" .#@#@#@#@#@##@##..=##. ",
" .@@@@@@@@@@+@@+@..@@@. ",
" .@@+@@+@+@@@@@@@..+@@. ",
" .++++++++%++%+++..+++. ",
" .+++++++++++++++. .++. ",
" .+++++++++++++++.  .$. ",
" .*%%%%%%%%%%*%$$.   .. ",
" .$*$*$*$*$*$$*$*.    . ",
" .......&.........      ",
"                        ",
"                        "};
