/* XPM */
static char * clam_xpm[] = {
"32 32 254 2",
"  	c None",
". 	c #E0999B",
"+ 	c #602226",
"@ 	c #6F2A2F",
"# 	c #764147",
"$ 	c #070203",
"% 	c #EEE4E6",
"& 	c #96394F",
"* 	c #805B68",
"= 	c #9A8C91",
"- 	c #CCC5C9",
"; 	c #4C193F",
"> 	c #2F0727",
", 	c #FEFAFE",
"' 	c #BCBABC",
") 	c #89738B",
"! 	c #A79DAC",
"~ 	c #E3DEE7",
"{ 	c #33105B",
"] 	c #130524",
"^ 	c #36206A",
"/ 	c #F0EEF6",
"( 	c #403173",
"_ 	c #180662",
": 	c #17065A",
"< 	c #DAD6EA",
"[ 	c #DAD8E6",
"} 	c #0B035E",
"| 	c #0C0462",
"1 	c #BDBBD2",
"2 	c #322D79",
"3 	c #A8A6C7",
"4 	c #06025E",
"5 	c #06025A",
"6 	c #0A066E",
"7 	c #1B186D",
"8 	c #C9C8E0",
"9 	c #0B0A6E",
"0 	c #0D0C72",
"a 	c #0C0B63",
"b 	c #131071",
"c 	c #131166",
"d 	c #222177",
"e 	c #02025A",
"f 	c #06066D",
"g 	c #060662",
"h 	c #06065E",
"i 	c #DBDBEB",
"j 	c #FAFAFE",
"k 	c #F6F6FA",
"l 	c #F2F2F6",
"m 	c #141678",
"n 	c #B5B6D2",
"o 	c #464A90",
"p 	c #5E619C",
"q 	c #D4D5E5",
"r 	c #353B89",
"s 	c #C0C2DB",
"t 	c #878CBA",
"u 	c #212C84",
"v 	c #969CC5",
"w 	c #C1C2C7",
"x 	c #EDEEF2",
"y 	c #6C7CB4",
"z 	c #C0C5D7",
"A 	c #C6CAD6",
"B 	c #C2C6D2",
"C 	c #CACEDA",
"D 	c #DBDEE6",
"E 	c #D7DAE2",
"F 	c #E6E8EE",
"G 	c #EAEBEE",
"H 	c #CED2DC",
"I 	c #E3E5EA",
"J 	c #395AA5",
"K 	c #CACED6",
"L 	c #D2D6DE",
"M 	c #7997C8",
"N 	c #AFC1DE",
"O 	c #94AFD6",
"P 	c #D3DCEA",
"Q 	c #C2CAD6",
"R 	c #DEE2E8",
"S 	c #3E71B7",
"T 	c #C0D0E6",
"U 	c #B7CDE7",
"V 	c #C4D6EC",
"W 	c #A3C4E4",
"X 	c #C8DCF0",
"Y 	c #CFDFEF",
"Z 	c #C6CED6",
"` 	c #C2CAD2",
" .	c #C8CCD0",
"..	c #BBD7F0",
"+.	c #D8E5F0",
"@.	c #E2EFFA",
"#.	c #3A92D4",
"$.	c #499BD8",
"%.	c #59A4DB",
"&.	c #68ACDE",
"*.	c #7AB6E2",
"=.	c #88BDE5",
"-.	c #99C7E9",
";.	c #A4CDEB",
">.	c #ACD2EE",
",.	c #D6EAFA",
"'.	c #D3E6F5",
").	c #B3D6EE",
"!.	c #CDE3F3",
"~.	c #DBECF7",
"{.	c #D6EAF6",
"].	c #EEF2F4",
"^.	c #FAFEFE",
"/.	c #F6FAFA",
"(.	c #F2F6F6",
"_.	c #F6FAF6",
":.	c #FEFEF9",
"<.	c #EAE28E",
"[.	c #E6E2B9",
"}.	c #F6E879",
"|.	c #F6E887",
"1.	c #F8EC98",
"2.	c #FAF0A6",
"3.	c #FAF2B3",
"4.	c #FAF3BE",
"5.	c #FAF4CA",
"6.	c #F3DD5E",
"7.	c #F3EBBB",
"8.	c #FBF5D5",
"9.	c #EEC723",
"0.	c #F9E9A6",
"a.	c #FAEBB0",
"b.	c #FCF5DB",
"c.	c #FDF8E5",
"d.	c #FEFBF0",
"e.	c #F0C744",
"f.	c #F6DD8B",
"g.	c #FAEBBC",
"h.	c #F6EBC6",
"i.	c #F9F6EC",
"j.	c #F6DE97",
"k.	c #EFC862",
"l.	c #F2D27D",
"m.	c #F4DEA6",
"n.	c #FAE5B1",
"o.	c #FAEBC4",
"p.	c #F6EACC",
"q.	c #AFA794",
"r.	c #E9E2D0",
"s.	c #E4AF38",
"t.	c #E5B64E",
"u.	c #E2C27D",
"v.	c #E3C789",
"w.	c #EED293",
"x.	c #EDD49E",
"y.	c #F6E2B3",
"z.	c #F0DCB1",
"A.	c #F4E3BC",
"B.	c #A89C82",
"C.	c #BAAD91",
"D.	c #AEA38B",
"E.	c #F3E4C3",
"F.	c #FAECCB",
"G.	c #F6ECD6",
"H.	c #DFD7C6",
"I.	c #704E09",
"J.	c #66470A",
"K.	c #855E10",
"L.	c #765410",
"M.	c #8E6719",
"N.	c #AB7D22",
"O.	c #5B4314",
"P.	c #654C19",
"Q.	c #70551D",
"R.	c #8F6D2A",
"S.	c #7B5F25",
"T.	c #A37D33",
"U.	c #B48C3C",
"V.	c #C59B47",
"W.	c #D4AA53",
"X.	c #95783D",
"Y.	c #6D5930",
"Z.	c #DAB364",
"`.	c #B09052",
" +	c #E4BD6B",
".+	c #7E683C",
"++	c #D1AD64",
"@+	c #C3A25E",
"#+	c #9A8251",
"$+	c #D9B876",
"%+	c #AF9664",
"&+	c #CEB47D",
"*+	c #C4AA77",
"=+	c #B8A172",
"-+	c #877655",
";+	c #D6BD89",
">+	c #E5CB96",
",+	c #DCC494",
"'+	c #978767",
")+	c #C2AE87",
"!+	c #D3BF96",
"~+	c #E4CFA4",
"{+	c #DFCBA1",
"]+	c #B7A684",
"^+	c #EAD5AB",
"/+	c #A29477",
"(+	c #FAE6BC",
"_+	c #C9B99A",
":+	c #E8D7B5",
"<+	c #DFCFB0",
"[+	c #D9CAAC",
"}+	c #EADBBE",
"|+	c #E1D3B6",
"1+	c #BFB39C",
"2+	c #D2C6AD",
"3+	c #EEE1C6",
"4+	c #CDC1AA",
"5+	c #D7CBB3",
"6+	c #C6BBA5",
"7+	c #F3E6CC",
"8+	c #503708",
"9+	c #4F3B16",
"0+	c #624E28",
"a+	c #CAB58D",
"b+	c #D8C6A4",
"c+	c #D1C0A1",
"d+	c #FAE6C2",
"e+	c #D5CDBE",
"f+	c #F0EBE2",
"g+	c #432C06",
"h+	c #DFD9D2",
"i+	c #F3F2F1",
"j+	c #F5ECE7",
"k+	c #B5B1AF",
"l+	c #FEFAF8",
"m+	c #CCBFB9",
"n+	c #F5D1CF",
"o+	c #260908",
"p+	c #87221F",
"q+	c #DB5E5A",
"r+	c #E28A86",
"s+	c #E3C1C0",
"t+	c #490A0A",
"u+	c #621615",
"v+	c #A72A27",
"w+	c #C4322F",
"x+	c #CE4543",
"y+	c #AD4D4B",
"z+	c #C77776",
"A+	c #EBA2A2",
"B+	c #ECACAB",
"C+	c #EDC7C7",
"D+	c #FAF5F5",
"E+	c #E6E4E4",
"                                                                ",
"                                                                ",
"                                                                ",
"                  c.                                            ",
"              }.1.|.6.}.1.  i.                                  ",
"            2.|.2.|.3.}.0.9.0.9.a.                              ",
"          }.}.1.3.p 8.1.5.8.2.|.y.9.m.m.                        ",
"          |.}.5.3.: 4.8.7.8.<.8.0. +j.k.z.                      ",
"          }.o J ;.} ;.).a 8.|.8.|.8.y.m.A.v.~+                  ",
"        3.u -.;.).: *.;.#.-.V.g.f.F.n.F.d+W.}+,+b+              ",
"        y -.@.B 4 _ 4 h $.-.=.[+s.y.w.F.G.V.H.b+M.6+            ",
"      b {.{.1 n 3 } '.4 ; =.;.=.e.(+t.x.G.,+&+b+M.2+            ",
"      ,.{.n n F r+_ w+p+} 4 ).=.W.d+l.$+z.;+*+[+#+5+]+G         ",
"    s {.+._   n+q+_ v+$ = 4 M =.9 d+z.V.{+b+M.r.1+I.6+D.        ",
"    m +.Y 4 + q+q+_ o+A+$ 4 5 -.S x.E.V.N.<+T.#+h+S.1+D.I       ",
"    6 {.Y 4 u+w+A+_ B+@ $ 4 5 ;.#. +3+@+N.!+b+K.]+e+0+q.E       ",
"    p '.{.4 @.v+t+_ $ o+) 4 O ;.u Z.}+|+`.M.2+#+S.q.5+O.H F     ",
"      {.{.4 4 y+o+: o+t+a 4 ;.).0 ++V.|+[+T.K.4+-+O.B.H.K I     ",
"      d {.'.4 4 ..: T 5 4 %.=.;.7+,+V.`.%+4+S.L.D.q.O.q.C I     ",
"        '.{.{.y 4 _ 4 4 >.%.*.f {+3+|+`.R..+1+/+Q.0+B.) H F     ",
"        p '.{.'.{.: =.W >.&.9 W.++*+*+5+c+X.Q.P.B.B.9+ .L       ",
"            o {.{.: =.-.W d ^+^+;+`.T.M.R.Q.D./+/+g+Y.` E       ",
"                6 _ f = p.p.z.3+b+*+c+_+1+1+.+8+9+-+w Z I       ",
"                  : r.y.d+^+;+&+U.=+K.I.-+P.8+g+0+` ` L         ",
"                      m.z.Z.<+,+`.=+_+I.Q..+0+g+` ` C I         ",
"                      x.x.~+~+U.)+a+X.J.'+/+B ` ` H R           ",
"                        ~+$+{+T.)+L.A B B z Q C E F             ",
"                        E A z B B B Q A C L E I                 ",
"                        G E H C C C L D I                       ",
"                            F I I I                             ",
"                                                                ",
"                                                                "};
