/* XPM */
static char *convertall[] = {
/* columns rows colors chars-per-pixel */
"32 32 6 1",
"  c black",
". c #6F6FF2",
"X c #C42727",
"o c #C9C12C",
"O c gray100",
"+ c None",
/* pixels */
"++++XXXXXXXXXX    ..........++++",
"++XXXXXXXXXXXX    ............++",
"+XXXXXXXXXXXXX    .............+",
"+XXXXXXXXXXXXX    .............+",
"XXXX      XXXX    ..............",
"XXXX         X    ..............",
"XXXXX  XXX         .............",
"XXXX    XXXXX         ..........",
"XXXX    XXXXXX    .         ....",
"XXX  XX  XXXXX    ....      ....",
"XXX  XX  XXXXX    .......  .....",
"XXX  XX  XXXXX    ......    ....",
"XX  XXXX  XXXX    ......    ....",
"XX  XXXX  XXXX    .....  ..  ...",
"XX  XXXX  XXXX    .....  ..  ...",
"X  XXXXXX  XXX    .....  ..  ...",
"X  XXXXXX  XXX    ....  ....  ..",
"X  XXXXXX  XXX    ....  ....  ..",
"  XXXXXXXX  XX    ....  ....  ..",
"  XXXXXXXX  XX    ...  ......  .",
"  XXXooXXX  XX    ...  ......  .",
"  XXooooXX  XX    ...  ......  .",
"            XX    ..  ...oo...  ",
"            XX    ..  ..oooo..  ",
"X          XXX    ..  ..oooo..  ",
"XX        XXXX    ..  ..oooo..  ",
"XXX      XXXXX    ..            ",
"XXXXX  XXXXXXX    ..            ",
"+XXXXXXXXXXXXX    ...          +",
"+XXXXXXXXXXXXX    ....        .+",
"++XXXXXXXXXXXX    .....      .++",
"++++XXXXXXXXXX    .......  .++++"
};
