<?xml version="1.0" encoding="utf-8"?>
<!-- Generator: Adobe Illustrator 12.0.0, SVG Export Plug-In . SVG Version: 6.00 Build 51448)  -->
<!DOCTYPE svg PUBLIC "-//W3C//DTD SVG 1.1//EN" "http://www.w3.org/Graphics/SVG/1.1/DTD/svg11.dtd" [
	<!ENTITY ns_svg "http://www.w3.org/2000/svg">
	<!ENTITY ns_xlink "http://www.w3.org/1999/xlink">
]>
<svg  version="1.1" id="Layer_1" xmlns="&ns_svg;" xmlns:xlink="&ns_xlink;" width="315.504" height="312.026"
	 viewBox="0 0 315.504 312.026" overflow="visible" enable-background="new 0 0 315.504 312.026" xml:space="preserve">
<g>
	<g>
		<radialGradient id="petal_10_" cx="154.8779" cy="139.0317" r="271.9062" gradientUnits="userSpaceOnUse">
			<stop  offset="0" style="stop-color:#3180E3"/>
			<stop  offset="0.6685" style="stop-color:#112656"/>
		</radialGradient>
		<path id="petal_27_" fill="url(#petal_10_)" d="M105.119,0c4.659,0.522,34.773,11.25,36.017,56.516
			c0.406,21.249-7.139,35.635-6.998,51.731c0.375,18.074,17.458,30.755,21.843,32.77c-8.771,0.911-50.989-11.503-51.197-48.817
			c-0.142-26.935,10.615-46.033,11.228-66.705C116.195,13.15,107.678,2.198,105.119,0z"/>
	</g>
	<g>
		<radialGradient id="petal_11_" cx="154.8774" cy="139.0317" r="271.907" gradientUnits="userSpaceOnUse">
			<stop  offset="0" style="stop-color:#3180E3"/>
			<stop  offset="0.6685" style="stop-color:#112656"/>
		</radialGradient>
		<path id="petal_22_" fill="url(#petal_11_)" d="M315.504,184.815c-2.843,3.719-27.6,23.944-66.991,1.61
			c-18.402-10.64-26.817-24.536-40.668-32.733c-15.658-9.021-35.342-0.954-39.334,1.76c3.75-7.982,36.204-37.703,68.249-18.576
			c23.14,13.783,33.913,32.874,51.303,44.088C298.522,187.5,312.31,185.865,315.504,184.815z"/>
	</g>
	<g>
		<path id="petal_21_" fill="url(#petal_10_)" d="M53.047,272.031c-1.629-4.389-5.551-36.121,34.333-57.542
			c18.813-9.906,35.049-9.613,49.376-16.985c15.977-8.43,19.65-29.397,19.466-34.223c4.76,7.438,12.615,50.729-20.644,67.666
			c-24.009,12.229-45.9,11.178-64.645,19.91C59.831,256.229,53.858,268.757,53.047,272.031z"/>
	</g>
	<g>
		<radialGradient id="petal_13_" cx="154.8784" cy="139.0317" r="271.9061" gradientUnits="userSpaceOnUse">
			<stop  offset="0" style="stop-color:#3180E3"/>
			<stop  offset="0.6685" style="stop-color:#112656"/>
		</radialGradient>
		<path id="petal_20_" fill="url(#petal_13_)" d="M159.102,312.026c-4.151-2.158-28.409-22.991-13.318-65.679
			c7.25-19.977,19.456-30.687,25.097-45.773c6.146-16.991-5.247-34.968-8.619-38.419c8.521,2.294,43.455,29.039,30.258,63.952
			c-9.538,25.186-26.434,39.143-34.424,58.222C153.497,295.775,157.495,309.066,159.102,312.026z"/>
	</g>
	<g>
		<path id="petal_19_" fill="url(#petal_10_)" d="M21.229,66.934c4.011-2.416,34.455-12.184,62.936,23.026
			c13.235,16.629,15.974,32.635,25.876,45.337c11.269,14.129,32.542,13.822,37.249,12.756c-6.415,6.054-47.486,21.843-70.321-7.684
			c-16.482-21.302-19.531-43.01-31.602-59.795C38.013,70.652,24.591,67.121,21.229,66.934z"/>
	</g>
	<g>
		<path id="petal_18_" fill="url(#petal_10_)" d="M300.803,69.976c0.257,4.676-5.304,36.162-49.727,44.919
			c-20.882,3.943-36.321-1.11-52.172,1.726c-17.756,3.374-27.422,22.334-28.666,26.997c-2.366-8.5,2.835-52.202,39.606-58.617
			c26.53-4.633,47.151,2.793,67.637-0.049C289.681,83.087,299.06,72.862,300.803,69.976z"/>
	</g>
	<g>
		<radialGradient id="petal_24_" cx="154.8784" cy="139.0317" r="271.9044" gradientUnits="userSpaceOnUse">
			<stop  offset="0" style="stop-color:#3180E3"/>
			<stop  offset="0.6685" style="stop-color:#112656"/>
		</radialGradient>
		<path id="petal_17_" fill="url(#petal_24_)" d="M223.453,1.355c2.976,3.622,17.084,32.312-13.567,65.632
			c-14.531,15.52-29.955,20.564-41.084,32.221c-12.328,13.203-8.921,34.208-7.179,38.708c-6.922-5.462-28.542-43.786-2.677-70.692
			c18.671-19.416,39.701-25.598,54.546-39.997C222.232,18.51,223.764,4.72,223.453,1.355z"/>
	</g>
	<g>
		<path id="petal_16_" fill="url(#petal_10_)" d="M253.636,283.099c-4.643,0.654-36.477-2.336-48.812-45.9
			c-5.633-20.493-1.856-36.298-5.973-51.875c-4.794-17.408-24.481-25.498-29.231-26.364c8.277-3.047,52.257-1.408,61.644,34.705
			c6.771,26.075,1.04,47.228,5.542,67.422C239.671,273.085,250.611,281.61,253.636,283.099z"/>
	</g>
	<g>
		<path id="petal_15_" fill="url(#petal_10_)" d="M0,177.103c1.502-4.434,18.414-31.558,62.898-23.118
			c20.849,4.136,33.288,14.575,49.059,17.875c17.722,3.493,33.758-10.492,36.661-14.352c-0.983,8.761-22.117,47.367-58.615,39.603
			c-26.353-5.604-42.712-20.19-62.78-25.2C15.21,169.097,2.688,175.08,0,177.103z"/>
	</g>
</g>
</svg>
