/* XPM */
static char *freqtweak_logo32x18[] = {
/* columns rows colors chars-per-pixel */
"32 18 257 2",
"   c black",
".  c #17C4158B17F4",
"X  c #1A8427D21ACF",
"o  c #301800003D73",
"O  c #2D9F1D6B38D4",
"+  c #214F2DD51B39",
"@  c #25102FCE24E5",
"#  c #2B4235AB28E6",
"$  c #2E1339502CD2",
"%  c #32D63D182B16",
"&  c #36E338AB3299",
"*  c #1C8C04F755FD",
"=  c #2CC604854E38",
"-  c #267004F051CB",
";  c #3D5F1A504CA5",
":  c #3E5B1163490E",
">  c #3147175D50C8",
",  c #3CA043A23B00",
"<  c #55B800000000",
"1  c #497D31512223",
"2  c #615B1D7E19C1",
"3  c #792C10D11F25",
"4  c #61F51BAA2602",
"5  c #695418733E76",
"6  c #77EF17982D03",
"7  c #788810D42EBC",
"8  c #6CEA2A98293B",
"9  c #665A3C212CAD",
"0  c #79982872278A",
"q  c #7D583F9C3A28",
"w  c #40CB1B584EAA",
"e  c #45651F425293",
"r  c #53F31DC7497B",
"t  c #4FE518667936",
"y  c #528F1E9D6EFB",
"u  c #46CB3B1047F4",
"i  c #4F413AF67906",
"p  c #566C21466196",
"a  c #60CA09D97C67",
"s  c #7FA302DD7B39",
"d  c #6E3037A55E4F",
"f  c #63AA29377BDE",
"g  c #6AEF33B7785B",
"h  c #78442AFA77AF",
"j  c #49E654D93CD6",
"k  c #4642585A35FC",
"l  c #758A4D093E8C",
"z  c #405942AD4059",
"x  c #48E54DDC47F5",
"c  c #4CCA52F04CED",
"v  c #49F35A6D4B52",
"b  c #562A5D6F4521",
"n  c #552D5A6552FF",
"m  c #58EE5A445981",
"M  c #4CD85ED36961",
"N  c #53214C0565DC",
"B  c #5484481972D6",
"V  c #5D84579A6A48",
"C  c #5FED5138745D",
"Z  c #4CDE6308424E",
"A  c #5B9C670B4E56",
"S  c #598262925AB7",
"D  c #5A5D72CF5EDC",
"F  c #492367DA798B",
"G  c #4BFD6B457E84",
"H  c #583170566C14",
"J  c #5C90663566D9",
"K  c #5669680271B1",
"L  c #5ED5740A7013",
"P  c #5D7271557C39",
"I  c #48BD6B1C6A48",
"U  c #6D98497F57D7",
"Y  c #7DBE52FE4D05",
"T  c #7A8D5515583B",
"R  c #74B94A4447BF",
"E  c #688F6037766B",
"W  c #647156397916",
"Q  c #74885A7F6492",
"!  c #66D344567B06",
"~  c #6AE06E176D51",
"^  c #64C96A0F689A",
"/  c #6DBC795C7066",
"(  c #6B7373BC6BA2",
")  c #6E0376077791",
"_  c #7ECF682F62C2",
"`  c #725572FC6C64",
"'  c #748F762B74B2",
"]  c #783C75F179C4",
"[  c #7F357FE37F35",
"{  c #78DA7ABF74CD",
"}  c #68E9638A77A0",
"|  c #402816AA8106",
" . c #4BE404448814",
".. c #425202319B30",
"X. c #5FFF011B8815",
"o. c #5EC901DA8E78",
"O. c #48B927E8873F",
"+. c #416821168C5C",
"@. c #64CF08F28889",
"#. c #70130DE69584",
"$. c #6FFD1C0E886E",
"%. c #74AB075A9F99",
"&. c #608A0CE8A3CE",
"*. c #72A50432A130",
"=. c #7A373B3793CD",
"-. c #5C8D484A8795",
";. c #4BC66F5E84C8",
":. c #4D1075CB8D14",
">. c #4E627A3D93D5",
",. c #577375CF8329",
"<. c #534A766F8CD3",
"1. c #59C374BA8555",
"2. c #5C587BB88E57",
"3. c #5DBF78458A66",
"4. c #524A7D2394F5",
"5. c #776859648F69",
"6. c #79EF548B95AB",
"7. c #7C935AB09750",
"8. c #620A794287A0",
"9. c #6EC87C478322",
"0. c #74A17F5185BF",
"q. c #7D7479F78F88",
"w. c #77F8717590CE",
"e. c #4F378548A5BF",
"r. c #7D8B828E85BD",
"t. c #7A4A85E38D7A",
"y. c #7BEB8C2093B4",
"u. c #95CF00000000",
"i. c #9A9509B61BE9",
"p. c #93690F6C33EB",
"a. c #9CA0198C2ED6",
"s. c #887E3AFE1D93",
"d. c #A06B2D831288",
"f. c #A02A330D1F8C",
"g. c #9C95279628D8",
"h. c #94BE393D2A32",
"j. c #9DDF37223941",
"k. c #98F826563852",
"l. c #AC910B6B1D3B",
"z. c #A2B914BE1158",
"x. c #A7580BBE23AB",
"c. c #AB2B26A616E5",
"v. c #A6543B8F057F",
"b. c #AF0E329A0BDD",
"n. c #A20920D93D6D",
"m. c #9CE30CDA5880",
"M. c #9F0F15F44719",
"N. c #9ACF1D3D5BF5",
"B. c #97061DDC6E12",
"V. c #867824F45B42",
"C. c #98DC38B349B8",
"Z. c #863921FD69CD",
"A. c #80F4374D79EB",
"S. c #98063590693A",
"D. c #98233EF96A75",
"F. c #A4EF07715CE3",
"G. c #8D7349972DDE",
"H. c #8AFA5E57303F",
"J. c #96CB59D62CE0",
"K. c #9B9853CA39D5",
"L. c #911563720E17",
"P. c #9B4E67C238F1",
"I. c #9D8363B33655",
"U. c #97107B0C3DC2",
"Y. c #ADC145D90AB6",
"T. c #85234F5D57B0",
"R. c #8A3752C24D1A",
"E. c #8B8D564E5505",
"W. c #912C53074D62",
"Q. c #90ED57135AE7",
"!. c #8733574B683B",
"~. c #871A5FDE626B",
"^. c #84B35C717594",
"/. c #924547626689",
"(. c #8F37679653A3",
"). c #85666EBF6856",
"_. c #85E2702568FE",
"`. c #8C686E056A83",
"'. c #8E406E2D7151",
"]. c #8ED968CD7E5A",
"[. c #8BFC749D6ABE",
"{. c #8EB87ECA74E2",
"}. c #9A8367DE71A0",
"|. c #93377C9D73CA",
" X c #9F8E728B7F7C",
".X c #930C7E3C7BF4",
"XX c #B040462A506C",
"oX c #C1CD1FC10FF8",
"OX c red",
"+X c #FFFF0EE70000",
"@X c #80A405C49B2E",
"#X c #9400033F8C43",
"$X c #84AF48FD9208",
"%X c #86005FE082E2",
"&X c #883467F78849",
"*X c #83D26D998C9E",
"=X c #8C716C09951A",
"-X c #89027A008DEF",
";X c #8ED57A2691FA",
":X c #93C673ED857F",
">X c #9A6979858650",
",X c #991567DE8621",
"<X c #FFFF00008A2F",
"1X c #83D384A47EA8",
"2X c #845685AA8561",
"3X c #88818A0D867B",
"4X c #8C138C8C8C27",
"5X c #8DD286D28B91",
"6X c #8F1087DA920D",
"7X c #85C68C9490D7",
"8X c #900590D18E16",
"9X c #8E5B92479471",
"0X c #9555808688CD",
"qX c #91A48F598871",
"wX c #91B390438D3B",
"eX c #991486B788EC",
"rX c #9E878B6A9087",
"tX c #98BF8E519828",
"yX c #919B8B129447",
"uX c #964B91DB8F8B",
"iX c #95369459954E",
"pX c #988198919B35",
"aX c #970E99FB9B79",
"sX c #9CA499AA971A",
"dX c #9A469C679CB5",
"fX c #955696CB983D",
"gX c #A3E8A1AB9F10",
"hX c #A54DA499A461",
"jX c #A6C1B041AA00",
"kX c #AE18ACF2AC7B",
"lX c #AE8BB222AA88",
"zX c #B033B3BEB585",
"xX c #B623AEE5B6FD",
"cX c #B4A1B4E2B5EF",
"vX c #BD46BD76BD7A",
"bX c #B7FCB8D0BD46",
"nX c #BD7BC3DBC1AD",
"mX c #A322FFFFFFFF",
"MX c #BE33FFFFFFFF",
"NX c #C5A3BF9CC5A3",
"BX c #C118CF98BF93",
"VX c #C1ECC3E1BD10",
"CX c #C40DC3E9C475",
"ZX c #C7B6C718C9C1",
"AX c #CA6CCF3CC7AB",
"SX c #CFB0CCE7CFB0",
"DX c #C461CAFCCAF7",
"FX c #D3A7D50DCD89",
"GX c #DC3ADA5CDD30",
"HX c #D809D931D2B5",
"JX c #C5BFFFFFFFFF",
"KX c #E4F8E1E0DEC6",
"LX c #E377E377E377",
"PX c #EFFAEFFAEFFA",
"IX c #FFFFFFF9FFBE",
"UX c #D29DF02CCEF3",
"YX c None",
/* pixels */
"YXYXYXYXYXYXYXYXYXYXYXYXYXYXYXYXYXYXYXYXYXYXYXYXYXYXYXYXYXYXYXYX",
"YXYXZX8X{ dXYXYXYXYXYXYXYXYXYXYXYXYXYXYXYXYXYXYXYXYXYXYXYXYXYXYX",
"YXGX` j A ] IXbXCXIXSXCXIXYXYXIXxXIXYXYXYXYXYXYXYXYXYXYXYXYXYXYX",
"YXcXn I 0.hX' c sX2Xn c ~ 5XuX^ x ^ [ YXYXYXYXYXYXYXYXYXYXYXYXYX",
"YXgXL :.t.1X# + { % @ # $ 4X/ k + X c cXYXYXYXYXYXYXYXYXYXYXYXYX",
"YXhX2.e.,.m Z b ( v n x v ) 2.,.3X# $ ] YXYXYXYXYXYXYXYXYXYXYXYX",
"YXhX2.>.0.K 4.y.t.>.P / J r.2.>.0.j % n YXYXYXYXYXYXYXYXYXYXYXYX",
"YXhX3.;.x M :.y.fX,.:.G r.KX) :.F H D n YXYXYXYXYXYXYXYXYXYXYXYX",
"YXvX2X` ~ -X0.aXIXaX9.9.9XYXkX7XL 3.4.m YXYXYXYXV B w.HXYXYXYXYX",
"YXcXU.L.1 YXYXYXYXYXYXYXYXYXYXYXfX8.3.` YXYXYXYXe @.6.UXYXIXIXYX",
"YXzXI.v.Y rXE..X].T Q T tXjX~.0 T.sXdX1Xq 0 ~.kXw o.6.].d iXIXYX",
"YXcXK.oXG._.c.W.C.p.4 x.}.!.a.h.k./.tXV.M.n.d w.r Z.g $.h uXIXYX",
"YXzXP.v.R [.c.W.j.i.2 x. XS.m.Q Z.B.^.#X$X=X%.f ; @.p a ! nXYXYX",
"YXbXH.b.W.1XY.G.c.z.7 x.>XD.F.^.:X:X&X*.=.-X%.t > ..-.O.| yXYXYX",
"YXmX|.g.s.qXJ.Y.d.a.l.g.eX>XN.m.A.fXyX=.%.g #.t ; o.7.5. .W HXYX",
"YXIXDX_ [.gX[.(.{.`.E.[.CXZX>X,X%X4XIXfX=X;Xp ; > - W } * N FXYX",
"YXYXYXYXIXYXYXMXIXYXJXYXYXYXYXIXYXYXYXYXIXIXYXYXYXYXYXYXYXYXYXYX",
"YXYXYXYXYXYXYXYXYXYXYXYXYXYXYXYXYXYXYXYXYXYXYXYXYXYXYXYXYXYXYXYX"
};
