/* XPM */
static char *fslview[] = {
/* columns rows colors chars-per-pixel */
"32 32 115 2",
"   c #2D2D2C",
".  c #2D2F31",
"X  c #343434",
"o  c #39373F",
"O  c #383837",
"+  c #3B3C3C",
"@  c #3A3E42",
"#  c #3B433D",
"$  c #3E4143",
"%  c #43433D",
"&  c #434443",
"*  c #444348",
"=  c #464A4C",
"-  c #494A47",
";  c #4B4B4B",
":  c #474C50",
">  c #4A4E52",
",  c #4E514E",
"<  c #4D5150",
"1  c #4E545B",
"2  c #535353",
"3  c #525459",
"4  c #545A5C",
"5  c #585757",
"6  c #595A56",
"7  c #5C5C5C",
"8  c #575D64",
"9  c #565C68",
"0  c #5A5E64",
"q  c #5F605C",
"w  c #5C6263",
"e  c #5D6369",
"r  c #636363",
"t  c #646669",
"y  c #646867",
"u  c #656B6B",
"i  c #696260",
"p  c #6D676D",
"a  c #6B6C6C",
"s  c #646B73",
"d  c #6A6E72",
"f  c #6B6F78",
"g  c #66706F",
"h  c #6A706E",
"j  c #677271",
"k  c #67717A",
"l  c #6C7274",
"z  c #6E747B",
"x  c #6F7B7C",
"c  c #736F73",
"v  c #76746E",
"b  c #747374",
"n  c #73767B",
"m  c #757A7E",
"M  c #79777C",
"N  c #797876",
"B  c #7B7B7D",
"V  c #727682",
"C  c #757B83",
"Z  c #767E8A",
"A  c #7B7C82",
"S  c #797F8B",
"D  c #7F807F",
"F  c #7C8186",
"G  c #7B838B",
"H  c #7E8491",
"J  c #7F8890",
"K  c #807F85",
"L  c #828284",
"P  c #85858B",
"I  c #83898F",
"U  c #89878C",
"Y  c #8B8A8D",
"T  c #858590",
"R  c #848A93",
"E  c #858B98",
"W  c #898790",
"Q  c #8C8C93",
"!  c #8B8E9A",
"~  c #8E908F",
"^  c #8F9196",
"/  c #8E929C",
"(  c #908C8F",
")  c #908F95",
"_  c #918E99",
"`  c #929294",
"'  c #94939A",
"]  c #97999E",
"[  c #9A979C",
"{  c #9B9B9C",
"}  c #9197A4",
"|  c #9896A1",
" . c #9B9AA2",
".. c #9F9DA8",
"X. c #A09EA4",
"o. c #A09DAD",
"O. c #A3A3A3",
"+. c #A4A2AA",
"@. c #A2A9A8",
"#. c #A9A7AE",
"$. c #ABAAA5",
"%. c #ABABAC",
"&. c #ABACB4",
"*. c #ADAEBC",
"=. c #AFB0AB",
"-. c #B3B2B2",
";. c #B5B4BB",
":. c #BEBEBD",
">. c #BDC0BF",
",. c #C3C3C3",
"<. c #CBCCCC",
"1. c #D5D4D4",
"2. c #DCDCDB",
"3. c #DFDFE0",
"4. c #E3E3E3",
/* pixels */
"U Q ' Q ` ' Q ) W P K L L P Y Q P L P B A A K U K ( K U U Q W _ ",
"Q ' ' ]  .] ' ' _ W L Y U U U ( Y ( ) Y U W Q _ _ _ U U Q U ) { ",
"P P Y ` ) U Y P P K K B n n A A K A L ( K A ) | ' K Q A B A M A ",
"L L Y [ ` Q ) Y U L P B b M K U K A A A t , - r [ X.Q K L L M M ",
"N M K _ | ' _ W K P P K B M ) o.o.X.) ) K N r - % L ;.U A K M b ",
"c B K W ! _ ! Q K K P ) | _ W ) _ X.#.#.o.' { P r o A ;._ c b M ",
"M K K _ Q | ' _ Y P ' ` Q U v p X.U +.( ' ( | o.| f 3 _ ;.Q c A ",
"b M A S K W Q _ ' W b A K c i i c ( [ U ( L U ) Q m C T | ;.' V ",
"b Y ` &.-.&.#.#.{ b A 7 a v $.1.1.$.` K ( D Y Y O.@.F b M Y &.I ",
"i y L 4.1.>.>.O.B - r N a =.2.1.,.:.( , a a N q -.,.- 7 h X ' &.",
"7 q D 1.c & r a y 2 p N Y :.` % 2 r ` 2 q r h 7 { =.$ p Y v B *.",
"v y ( ,.- & X r Y 2 5 w D ,.6 q r 7 q q a a u q ] %.- 2 B L G &.",
"c r ` -.; u , X 7 6 2 y b <.6 ; ; 6 r r y 7 i 5 [ $.$ o a K A P ",
"b y Y >., h h # O p c 7 r >.O.a c N K D Y v U 7 [ #.O i a c A n ",
"n p B <.D ~ ~ ~ Y y N 6 7 L 2.O.b b N a L r N 5 [ O.% 0 q M X._ ",
"A p N 1.L y D ~ b O 2 - & 7 [ 2.:.N r , a 2 r 2 { $.% $ ; 0 b K ",
"L h D <.7 6 4 $ % O O O X X ; L <.:.p 2 - % ; < [ %.O   X o & % ",
"B y ~ :.1 ~ J < O - 2 2 , - & O 7 <.{ 5 & o * ; { #.O X O . + ; ",
"C u { O.; F l $ ; * 2 2 5 7 7 q - B >.7 , 7 5 5 ` $.% O < w 5 = ",
"P u { { - r # < M - & a ~ o 2 2 - K <.6 ; r 5 7 ( :.* O & C s 9 ",
"A t X.X.O + 4 e 5 & O q -.b ; & 7 ,.:.% 2 2 5 7 B <.r 6 y m W T ",
"9 y -.-.* 4 e q 3 & o d ` 3.1.:.4.4.b X 2 ; , 7 D 3.,.-.:.$.L w ",
"G w U U = l z w t : = & 4 { 3.2.&.q O , & & % - 7 ~ { Y L N 4 0 ",
"F m B B z F C C n A 8 8 $ & @ O   O & * ; & % X %   o @ @ 9 V E ",
"I R J R J Z C F F G C k s 1 ; - ; & 2 - ; & = > : O = 8 k G H } ",
"I J J H G F z z C G V C F k n y 4 y 3 r 2 4 e 9 0 & + f G Z H / ",
"G H G H G C C V x A F B l x n j n A F B m F E z > @ u I R C Z J ",
"G S H S V V x x l z B m m F F F B m G A I I V 1 3 z F F Q Z J E ",
"Z V H H G V x k j j l b n m C B F F F Z n s 0 f F F F F I C G ! ",
"k k V C V V k g h g g g j l z z k z s e z C n n z F D I F C Z J ",
"z n V z l z j s h u u h u u u u u u e u d z l l l n m F V A Z I ",
"S Z F F B F n j h h h l h a h h j a j k l m C m F F U F F I R R "
};
