/* XPM */
static char * gato_xpm[] = {
"48 48 2 1",
" 	c none",
".	c #000000000000",
"                                                ",
"                                                ",
"                                                ",
"                                                ",
"                                                ",
"                                                ",
"                                                ",
"                                                ",
"                                            .   ",
"                                 .          .   ",
"                                ..         ...  ",
"                                ...        ...  ",
"                               ....       ....  ",
"                               ....       ....  ",
"                               ...          ..  ",
"                               .   ........     ",
"                                ...        ..   ",
"                               ..           ..  ",
"                              ..            ..  ",
"                             ...             .. ",
"                             ..              .. ",
"                            .. .        .    .. ",
"                            .. .      ..     .. ",
"                       ..  ..        ..      .. ",
"                      ..   ..                .. ",
"                      ..  ...                .. ",
"                     ...  ..   ....         ... ",
"                     ..   ..    ..          ..  ",
"                    ..... ....  .           ..  ",
"                     ..  ...        .....  ...  ",
"    .....    ... .  ..  . .....          ....   ",
"  ..   .   ..   ..  .. .   .         ..   ....  ",
"  ..   ..  .    ..  .. .  ...          .....  . ",
" ..   ..  ..   ...  .    . ..           ...   . ",
"...  . .  .   ...  ..    .  ..         ...      ",
"... . .....  .... ... . .    ..       ..  .     ",
" ...  ..  ...  ... ...  .     ........    .     ",
"     ..                 .                 .     ",
"   ....                                   .     ",
"  .  .                                          ",
" .  ..                                          ",
" .  ..                                          ",
" .  .                                           ",
" ...                                            ",
"                                                ",
"                                                ",
"                                                ",
"                                                "};
