/* XPM */
static char * gpe_what_xpm[] = {
"32 32 386 2",
"  	c None",
". 	c #B3AEA4",
"+ 	c #B2ADA3",
"@ 	c #B5B0A6",
"# 	c #7C786E",
"$ 	c #5A564C",
"% 	c #646057",
"& 	c #8C877D",
"* 	c #9E998F",
"= 	c #524E44",
"- 	c #6C6960",
"; 	c #6F6B61",
"> 	c #3E3B34",
", 	c #898989",
"' 	c #A6A6A6",
") 	c #C0C0C0",
"! 	c #C9C9C9",
"~ 	c #B6B6B6",
"{ 	c #A2A2A1",
"] 	c #696969",
"^ 	c #BAB5AB",
"/ 	c #A9A49A",
"( 	c #7E7A70",
"_ 	c #6F6A60",
": 	c #777369",
"< 	c #969187",
"[ 	c #918C82",
"} 	c #534F46",
"| 	c #301914",
"1 	c #A0756D",
"2 	c #E7E6E5",
"3 	c #FEFEFE",
"4 	c #FFFFFF",
"5 	c #FFFEFD",
"6 	c #F1F0EC",
"7 	c #D0CFCD",
"8 	c #8E8D8A",
"9 	c #807D75",
"0 	c #746F65",
"a 	c #565248",
"b 	c #8E8A80",
"c 	c #99958B",
"d 	c #77483E",
"e 	c #B64D38",
"f 	c #CE654F",
"g 	c #EDD8D4",
"h 	c #FEFDFB",
"i 	c #FDFBFA",
"j 	c #FDFCFA",
"k 	c #F7F6F3",
"l 	c #EBEAE7",
"m 	c #CCC2BD",
"n 	c #995D50",
"o 	c #413631",
"p 	c #88847A",
"q 	c #8C877E",
"r 	c #935548",
"s 	c #DC573C",
"t 	c #DD5337",
"u 	c #DF806D",
"v 	c #F8F6F4",
"w 	c #F4F3F1",
"x 	c #EFEEEC",
"y 	c #ECEBE9",
"z 	c #EDEBE9",
"A 	c #EEEDEA",
"B 	c #E9E1DD",
"C 	c #D3715D",
"D 	c #BB371D",
"E 	c #87301E",
"F 	c #3A221D",
"G 	c #B4AFA5",
"H 	c #5D594F",
"I 	c #9C978D",
"J 	c #78736A",
"K 	c #623930",
"L 	c #D45940",
"M 	c #DE5438",
"N 	c #DE5236",
"O 	c #DC492C",
"P 	c #DBA89C",
"Q 	c #D7D6D4",
"R 	c #CECDCB",
"S 	c #CDCCCA",
"T 	c #D6D4D2",
"U 	c #DFDEDB",
"V 	c #E3DBD6",
"W 	c #DB8876",
"X 	c #D84022",
"Y 	c #CB3D20",
"Z 	c #A4311A",
"` 	c #772E1F",
" .	c #B8B3A9",
"..	c #807C72",
"+.	c #4E4B41",
"@.	c #7D7970",
"#.	c #32302C",
"$.	c #CB6650",
"%.	c #DE5034",
"&.	c #D44225",
"*.	c #BC381E",
"=.	c #963824",
"-.	c #7F665F",
";.	c #6E6D6C",
">.	c #747372",
",.	c #8E8C8B",
"'.	c #AEA09C",
").	c #C46855",
"!.	c #D13E20",
"~.	c #D53F21",
"{.	c #D23F21",
"].	c #942C17",
"^.	c #59271C",
"/.	c #726E68",
"(.	c #8B877D",
"_.	c #6D6B6A",
":.	c #E8C3BB",
"<.	c #E06F57",
"[.	c #DE5235",
"}.	c #D94628",
"|.	c #B5361C",
"1.	c #7E2513",
"2.	c #45150B",
"3.	c #2E1B17",
"4.	c #212121",
"5.	c #242424",
"6.	c #3E3B3A",
"7.	c #724036",
"8.	c #A3301A",
"9.	c #C43A1E",
"0.	c #D43F21",
"a.	c #D33F21",
"b.	c #C63B1F",
"c.	c #672214",
"d.	c #41342F",
"e.	c #5E5A50",
"f.	c #B8B8B8",
"g.	c #F9F9F9",
"h.	c #FAF8F7",
"i.	c #DF8A79",
"j.	c #C44329",
"k.	c #762312",
"l.	c #351009",
"m.	c #0C0604",
"n.	c #68291C",
"o.	c #B0361E",
"p.	c #D13E21",
"q.	c #CC3D20",
"r.	c #B74129",
"s.	c #804A3E",
"t.	c #362925",
"u.	c #414141",
"v.	c #E1E1E1",
"w.	c #FDFDFD",
"x.	c #FDFDFC",
"y.	c #E4DCD8",
"z.	c #B68478",
"A.	c #4F190E",
"B.	c #170805",
"C.	c #94321E",
"D.	c #D74021",
"E.	c #D07E6C",
"F.	c #C7A197",
"G.	c #888380",
"H.	c #484745",
"I.	c #5D5D5D",
"J.	c #F6F6F6",
"K.	c #F8F7F6",
"L.	c #DBDAD9",
"M.	c #9D9D9C",
"N.	c #3A3231",
"O.	c #0A0707",
"P.	c #563229",
"Q.	c #DD836F",
"R.	c #E7CFC6",
"S.	c #E0DED9",
"T.	c #D0CEC9",
"U.	c #91908C",
"V.	c #535250",
"W.	c #000000",
"X.	c #686868",
"Y.	c #FCFCFC",
"Z.	c #FFFFFE",
"`.	c #F6F5F2",
" +	c #949493",
".+	c #373636",
"++	c #F5EFEA",
"@+	c #F7F4F0",
"#+	c #D0CECA",
"$+	c #92908D",
"%+	c #514F4D",
"&+	c #FEFDFC",
"*+	c #F3F2EF",
"=+	c #D8D7D4",
"-+	c #A09F9D",
";+	c #474645",
">+	c #FFFFFD",
",+	c #FAF7F4",
"'+	c #DFDDD8",
")+	c #CCCAC5",
"!+	c #888683",
"~+	c #464544",
"{+	c #5C5C5B",
"]+	c #F6F6F5",
"^+	c #F2F1ED",
"/+	c #DDDCDA",
"(+	c #B3B2B0",
"_+	c #625451",
":+	c #1A110F",
"<+	c #626262",
"[+	c #F8F6F2",
"}+	c #DCDAD4",
"|+	c #C5C3BD",
"1+	c #7A7975",
"2+	c #3A3A38",
"3+	c #3C3B3A",
"4+	c #DBD9D7",
"5+	c #FCFBF8",
"6+	c #F2F1EE",
"7+	c #DEC1B9",
"8+	c #C87361",
"9+	c #8F2C18",
"0+	c #4F1D13",
"a+	c #B66452",
"b+	c #F6E5E1",
"c+	c #F1EDE9",
"d+	c #D5D3CD",
"e+	c #B5B3AE",
"f+	c #61605D",
"g+	c #292827",
"h+	c #676560",
"i+	c #ADACAA",
"j+	c #EFEAE6",
"k+	c #E3A89A",
"l+	c #D8593F",
"m+	c #CF4022",
"n+	c #B2351C",
"o+	c #95301B",
"p+	c #4D241B",
"q+	c #A14733",
"r+	c #D85338",
"s+	c #DF755E",
"t+	c #DEBAB0",
"u+	c #CBC9C3",
"v+	c #9E9C97",
"w+	c #454542",
"x+	c #171716",
"y+	c #B7B2A9",
"z+	c #6D695F",
"A+	c #726761",
"B+	c #CE4D33",
"C+	c #D74023",
"D+	c #D84123",
"E+	c #BE4027",
"F+	c #A77063",
"G+	c #7F7E7C",
"H+	c #7D7C7A",
"I+	c #926860",
"J+	c #C95138",
"K+	c #DE5135",
"L+	c #D74426",
"M+	c #CA4023",
"N+	c #A97669",
"O+	c #6F6864",
"P+	c #54524E",
"Q+	c #53514B",
"R+	c #A8A49A",
"S+	c #524E45",
"T+	c #211B18",
"U+	c #A93E29",
"V+	c #C73B1F",
"W+	c #D33E21",
"X+	c #D68572",
"Y+	c #E7DBD5",
"Z+	c #F7F4EF",
"`+	c #FEFDF8",
" @	c #F0CDC6",
".@	c #DE6249",
"+@	c #DD4E32",
"@@	c #C93C1F",
"#@	c #7C2A19",
"$@	c #43261F",
"%@	c #4E4C49",
"&@	c #46261F",
"*@	c #A03721",
"=@	c #B9371D",
"-@	c #CE4327",
";@	c #D4816E",
">@	c #E1DFDA",
",@	c #E5E3DD",
"'@	c #ECE9E4",
")@	c #EFECE6",
"!@	c #ECE8E2",
"~@	c #DC8672",
"{@	c #CD3D20",
"]@	c #C23A1F",
"^@	c #A9321B",
"/@	c #802614",
"(@	c #3E1209",
"_@	c #2B1510",
":@	c #302F2D",
"<@	c #9B968D",
"[@	c #68645B",
"}@	c #9F9A90",
"|@	c #60342B",
"1@	c #9B301A",
"2@	c #A8321A",
"3@	c #C76F5C",
"4@	c #D3C7C1",
"5@	c #D9D7D3",
"6@	c #DAD8D3",
"7@	c #DCD9D4",
"8@	c #DBD8D3",
"9@	c #D9D6D1",
"0@	c #CFB8AF",
"a@	c #A3311A",
"b@	c #752312",
"c@	c #47150B",
"d@	c #2A130E",
"e@	c #2C1E1B",
"f@	c #8F8A81",
"g@	c #7B776D",
"h@	c #6D4F47",
"i@	c #8A5042",
"j@	c #959390",
"k@	c #A1A09C",
"l@	c #B0AFAA",
"m@	c #B8B6B2",
"n@	c #BCBAB6",
"o@	c #BCB9B5",
"p@	c #B1AFAA",
"q@	c #A1A09B",
"r@	c #844537",
"s@	c #571A0E",
"t@	c #300F08",
"u@	c #1D0A07",
"v@	c #291F1D",
"w@	c #736E65",
"x@	c #79756C",
"y@	c #97938A",
"z@	c #68645D",
"A@	c #4E4D4B",
"B@	c #6D6B69",
"C@	c #767572",
"D@	c #7C7A78",
"E@	c #7F7D7A",
"F@	c #7B7976",
"G@	c #6A6966",
"H@	c #585755",
"I@	c #554C48",
"J@	c #5D473F",
"K@	c #130806",
"L@	c #090504",
"M@	c #7E7970",
"N@	c #9B978D",
"O@	c #918C83",
"P@	c #A8A399",
"Q@	c #625E54",
"R@	c #45423A",
"S@	c #030303",
"T@	c #242423",
"U@	c #353433",
"V@	c #323130",
"W@	c #2F2E2D",
"X@	c #252424",
"Y@	c #222121",
"Z@	c #222220",
"`@	c #807C74",
" #	c #918D84",
".#	c #79756B",
"+#	c #767268",
"@#	c #827D73",
"##	c #868177",
"$#	c #837E74",
"%#	c #656157",
"&#	c #767169",
"*#	c #948F86",
"=#	c #A39E95",
"-#	c #A9A59B",
";#	c #79766C",
">#	c #938F85",
",#	c #9A968C",
"'#	c #A09C92",
")#	c #4B473F",
"!#	c #625E55",
"~#	c #5E5A51",
"                                                                ",
"                                                                ",
"                                                                ",
"          . +                                                   ",
"      @ # $ % & *                                               ",
"    @ # =       - ; >   , ' ) ! ~ { ]       ^ / ( _ : <         ",
"    [ }           | 1 2 3 4 4 4 4 5 6 7 8 9 0 a         b       ",
"    c           d e f g 3 4 4 h i j k l m n o           p       ",
"      q       r s t t u v w x y z A A B C D E F       G H       ",
"      I J   K L M M N O P Q R S T U V W X Y Z `      ...+.      ",
"        @.#.$.M M %.&.*.=.-.;.>.,.'.).!.~.{.D ].^./.(.a         ",
"          _.:.<.[.}.|.1.2.3.4.5.6.7.8.9.0.a.b.Z c.d.e.          ",
"          f.g.h.i.j.k.l.m.          n.o.p.a.q.r.s.t.            ",
"        u.v.w.x.y.z.A.B.              C.{.D.E.F.G.H.            ",
"        I.J.4 K.L.M.N.O.              P.Q.R.S.T.U.V.W.          ",
"        X.Y.Z.`.Q  +.+                  ++@+S.#+$+%+W.          ",
"        X.Y.&+*+=+-+;+                  >+,+'+)+!+~+W.          ",
"        {+]+x.^+/+(+_+:+              <+4 [+}+|+1+2+            ",
"        3+4+5+6+7+8+9+0+              a+b+c+d+e+f+g+            ",
"        h+i+j+k+l+m+n+o+p+          q+r+s+t+u+v+w+x+            ",
"      y+z+A+B+C+D+0.q.b.E+F+G+H+I+J+M K+L+M+N+O+P+Q+            ",
"      R+S+T+U+V+{.a.p.W+X+Y+Z+`+ @.@+@L+@@n+#@$@%@#             ",
"    @ 0     &@*@=@b.-@;@>@,@'@)@!@~@{@]@^@/@(@_@:@<@[@          ",
"    }@H       |@1@2@3@4@5@6@7@8@9@0@=@a@b@c@d@e@    f@          ",
"    g@          h@i@j@k@l@m@n@o@p@q@r@s@t@u@v@      <@w@        ",
"    x@          y@z@A@B@C@D@E@F@G@H@I@J@K@L@          M@        ",
"    N@O@      P@Q@R@  S@T@U@V@W@X@Y@Z@`@ #            .#        ",
"      +#@###$#%#                        &#*#=#      -#%         ",
"                                            ;#>#,#'#z+)#        ",
"                                                !#~#            ",
"                                                                ",
"                                                                "};
