/* XPM */
static char * gpe_mininet_xpm[] = {
"32 32 389 2",
"  	c None",
". 	c #050505",
"+ 	c #030303",
"@ 	c #040404",
"# 	c #535352",
"$ 	c #7A7C7A",
"% 	c #727370",
"& 	c #6A6B66",
"* 	c #686A64",
"= 	c #666862",
"- 	c #64665F",
"; 	c #62645C",
"> 	c #61645B",
", 	c #60625A",
"' 	c #32332E",
") 	c #F2F4F1",
"! 	c #E1E4DC",
"~ 	c #D0D3C8",
"{ 	c #CCD0C4",
"] 	c #C9CDC0",
"^ 	c #C5CABB",
"/ 	c #C1C6B6",
"( 	c #C0C4B4",
"_ 	c #BEC2B1",
": 	c #737471",
"< 	c #E3E6DF",
"[ 	c #BCC4B7",
"} 	c #96A28E",
"| 	c #BDC4B7",
"1 	c #E4E6E0",
"2 	c #BCBFB6",
"3 	c #93988E",
"4 	c #B9BCB3",
"5 	c #8E9387",
"6 	c #848C7D",
"7 	c #7B8472",
"8 	c #8A927C",
"9 	c #98A086",
"0 	c #BCC2B0",
"a 	c #E0E2DA",
"b 	c #A7AC9B",
"c 	c #B6B8B0",
"d 	c #B0B4A4",
"e 	c #A9AF98",
"f 	c #56594E",
"g 	c #6C6E68",
"h 	c #D4D8CD",
"i 	c #98A591",
"j 	c #5C7255",
"k 	c #AEB8AA",
"l 	c #FFFFFF",
"m 	c #AEB1AD",
"n 	c #5D635B",
"o 	c #ADB0AC",
"p 	c #5B6058",
"q 	c #485244",
"r 	c #35432F",
"s 	c #525F42",
"t 	c #707B55",
"u 	c #B8BDAA",
"v 	c #8E9380",
"w 	c #ABABAB",
"x 	c #A0A496",
"y 	c #949C80",
"z 	c #4C5042",
"A 	c #6B6D68",
"B 	c #D4D8CC",
"C 	c #C0C8BB",
"D 	c #C2C7C0",
"E 	c #D6D6D6",
"F 	c #ABACAA",
"G 	c #808480",
"H 	c #A7A9A7",
"I 	c #CECECE",
"J 	c #A3A4A2",
"K 	c #787A76",
"L 	c #7B7C69",
"M 	c #7E7E5B",
"N 	c #727654",
"O 	c #66704D",
"P 	c #9EA198",
"Q 	c #D6D3E4",
"R 	c #8E8E6B",
"S 	c #B7AD8A",
"T 	c #979676",
"U 	c #788062",
"V 	c #3D4233",
"W 	c #D3D7CC",
"X 	c #E9EBE6",
"Y 	c #ACACAC",
"Z 	c #A8A8A8",
"` 	c #A4A4A4",
" .	c #A0A0A0",
"..	c #9D9D9D",
"+.	c #999999",
"@.	c #959595",
"#.	c #AEA68E",
"$.	c #C6B887",
"%.	c #908E66",
"&.	c #5B6445",
"*.	c #848686",
"=.	c #ADA7C8",
"-.	c #8F8A56",
";.	c #C3AF68",
">.	c #2F3424",
",.	c #C2C6BE",
"'.	c #B2B4B0",
").	c #AFB0AE",
"!.	c #AAAAAA",
"~.	c #969696",
"{.	c #808080",
"].	c #7F7C6F",
"^.	c #7E785E",
"/.	c #6D6E52",
"(.	c #8A8D86",
"_.	c #BAB6C7",
":.	c #878665",
"<.	c #B2A885",
"[.	c #9CA097",
"}.	c #646A62",
"|.	c #888B87",
"1.	c #B3B3B3",
"2.	c #BBBBBB",
"3.	c #929292",
"4.	c #6A6A6A",
"5.	c #505250",
"6.	c #373936",
"7.	c #494E3E",
"8.	c #909586",
"9.	c #C6C6C6",
"0.	c #7E8374",
"a.	c #A2A2A2",
"b.	c #ACAEAC",
"c.	c #A7A7A7",
"d.	c #9A9A9A",
"e.	c #9C9C9C",
"f.	c #9E9E9E",
"g.	c #818181",
"h.	c #646464",
"i.	c #726E62",
"j.	c #767C65",
"k.	c #6D745C",
"l.	c #3E3E3E",
"m.	c #7B7B7B",
"n.	c #6E6E6E",
"o.	c #606060",
"p.	c #D0D0D0",
"q.	c #888888",
"r.	c #848484",
"s.	c #707070",
"t.	c #5F5F5F",
"u.	c #928C73",
"v.	c #FAFAFA",
"w.	c #DBDBDB",
"x.	c #BEBEBE",
"y.	c #B8BEB4",
"z.	c #9EA59B",
"A.	c #B0B2A7",
"B.	c #C2BEB3",
"C.	c #92908A",
"D.	c #626261",
"E.	c #88877F",
"F.	c #AFAB9E",
"G.	c #7D7B74",
"H.	c #4B4C4B",
"I.	c #605E50",
"J.	c #757254",
"K.	c #686B4C",
"L.	c #606A49",
"M.	c #343928",
"N.	c #7A7A7A",
"O.	c #6D6D6D",
"P.	c #889182",
"Q.	c #3D4B37",
"R.	c #90937E",
"S.	c #E2DBC4",
"T.	c #8E8C7F",
"U.	c #3B3D3A",
"V.	c #8C8A7A",
"W.	c #DED6BB",
"X.	c #8A8779",
"Y.	c #373837",
"Z.	c #2E322C",
"`.	c #242B21",
" +	c #404833",
".+	c #3A3F2C",
"++	c #020202",
"@+	c #000000",
"#+	c #959D89",
"$+	c #566346",
"%+	c #808769",
"&+	c #A9AB8C",
"*+	c #7F846A",
"=+	c #565C48",
"-+	c #7E8268",
";+	c #A7A888",
">+	c #7D8167",
",+	c #545A46",
"'+	c #4F5640",
")+	c #4A533B",
"!+	c #525C3F",
"~+	c #5A6443",
"{+	c #7B8466",
"]+	c #9CA48A",
"^+	c #808A6B",
"/+	c #6B7551",
"(+	c #A2A990",
"_+	c #64704B",
":+	c #596541",
"<+	c #909980",
"[+	c #C7CDBE",
"}+	c #919882",
"|+	c #A6AB91",
"1+	c #7A7E56",
"2+	c #7E825A",
"3+	c #82865D",
"4+	c #898E68",
"5+	c #909673",
"6+	c #8C916C",
"7+	c #878C66",
"8+	c #7A7F59",
"9+	c #6E724C",
"0+	c #6A714C",
"a+	c #5C6545",
"b+	c #525B3C",
"c+	c #768063",
"d+	c #747C61",
"e+	c #4C5339",
"f+	c #5D6647",
"g+	c #6F7A54",
"h+	c #6A7551",
"i+	c #ACAC92",
"j+	c #848257",
"k+	c #8C8A5E",
"l+	c #939165",
"m+	c #A2A07B",
"n+	c #B1B091",
"o+	c #A8A784",
"p+	c #9E9E77",
"q+	c #84845C",
"r+	c #6B6942",
"s+	c #636644",
"t+	c #525A3E",
"u+	c #4A5138",
"v+	c #5D6646",
"w+	c #565E41",
"x+	c #3C422D",
"y+	c #555E40",
"z+	c #6E7954",
"A+	c #646E4C",
"B+	c #989A84",
"C+	c #5C5E3C",
"D+	c #5E603E",
"E+	c #5F6140",
"F+	c #6E704F",
"G+	c #7C7E5E",
"H+	c #707354",
"I+	c #65684A",
"J+	c #585A3C",
"K+	c #4C4D2F",
"L+	c #54583A",
"M+	c #5C6546",
"N+	c #66704E",
"O+	c #687153",
"P+	c #606650",
"Q+	c #747B63",
"R+	c #889075",
"S+	c #838A71",
"T+	c #7E846D",
"U+	c #404438",
"V+	c #848876",
"W+	c #343A21",
"X+	c #30361E",
"Y+	c #2B311C",
"Z+	c #393F24",
"`+	c #474D2B",
" @	c #3A4024",
".@	c #2C321D",
"+@	c #2C321C",
"@@	c #2D311C",
"#@	c #444A30",
"$@	c #7A8364",
"%@	c #848B74",
"&@	c #939985",
"*@	c #A2A796",
"=@	c #A1A696",
"-@	c #A0A595",
";@	c #52544C",
">@	c #565752",
",@	c #A8ACA0",
"'@	c #898E70",
")@	c #6A7240",
"!@	c #747848",
"~@	c #7E7E50",
"{@	c #747847",
"]@	c #69723E",
"^@	c #6E7444",
"/@	c #747649",
"(@	c #6B6F41",
"_@	c #626838",
":@	c #7A7E4D",
"<@	c #929662",
"[@	c #8A925B",
"}@	c #808E54",
"|@	c #909860",
"1@	c #A0A36C",
"2@	c #7B825A",
"3@	c #566148",
"4@	c #59614E",
"5@	c #5C6155",
"6@	c #5B5F53",
"7@	c #595C52",
"8@	c #2D2F2A",
"9@	c #40423C",
"0@	c #7D8074",
"a@	c #8E9469",
"b@	c #A0A95E",
"c@	c #B8BA71",
"d@	c #D1CC84",
"e@	c #AEB26B",
"f@	c #8B9752",
"g@	c #A3A964",
"h@	c #BBBB75",
"i@	c #AAAC65",
"j@	c #989E55",
"k@	c #B1B26A",
"l@	c #CAC77F",
"m@	c #AEB46A",
"n@	c #91A054",
"o@	c #B0B66C",
"p@	c #CFCB83",
"q@	c #7B8150",
"r@	c #27361C",
"s@	c #1C2615",
"t@	c #10140D",
"u@	c #0E100B",
"v@	c #0B0D09",
"w@	c #070806",
"x@	c #2B2C28",
"y@	c #767753",
"z@	c #ACAC6B",
"A@	c #C2BE7A",
"B@	c #D7D08A",
"C@	c #B8B672",
"D@	c #989C5A",
"E@	c #B0B06B",
"F@	c #C8C47C",
"G@	c #B5B370",
"H@	c #A2A264",
"I@	c #BAB774",
"J@	c #D0CC84",
"K@	c #B6B66F",
"L@	c #9BA05A",
"M@	c #B8B871",
"N@	c #D4CF87",
"O@	c #75764B",
"P@	c #151C0F",
"Q@	c #131A0F",
"R@	c #060605",
"S@	c #5E5A3E",
"T@	c #B8B078",
"U@	c #CAC284",
"V@	c #DDD58F",
"W@	c #C1BB78",
"X@	c #A5A161",
"Y@	c #BCB772",
"Z@	c #D4CD84",
"`@	c #C0BA7B",
" #	c #ADA772",
".#	c #C2BC7D",
"+#	c #D7D088",
"@#	c #BEB874",
"##	c #C0BA76",
"$#	c #DAD38B",
"%#	c #6E6B47",
"&#	c #302E20",
"*#	c #676343",
"=#	c #706C49",
"-#	c #625F3E",
";#	c #545232",
">#	c #605D3B",
",#	c #6C6844",
"'#	c #625E3F",
")#	c #58553A",
"!#	c #625F40",
"~#	c #6D6A46",
"{#	c #605E3C",
"]#	c #615E3C",
"^#	c #393725",
"                                                        . + +   ",
"                                                        . + +   ",
"                                                      . @ +     ",
"                                                    + + +       ",
"                                                    + + +       ",
"                                                    + + +       ",
"      + + + + + + + + + + + + + + + + + + + + + + + + + +       ",
"    + + + + + + + + + + + + + + + + + + + + + + + + + + +       ",
"+ + # $ % & * = = = = = - ; ; ; ; ; ; ; ; ; ; ; > , ' + +       ",
"+ + $ ) ! ~ { ] ] ] ] ] ^ / / / / / / / / / / / ( _ , + +       ",
"+ + : < [ } | 1 2 3 2 1 4 5 6 7 8 9 0 a 0 9 b c d e f + +       ",
"+ + g h i j k l m n m l o p q r s t u l u t v w x y z + +       ",
"+ + A B C k D E F G H I J K L M N O P Q P O R S T U V + +       ",
"+ + A W X l E Y Z `  ...+.@.#.$.%.&.*.=.*.&.-.;.-.&.>.+ +       ",
"+ + A W ,.'.).Y !.Z !.Y ~.{.].^./.&.(._.(.&.:.<.:.&.>.+ + + + + ",
"+ + A W [.}.|.Y Y w 1.2.3.4.5.6.7.&.8.9.8.&.0.a.0.&.>.+ + + + + ",
"+ + A W ,.'.b.c. .d.e.f.g.h.i.^./.&.j.8.j.&.k.0.k.&.>.+ l.m.n.o.",
"+ + A W X l p.a.@.q.r.{.s.t.u.$.%.&.&.&.&.&.&.&.&.&.>.+ m.v.w.x.",
"+ + A W y.z.A.B.C.D.E.F.G.H.I.J.K.&.L.O O O O O O O M.+ l.N.O.o.",
"+ + A W P.Q.R.S.T.U.V.W.X.Y.Z.`. +&.O t t t t t t t .++ ++@++++ ",
"+ + A W #+$+%+&+*+=+-+;+>+,+'+)+!+~+{+]+^+O /+t t t .++ ++@++++ ",
"+ + A W (+t t t t t t t t t t t _+:+<+[+}+&.O t t t .++ +       ",
"+ + A W |+1+2+3+4+5+6+7+8+9+0+O a+b+c+]+d+e+f+g+h+O M.+ +       ",
"+ + A W i+j+k+l+m+n+o+p+q+r+s+&.t+u+v+t w+x+y+z+A+&.>.+ +       ",
"+ + A W B+C+D+E+F+G+H+I+J+K+L+&.M+v+N+t O+P+Q+R+S+T+U++ +       ",
"+ + A W V+W+X+Y+Z+`+ @.@+@@@#@&.O t t t $@%@&@*@=@-@;@+ +       ",
"+ + >@,@'@)@!@~@{@]@^@/@(@_@:@<@[@}@|@1@2@3@4@5@6@7@8@+ +       ",
"+ + 9@0@a@b@c@d@e@f@g@h@i@j@k@l@m@n@o@p@q@r@s@t@u@v@w@+ +       ",
"+ + x@9@y@z@A@B@C@D@E@F@G@H@I@J@K@L@M@N@O@P@Q@      R@+ +       ",
"    + + S@T@U@V@W@X@Y@Z@`@ #.#+#@#X@##$#%#+ +       + + +       ",
"    + + &#S@*#=#-#;#>#,#'#)#!#~#{#;#]#%#^#+ +       + + +       ",
"    + + + + + + + + + + + + + + + + + + + + +       + + +       "};
