/* XPM */
static char * gpe_screenshot_xpm[] = {
"32 32 381 2",
"  	c None",
". 	c #ACACAC",
"+ 	c #C0C0C0",
"@ 	c #D1D1D1",
"# 	c #C5C5C5",
"$ 	c #9E9E9E",
"% 	c #C6C6C6",
"& 	c #F4F4F4",
"* 	c #FAFAFA",
"= 	c #FDFDFD",
"- 	c #EFEFEF",
"; 	c #AFAFAF",
"> 	c #909090",
", 	c #C4C4C4",
"' 	c #ECECEC",
") 	c #F7F7F7",
"! 	c #F6F6F6",
"~ 	c #EAEAEA",
"{ 	c #5E5E5E",
"] 	c #7D7D7D",
"^ 	c #7F7F7F",
"/ 	c #808080",
"( 	c #787878",
"_ 	c #6A6A6A",
": 	c #2F2F2F",
"< 	c #333333",
"[ 	c #414141",
"} 	c #424242",
"| 	c #353535",
"1 	c #313131",
"2 	c #060606",
"3 	c #282828",
"4 	c #1D1D1D",
"5 	c #161616",
"6 	c #070707",
"7 	c #2B2B2B",
"8 	c #5A5A5A",
"9 	c #656565",
"0 	c #666666",
"a 	c #646464",
"b 	c #454545",
"c 	c #1F1F1F",
"d 	c #000000",
"e 	c #1A1A19",
"f 	c #272726",
"g 	c #5A5959",
"h 	c #757575",
"i 	c #8F8F8F",
"j 	c #737373",
"k 	c #484848",
"l 	c #0F0F0F",
"m 	c #101010",
"n 	c #020202",
"o 	c #010100",
"p 	c #1E1E1E",
"q 	c #40403F",
"r 	c #585858",
"s 	c #4C4C4C",
"t 	c #4F4F4F",
"u 	c #707070",
"v 	c #9B9B9B",
"w 	c #AAAAAA",
"x 	c #B5B5B5",
"y 	c #B2B2B2",
"z 	c #919191",
"A 	c #505050",
"B 	c #3D3D3D",
"C 	c #111110",
"D 	c #333332",
"E 	c #545454",
"F 	c #6B6A68",
"G 	c #646361",
"H 	c #676563",
"I 	c #6A6967",
"J 	c #737270",
"K 	c #E0E0E0",
"L 	c #DADADA",
"M 	c #7C7C7C",
"N 	c #ADADAD",
"O 	c #8B8B8B",
"P 	c #8A8A8A",
"Q 	c #848484",
"R 	c #868686",
"S 	c #9A9A9A",
"T 	c #6F6F6F",
"U 	c #171717",
"V 	c #63625E",
"W 	c #6F6F6D",
"X 	c #7C7B79",
"Y 	c #61605E",
"Z 	c #595959",
"` 	c #323232",
" .	c #555453",
"..	c #767572",
"+.	c #5F5F5F",
"@.	c #DFDFDF",
"#.	c #D4D4D4",
"$.	c #838383",
"%.	c #A2A2A2",
"&.	c #908F8F",
"*.	c #818080",
"=.	c #7A7A78",
"-.	c #6D6C6B",
";.	c #727170",
">.	c #767675",
",.	c #6C6C6C",
"'.	c #2C2C2C",
").	c #908E89",
"!.	c #868582",
"~.	c #81807C",
"{.	c #6F6E6B",
"].	c #6F6E6C",
"^.	c #4E4D4C",
"/.	c #686865",
"(.	c #494744",
"_.	c #404040",
":.	c #626262",
"<.	c #525252",
"[.	c #A4A4A4",
"}.	c #91908E",
"|.	c #727270",
"1.	c #767775",
"2.	c #696A69",
"3.	c #515352",
"4.	c #585958",
"5.	c #636562",
"6.	c #5F605D",
"7.	c #828281",
"8.	c #727272",
"9.	c #696969",
"0.	c #6E6E6E",
"a.	c #888781",
"b.	c #969591",
"c.	c #93928F",
"d.	c #979694",
"e.	c #A2A19F",
"f.	c #868583",
"g.	c #605F5D",
"h.	c #222220",
"i.	c #4A4A4A",
"j.	c #777777",
"k.	c #A6A5A5",
"l.	c #80807F",
"m.	c #686B68",
"n.	c #5B5F5D",
"o.	c #5F6262",
"p.	c #5D6161",
"q.	c #525656",
"r.	c #4A4E4B",
"s.	c #3E423D",
"t.	c #51534F",
"u.	c #686967",
"v.	c #828077",
"w.	c #7F7D74",
"x.	c #747168",
"y.	c #6C6A62",
"z.	c #615E57",
"A.	c #57554F",
"B.	c #3F3D39",
"C.	c #242320",
"D.	c #8C8C8C",
"E.	c #7D7E7D",
"F.	c #5C5F5F",
"G.	c #626665",
"H.	c #4A4E50",
"I.	c #424849",
"J.	c #43484A",
"K.	c #42474A",
"L.	c #3E4345",
"M.	c #363A3A",
"N.	c #2F332E",
"O.	c #2F322C",
"P.	c #3A3D38",
"Q.	c #6A6968",
"R.	c #292929",
"S.	c #827F77",
"T.	c #807D75",
"U.	c #6D6A63",
"V.	c #615F58",
"W.	c #403F3B",
"X.	c #2E2C2A",
"Y.	c #4B4B4B",
"Z.	c #6D6D6D",
"`.	c #797979",
" +	c #7F7E7D",
".+	c #616565",
"++	c #585D5D",
"@+	c #3F4444",
"#+	c #565957",
"$+	c #5C5F5E",
"%+	c #4D5153",
"&+	c #474C4D",
"*+	c #54585A",
"=+	c #515456",
"-+	c #3B4041",
";+	c #2C2F2A",
">+	c #2A2A23",
",+	c #53524F",
"'+	c #7A7A7A",
")+	c #817E75",
"!+	c #7F7C74",
"~+	c #737068",
"{+	c #6D6A62",
"]+	c #403E39",
"^+	c #2F2E2B",
"/+	c #747474",
"(+	c #616464",
"_+	c #515657",
":+	c #444847",
"<+	c #606262",
"[+	c #353939",
"}+	c #101111",
"|+	c #090909",
"1+	c #151717",
"2+	c #444647",
"3+	c #535657",
"4+	c #373C3E",
"5+	c #2B2C28",
"6+	c #383630",
"7+	c #706F6F",
"8+	c #737067",
"9+	c #57544E",
"0+	c #626464",
"a+	c #575B5D",
"b+	c #383B39",
"c+	c #343434",
"d+	c #464646",
"e+	c #1D1E1E",
"f+	c #383C3C",
"g+	c #44494C",
"h+	c #313534",
"i+	c #2A2922",
"j+	c #6E6D6B",
"k+	c #262626",
"l+	c #7F7D75",
"m+	c #7E7B73",
"n+	c #605E57",
"o+	c #55544D",
"p+	c #403D39",
"q+	c #2E2E2A",
"r+	c #494949",
"s+	c #5F6061",
"t+	c #404647",
"u+	c #484C4C",
"v+	c #4C5051",
"w+	c #2C2D2B",
"x+	c #A9A9A9",
"y+	c #3F3F3F",
"z+	c #292B2B",
"A+	c #484D50",
"B+	c #42494B",
"C+	c #1C1C17",
"D+	c #4E4D4B",
"E+	c #717171",
"F+	c #726F67",
"G+	c #6C6961",
"H+	c #55534D",
"I+	c #3F3D38",
"J+	c #676868",
"K+	c #393E3F",
"L+	c #535756",
"M+	c #464A47",
"N+	c #242423",
"O+	c #F3F3F3",
"P+	c #444444",
"Q+	c #474C4F",
"R+	c #484E51",
"S+	c #1D1D1A",
"T+	c #51504E",
"U+	c #7D7A73",
"V+	c #6B6861",
"W+	c #605D57",
"X+	c #3E3D38",
"Y+	c #2E2D2A",
"Z+	c #646565",
"`+	c #373B3C",
" @	c #4C5253",
".@	c #3A3E3A",
"+@	c #080807",
"@@	c #434343",
"#@	c #7B7B7B",
"$@	c #3C3C3C",
"%@	c #494E51",
"&@	c #484D51",
"*@	c #242523",
"=@	c #6D6D6B",
"-@	c #7D7A72",
";@	c #716F67",
">@	c #5F5D56",
",@	c #54524C",
"'@	c #3E3C38",
")@	c #69696A",
"!@	c #394143",
"~@	c #333837",
"{@	c #111210",
"]@	c #939393",
"^@	c #404141",
"/@	c #434A4D",
"(@	c #3F4649",
"_@	c #2D2F2E",
":@	c #737372",
"<@	c #212121",
"[@	c #7E7B74",
"}@	c #716E66",
"|@	c #6A6860",
"1@	c #5E5C56",
"2@	c #53514C",
"3@	c #3E3C37",
"4@	c #6E6F6E",
"5@	c #2F3132",
"6@	c #363E3E",
"7@	c #3B4346",
"8@	c #252926",
"9@	c #1B1C1B",
"0@	c #464647",
"a@	c #4D4F52",
"b@	c #3B4247",
"c@	c #303538",
"d@	c #444545",
"e@	c #4E4E4E",
"f@	c #181818",
"g@	c #716F6B",
"h@	c #7B7871",
"i@	c #6F6D65",
"j@	c #6A6760",
"k@	c #605D56",
"l@	c #54514C",
"m@	c #393733",
"n@	c #181716",
"o@	c #191919",
"p@	c #121313",
"q@	c #343A3B",
"r@	c #3B4347",
"s@	c #3E4443",
"t@	c #2A2E2D",
"u@	c #272828",
"v@	c #3B3B3B",
"w@	c #3C3E3E",
"x@	c #464A4D",
"y@	c #464C4F",
"z@	c #3D4247",
"A@	c #202324",
"B@	c #202121",
"C@	c #272727",
"D@	c #141414",
"E@	c #0C0B0A",
"F@	c #2B2A27",
"G@	c #3C3B37",
"H@	c #3B3935",
"I@	c #373532",
"J@	c #22211F",
"K@	c #010101",
"L@	c #0F1111",
"M@	c #32373A",
"N@	c #5A5D5E",
"O@	c #525657",
"P@	c #3C4143",
"Q@	c #393E42",
"R@	c #3F4548",
"S@	c #484C4F",
"T@	c #5B5D5F",
"U@	c #55595B",
"V@	c #25292A",
"W@	c #0C0D0E",
"X@	c #050505",
"Y@	c #111314",
"Z@	c #373C3F",
"`@	c #494E52",
" #	c #42494D",
".#	c #42484C",
"+#	c #5A5E60",
"@#	c #4B4F52",
"##	c #4E5255",
"$#	c #25282A",
"%#	c #090A0A",
"&#	c #1D2022",
"*#	c #2E3135",
"=#	c #2C3032",
"-#	c #2F3236",
";#	c #2D3032",
">#	c #0E0F10",
"                                                                ",
"                                                                ",
"                                                                ",
"                                . + @ @ @ # $                   ",
"                                % & * = * - ;                   ",
"                              > , ' ) * ! ~ ;                   ",
"                              { ] ^ / / / / ( _                 ",
"                              : < [       } | 1                 ",
"                            2 3 4           4 5                 ",
"                            6 7 8 9 0 0 0 a b c d               ",
"                          e f g h i i i i i j k l   m l c       ",
"            n o p q k r s t u v w x x x x x y z A s B p c       ",
"    C D E F G H I J ] 9 K L M N O P Q Q Q Q R S ( T M j k U     ",
"  d V W X Y Z `  ...+.8 @.#.$.%.O &.*.=.-.;.>.Q O ,.( ^ u '.    ",
"  d ).!.~.{.].^./.(._.:.<.0 [.z }.|.1.2.3.4.5.6.7.8.9.:.0.7     ",
"  d a.b.c.d.e.f.g.h.i.j 9.j.k.l.m.n.o.p.q.q.r.s.t.u._ ^ ^ 3     ",
"  d v.w.x.y.z.A.B.C.s h u D.E.F.G.H.I.J.K.L.M.N.O.P.Q.] / R.    ",
"  d S.T.x.U.V.A.W.X.Y.Z.`. +.+++@+#+$+%+&+*+=+-+;+>+,+'+^ R.    ",
"  d )+!+~+{+V.A.]+^+Y./+/+(+_+:+<+[+}+2 |+1+2+3+4+5+6+7+'+3     ",
"  d T.!+8+y.V.9+]+^+Y./+0+a+@+$+b+c+d+1 c c e+f+g+h+i+j+/ k+    ",
"  d l+m+~+y.n+o+p+q+r+0.s+t+u+v+w+x+/ %.t y+1 z+A+B+C+D+E+1     ",
"  d w.m+F+G+n+H+I+q+r+,.J+K+L+M+N+,.%.O+z a P+1 Q+R+S+T+,.1     ",
"  d !+U+F+V+W+H+X+Y+k 8.Z+`+ @.@+@@@`.v %.#@E $@%@&@*@=@/+c     ",
"  d m+-@;@V+>@,@'@Y+i.h )@`+!@~@{@c y+a #@u ]@^@/@(@_@:@u <@    ",
"  d [@-@}@|@1@2@3@Y+k j.4@5@6@7@8@9@1 P+E E 0@a@b@c@d@h e@f@    ",
"  d g@h@i@j@k@l@m@n@o@'.'.p@q@r@s@t@u@1 v@w@x@y@z@A@B@C@D@      ",
"    E@F@G@B.H@I@J@+@      K@L@M@N@O@P@Q@R@S@T@U@V@W@            ",
"                            X@Y@Z@`@ #.#+#@###$#L@              ",
"                                %#&#*#=#-#;#>#                  ",
"                                                                ",
"                                                                ",
"                                                                "};
