/* XPM */
static char * gpe_expenses_xpm[] = {
"32 32 66 1",
" 	c None",
".	c #35AB01",
"+	c #265925",
"@	c #2D7915",
"#	c #2E624F",
"$	c #88BA00",
"%	c #A9C200",
"&	c #25389B",
"*	c #1F27BB",
"=	c #ACC84A",
"-	c #BCBF83",
";	c #4A1700",
">	c #481900",
",	c #6148CC",
"'	c #DAC8D4",
")	c #4E8400",
"!	c #7C2C00",
"~	c #E46100",
"{	c #7DCC16",
"]	c #9CD129",
"^	c #869A00",
"/	c #D4A972",
"(	c #622500",
"_	c #883600",
":	c #D85600",
"<	c #B85B00",
"[	c #9E8D00",
"}	c #9C9600",
"|	c #963C00",
"1	c #B04600",
"2	c #C24E00",
"3	c #D45A00",
"4	c #A24100",
"5	c #D25900",
"6	c #CA5600",
"7	c #D19D62",
"8	c #A64B02",
"9	c #D17411",
"0	c #CE7210",
"a	c #9B4201",
"b	c #AE5404",
"c	c #E7B669",
"d	c #FFFFFF",
"e	c #974101",
"f	c #DF8B27",
"g	c #E6B466",
"h	c #B85A06",
"i	c #DA8118",
"j	c #AC4F04",
"k	c #954001",
"l	c #A44A02",
"m	c #9E4802",
"n	c #903D00",
"o	c #E08A24",
"p	c #BF6309",
"q	c #160A00",
"r	c #8C3800",
"s	c #8A3700",
"t	c #3C1500",
"u	c #C44A00",
"v	c #6E2900",
"w	c #FF7301",
"x	c #BA8800",
"y	c #501C00",
"z	c #7C2F00",
"A	c #361300",
"                                ",
"                                ",
"            ... .......         ",
"           ..............       ",
"           ..+@...#..$%..       ",
"          .&*+@=--.......       ",
"       ;>>@,''''''''-...)>>>    ",
"       !~~.{]]]]]]]]{...^///>   ",
"       (__::<[}^^^^^^^^^^///>   ",
"       (____|12~3///////////>   ",
"       (________4:566///////>   ",
"       (__________|115~7////>   ",
"       (_____890a______/~///>   ",
"       (____bcddde______~///>   ",
"       (____fd__gh______~///>   ",
"       (____id__jk______~///>   ",
"       (____fddd________~///>   ",
"       (____kdjk________~///>   ",
"       (____ldjmen______~///>   ",
"       (____oddddp______~///>   ",
"       q((__rrrbbs______~///>   ",
"          tt____________~///>   ",
"            qq((________uqqq>   ",
"   ddd          tv______w       ",
"  xxxxd           qy(z__w       ",
"  xxxxx dddd         Atvw       ",
"  >xxxxdd//dd                   ",
"   >>> /////d                   ",
"        >////                   ",
"        >>>/                    ",
"                                ",
"                                "};
