/* XPM */
static char * gpe_mixer_xpm[] = {
"32 32 349 2",
"  	c None",
". 	c #AFAFAE",
"+ 	c #919190",
"@ 	c #BDBDBC",
"# 	c #CBCBC9",
"$ 	c #C2C2C1",
"% 	c #C6C6C5",
"& 	c #C1C1C1",
"* 	c #B2B2B2",
"= 	c #9D9D9D",
"- 	c #757575",
"; 	c #858585",
"> 	c #D4D4D3",
", 	c #C1C0BE",
"' 	c #BDBDBB",
") 	c #BBBAB9",
"! 	c #B9B9B8",
"~ 	c #BCBBBB",
"{ 	c #BCBCBC",
"] 	c #BDBDBD",
"^ 	c #B8B7B7",
"/ 	c #B1B1B0",
"( 	c #919191",
"_ 	c #CBCBCA",
": 	c #C7C7C5",
"< 	c #BFBEBC",
"[ 	c #BABAB8",
"} 	c #BEBCBC",
"| 	c #B8B8B7",
"1 	c #6E6E6E",
"2 	c #595959",
"3 	c #AFAFAF",
"4 	c #BFBFBE",
"5 	c #C7C6C6",
"6 	c #CFCFCE",
"7 	c #BCBCBB",
"8 	c #999999",
"9 	c #D2D2D0",
"0 	c #C2C1BF",
"a 	c #B6B4B4",
"b 	c #A2A2A2",
"c 	c #424242",
"d 	c #272727",
"e 	c #666665",
"f 	c #B8B8B8",
"g 	c #C0BEBE",
"h 	c #D2D2D1",
"i 	c #C0C0C0",
"j 	c #484848",
"k 	c #D0D0CF",
"l 	c #C4C3C1",
"m 	c #C1C0BF",
"n 	c #C4C3C3",
"o 	c #AEAEAD",
"p 	c #656565",
"q 	c #2C2C2C",
"r 	c #373737",
"s 	c #AFADAE",
"t 	c #B3B3B2",
"u 	c #BBBBBA",
"v 	c #BABAB9",
"w 	c #CECECD",
"x 	c #DEDEDE",
"y 	c #606060",
"z 	c #B4B4B3",
"A 	c #CDCCCA",
"B 	c #BFBFBD",
"C 	c #BEBDBB",
"D 	c #B5B4B3",
"E 	c #BDBCBB",
"F 	c #3F3F3F",
"G 	c #323232",
"H 	c #8F8F8D",
"I 	c #B7B7B5",
"J 	c #DCDCDC",
"K 	c #CCCCCC",
"L 	c #7F7F7F",
"M 	c #6C6C6C",
"N 	c #C5C8C9",
"O 	c #8699A1",
"P 	c #8B9BA2",
"Q 	c #98A3A8",
"R 	c #A8AFB1",
"S 	c #9EA2A4",
"T 	c #525455",
"U 	c #2D2D2D",
"V 	c #656564",
"W 	c #B9B7B6",
"X 	c #BDBBBB",
"Y 	c #BEBDBC",
"Z 	c #D7D7D7",
"` 	c #9E9E9E",
" .	c #787878",
"..	c #C1C1C0",
"+.	c #93A2A6",
"@.	c #698691",
"#.	c #708C97",
"$.	c #78909B",
"%.	c #8298A1",
"&.	c #8599A1",
"*.	c #76878E",
"=.	c #657278",
"-.	c #9BA2A4",
";.	c #AAAEAC",
">.	c #B6B6B4",
",.	c #BCBCBA",
"'.	c #C6C6C4",
").	c #DCDCDB",
"!.	c #BFBFBF",
"~.	c #878787",
"{.	c #6A6A6A",
"].	c #121212",
"^.	c #9A9999",
"/.	c #B8BDBE",
"(.	c #597481",
"_.	c #5A7885",
":.	c #63818D",
"<.	c #698792",
"[.	c #738D98",
"}.	c #7A939E",
"|.	c #839AA4",
"1.	c #89A0A9",
"2.	c #9CB1BA",
"3.	c #90A5AE",
"4.	c #A9A7A6",
"5.	c #BAB8B6",
"6.	c #D8D6D6",
"7.	c #DCDBDB",
"8.	c #939393",
"9.	c #838383",
"0.	c #252525",
"a.	c #CBCBCB",
"b.	c #798B92",
"c.	c #4A6876",
"d.	c #506E7C",
"e.	c #587684",
"f.	c #5F7D89",
"g.	c #678591",
"h.	c #6E8A96",
"i.	c #7F98A2",
"j.	c #90A7B1",
"k.	c #526E79",
"l.	c #9B9A99",
"m.	c #DFDEDE",
"n.	c #898989",
"o.	c #686868",
"p.	c #000000",
"q.	c #B4B3B2",
"r.	c #BDC2C4",
"s.	c #8BA1A9",
"t.	c #738D97",
"u.	c #5B7784",
"v.	c #5A7683",
"w.	c #587583",
"x.	c #5A7886",
"y.	c #617E8B",
"z.	c #6B8893",
"A.	c #839BA5",
"B.	c #66808A",
"C.	c #566A72",
"D.	c #A09F9D",
"E.	c #CECDCD",
"F.	c #CFCFCF",
"G.	c #9B9B9B",
"H.	c #808080",
"I.	c #282828",
"J.	c #D3D2D0",
"K.	c #C9C9C7",
"L.	c #D8DFE1",
"M.	c #C7D3D9",
"N.	c #B3C3CB",
"O.	c #96A7B0",
"P.	c #748992",
"Q.	c #6C8692",
"R.	c #6C8693",
"S.	c #6B8792",
"T.	c #7D969F",
"U.	c #566F7A",
"V.	c #7C8283",
"W.	c #DADADA",
"X.	c #B3B3B3",
"Y.	c #575757",
"Z.	c #060606",
"`.	c #D4D2CF",
" +	c #C9C8C5",
".+	c #B9B8B5",
"++	c #B4B5B5",
"@+	c #B6BBBD",
"#+	c #B0B9BE",
"$+	c #B7C3C8",
"%+	c #BAC8CD",
"&+	c #ACBCC1",
"*+	c #9CACB3",
"=+	c #6C848E",
"-+	c #798285",
";+	c #9F9F9C",
">+	c #D1D1CF",
",+	c #D2D2D2",
"'+	c #888888",
")+	c #0C0C0C",
"!+	c #D8D7D4",
"~+	c #D1D0CC",
"{+	c #CFCECA",
"]+	c #CAC9C5",
"^+	c #BBBAB8",
"/+	c #878786",
"(+	c #525353",
"_+	c #545657",
":+	c #969A9B",
"<+	c #AAB1B4",
"[+	c #AFBBC0",
"}+	c #889499",
"|+	c #999998",
"1+	c #D9D9D9",
"2+	c #B5B5B5",
"3+	c #959595",
"4+	c #4F4F4F",
"5+	c #D2D1CD",
"6+	c #CBC8C4",
"7+	c #D2D0CD",
"8+	c #ADADAC",
"9+	c #7A7A79",
"0+	c #575756",
"a+	c #777775",
"b+	c #B8B6B3",
"c+	c #B0B0AC",
"d+	c #ACAAA8",
"e+	c #ACABA8",
"f+	c #BDBCBA",
"g+	c #DADAD9",
"h+	c #797979",
"i+	c #131313",
"j+	c #A7A7A6",
"k+	c #D7D6D3",
"l+	c #D3D1CD",
"m+	c #D0CFCB",
"n+	c #C9C9C6",
"o+	c #908F8E",
"p+	c #6B6B6A",
"q+	c #696868",
"r+	c #B3B2AE",
"s+	c #CECCCA",
"t+	c #C7C6C3",
"u+	c #C3C2BE",
"v+	c #D6D5D4",
"w+	c #E0E0E0",
"x+	c #B1B1B1",
"y+	c #9F9F9F",
"z+	c #3E3E3E",
"A+	c #DADAD6",
"B+	c #D6D4D0",
"C+	c #D4D2CE",
"D+	c #CFCECB",
"E+	c #ADACAA",
"F+	c #838281",
"G+	c #727170",
"H+	c #9C9A99",
"I+	c #CDCCC8",
"J+	c #CECCC9",
"K+	c #E2E2E1",
"L+	c #C9C9C9",
"M+	c #A3A3A3",
"N+	c #040404",
"O+	c #D8D7D3",
"P+	c #D5D4D0",
"Q+	c #C0BFBD",
"R+	c #9C9B99",
"S+	c #7E7D7C",
"T+	c #848381",
"U+	c #C9C8C3",
"V+	c #D0CECB",
"W+	c #D0CFCC",
"X+	c #DCDCDA",
"Y+	c #DBDBDA",
"Z+	c #B4B4B4",
"`+	c #9C9C9C",
" @	c #464646",
".@	c #A7A7A7",
"+@	c #DFDEDD",
"@@	c #DBDAD7",
"#@	c #D8D6D3",
"$@	c #D6D6D1",
"%@	c #CDCBC8",
"&@	c #BEBCB9",
"*@	c #AAA9A6",
"=@	c #CCCBC8",
"-@	c #C6C5C1",
";@	c #BDBBB7",
">@	c #BAB8B5",
",@	c #D9D8D6",
"'@	c #E3E3E3",
")@	c #C4C4C4",
"!@	c #ABABAB",
"~@	c #6D6D6D",
"{@	c #050505",
"]@	c #E9E9E8",
"^@	c #E6E5E4",
"/@	c #DDDCDB",
"(@	c #D9D8D4",
"_@	c #D7D5D2",
":@	c #CBC8C5",
"<@	c #959491",
"[@	c #4C4B4A",
"}@	c #3B3A3A",
"|@	c #3C3B3A",
"1@	c #979694",
"2@	c #E1E0DF",
"3@	c #DDDDDD",
"4@	c #A6A6A6",
"5@	c #1E1E1E",
"6@	c #B0B0B0",
"7@	c #EAEAEA",
"8@	c #E9E9E9",
"9@	c #EBEBEB",
"0@	c #E5E5E5",
"a@	c #DEDEDD",
"b@	c #DAD9D6",
"c@	c #8C8B89",
"d@	c #767673",
"e@	c #D1D0CE",
"f@	c #C5C5C5",
"g@	c #ACACAC",
"h@	c #5C5C5C",
"i@	c #AEAEAE",
"j@	c #D1D1D1",
"k@	c #E6E6E6",
"l@	c #E7E7E7",
"m@	c #E8E8E7",
"n@	c #E4E3E3",
"o@	c #DEDDDD",
"p@	c #D9D9D7",
"q@	c #E4E4E3",
"r@	c #979797",
"s@	c #1F1F1F",
"t@	c #A4A4A4",
"u@	c #BBBBBB",
"v@	c #D5D5D5",
"w@	c #E1E1E1",
"x@	c #E8E8E8",
"y@	c #BABABA",
"z@	c #444444",
"A@	c #222222",
"B@	c #666666",
"C@	c #CACACA",
"D@	c #DBDBDB",
"E@	c #C7C7C7",
"F@	c #070707",
"G@	c #8C8C8C",
"H@	c #4C4C4C",
"                                                                ",
"                            . +                                 ",
"                          @ # $ % & * = -                       ",
"                        ; > , ' ) ! ~ { ] & ^ / (               ",
"                        _ : < [ } | 1 2 - 3 ^ 4 5 6 7           ",
"                      8 9 0 < [ a b c d e f ! ! g h i j         ",
"                      k l m < n o p q r s t u v w x = y         ",
"                    z A B C D E ; F G H ! I v B J K L M         ",
"                    N O P Q R S T U V W g X Y 6 Z `  .r         ",
"                  ..+.@.#.$.%.&.*.=.-.;.>.,.'.).!.~.{.].        ",
"                ^./.(._.:.<.[.}.|.1.2.3.4.5.6.7.8.9.0.          ",
"                a.b.c.d.e.f.g.h.$.i.j.k.l.,.m.!.n.o.p.          ",
"              q.r.s.t.u.v.w.x.y.z.A.B.C.D.E.F.G.H.I.            ",
"              J.K.L.M.N.O.P.Q.R.S.T.U.V.q.W.X.8.Y.Z.            ",
"            K.`. +.+++@+#+$+%+&+*+=+-+;+>+,+G.'+)+              ",
"            !+~+{+]+^+/+(+_+:+<+[+}+|+7 1+2+3+4+p.              ",
"          6 5+~+6+7+8+9+0+a+b+c+d+e+f+g+a.b h+i+                ",
"        j+k+l+5+m+n+o+p+q+r+s+t+u+u+v+w+x+y+z+                  ",
"        A+B+C+l+D+E+F+G+H+u+I+J+I+J.K+L+M+H.N+                  ",
"      f+O+B+P+C+Q+R+S+T+U+V+{+{+W+X+Y+Z+`+ @                    ",
"    .@+@@@#@$@P+%@&@*@.+=@-@;@>@,@'@)@!@~@{@                    ",
"      w+]@^@/@(@_@B+:@<@[@}@|@1@2@3@x+4@5@                      ",
"      6@7@8@9@9@0@a@/@b@.+c@d@e@K+f@g@h@p.                      ",
"        i@j@k@0@0@l@m@k@n@o@p@q@Z f r@s@                        ",
"              h+t@u@v@x w@0@x@7@y@3 z@                          ",
"                  A@2 B@6@C@D@0@E@( F@                          ",
"                            c G@] H@                            ",
"                                                                ",
"                                                                ",
"                                                                ",
"                                                                ",
"                                                                "};
