/* XPM */
static char * gpe_shield_xpm[] = {
"32 32 587 2",
"  	c None",
". 	c #3F3D49",
"+ 	c #373F51",
"@ 	c #363E4A",
"# 	c #2C333E",
"$ 	c #293039",
"% 	c #212932",
"& 	c #1B232C",
"* 	c #171D25",
"= 	c #826D1F",
"- 	c #706342",
"; 	c #857C72",
"> 	c #80858E",
", 	c #8796AB",
"' 	c #97AABF",
") 	c #A2B4C8",
"! 	c #8EA2B7",
"~ 	c #4C5F70",
"{ 	c #2E3E4A",
"] 	c #31404D",
"^ 	c #182025",
"/ 	c #0E1215",
"( 	c #040606",
"_ 	c #C6AF1A",
": 	c #B7B03B",
"< 	c #BEBC54",
"[ 	c #B9BC7B",
"} 	c #B5B697",
"| 	c #A4A6A2",
"1 	c #96A3AC",
"2 	c #7D93A2",
"3 	c #829AA9",
"4 	c #99ADBD",
"5 	c #5D7484",
"6 	c #65798A",
"7 	c #5D7181",
"8 	c #27353C",
"9 	c #243038",
"0 	c #12181B",
"a 	c #050707",
"b 	c #917F1B",
"c 	c #C5BE47",
"d 	c #F2EC80",
"e 	c #F1EB85",
"f 	c #D2D373",
"g 	c #B2B680",
"h 	c #939587",
"i 	c #80878B",
"j 	c #607179",
"k 	c #5F7076",
"l 	c #667379",
"m 	c #69777E",
"n 	c #88949F",
"o 	c #6A7682",
"p 	c #38454D",
"q 	c #2B3840",
"r 	c #28323B",
"s 	c #192025",
"t 	c #070909",
"u 	c #020202",
"v 	c #563A13",
"w 	c #8F8F4D",
"x 	c #DAD86A",
"y 	c #F6EF94",
"z 	c #F4EE96",
"A 	c #CDD276",
"B 	c #AEB67D",
"C 	c #ABA58E",
"D 	c #9E9E98",
"E 	c #8C9395",
"F 	c #7C8384",
"G 	c #84857B",
"H 	c #969886",
"I 	c #A6A391",
"J 	c #79756A",
"K 	c #585B5E",
"L 	c #3F474E",
"M 	c #323940",
"N 	c #242B30",
"O 	c #0E1212",
"P 	c #050606",
"Q 	c #000101",
"R 	c #080A07",
"S 	c #040503",
"T 	c #4D393B",
"U 	c #5B5768",
"V 	c #93987D",
"W 	c #C1C46F",
"X 	c #DDDD79",
"Y 	c #C5C362",
"Z 	c #888940",
"` 	c #8D8658",
" .	c #8E816C",
"..	c #7F7870",
"+.	c #636260",
"@.	c #736C5F",
"#.	c #9A9664",
"$.	c #C4C173",
"%.	c #B6B45F",
"&.	c #7B7338",
"*.	c #524335",
"=.	c #363132",
"-.	c #232629",
";.	c #181B1D",
">.	c #292D2B",
",.	c #383B37",
"'.	c #535851",
").	c #7C8779",
"!.	c #748070",
"~.	c #171A16",
"{.	c #4D4B5F",
"].	c #626795",
"^.	c #747483",
"/.	c #B2AF89",
"(.	c #DAD28A",
"_.	c #827933",
":.	c #9A9557",
"<.	c #787045",
"[.	c #6A644D",
"}.	c #5F6252",
"|.	c #606150",
"1.	c #716A47",
"2.	c #9B9944",
"3.	c #D9D376",
"4.	c #E5DE76",
"5.	c #ACA63C",
"6.	c #796B43",
"7.	c #65614E",
"8.	c #475042",
"9.	c #565C53",
"0.	c #758171",
"a.	c #63735D",
"b.	c #5F7159",
"c.	c #51644B",
"d.	c #556450",
"e.	c #0F130E",
"f.	c #3C3A3D",
"g.	c #D1D0D8",
"h.	c #BBBBCB",
"i.	c #9492A3",
"j.	c #D6C3B1",
"k.	c #EFDBB6",
"l.	c #6C5B3A",
"m.	c #5B582F",
"n.	c #675749",
"o.	c #79726C",
"p.	c #696865",
"q.	c #67655F",
"r.	c #776D57",
"s.	c #AEA75E",
"t.	c #DCD56A",
"u.	c #E2DB62",
"v.	c #A19839",
"w.	c #63543E",
"x.	c #221914",
"y.	c #667560",
"z.	c #5E6B5A",
"A.	c #4D6146",
"B.	c #4C6045",
"C.	c #4B5F45",
"D.	c #4B5E44",
"E.	c #53624F",
"F.	c #959496",
"G.	c #F6F7F2",
"H.	c #F7F6ED",
"I.	c #C1BDC6",
"J.	c #EBDACE",
"K.	c #F5E5D4",
"L.	c #5F5247",
"M.	c #494E35",
"N.	c #948F8C",
"O.	c #DCDCDA",
"P.	c #DBDCD4",
"Q.	c #BEC3BA",
"R.	c #B6B5A5",
"S.	c #C1BC98",
"T.	c #C1BC7F",
"U.	c #B8B16E",
"V.	c #A19772",
"W.	c #908D89",
"X.	c #3A393A",
"Y.	c #A8ACA6",
"Z.	c #53604F",
"`.	c #4A5E44",
" +	c #495C43",
".+	c #52614E",
"++	c #0F120D",
"@+	c #565659",
"#+	c #B6B4B8",
"$+	c #F8F5ED",
"%+	c #F3F3EA",
"&+	c #97A1BF",
"*+	c #D7D3D6",
"=+	c #F6EDE3",
"-+	c #55514D",
";+	c #404D38",
">+	c #717981",
",+	c #BDC6CD",
"'+	c #C2CBCF",
")+	c #CBD2C9",
"!+	c #DCDDD8",
"~+	c #CBC7BC",
"{+	c #D1C9B8",
"]+	c #CAC1B2",
"^+	c #B0ADA5",
"/+	c #A9B1B5",
"(+	c #3C4043",
"_+	c #858B83",
":+	c #525F4D",
"<+	c #495B42",
"[+	c #485A41",
"}+	c #475941",
"|+	c #515F4C",
"1+	c #0E120D",
"2+	c #747478",
"3+	c #E8E4E3",
"4+	c #F8F7EC",
"5+	c #F5F0E9",
"6+	c #97A4BF",
"7+	c #CDCFD5",
"8+	c #F7F6EB",
"9+	c #535450",
"0+	c #3E4E39",
"a+	c #455063",
"b+	c #3A4876",
"c+	c #63759B",
"d+	c #B3C2CA",
"e+	c #D9E2E2",
"f+	c #C1CAC9",
"g+	c #A8B3B0",
"h+	c #A2ADAD",
"i+	c #9BA9AF",
"j+	c #697D85",
"k+	c #1D2527",
"l+	c #545D51",
"m+	c #515D4C",
"n+	c #475A41",
"o+	c #465840",
"p+	c #45573F",
"q+	c #4F5D4B",
"r+	c #0E110D",
"s+	c #5C6064",
"t+	c #E3E9EF",
"u+	c #F2EBE6",
"v+	c #E9E3DF",
"w+	c #B1BDD1",
"x+	c #C4CBD6",
"y+	c #F5F3E4",
"z+	c #52514D",
"A+	c #1A2742",
"B+	c #46557D",
"C+	c #788DAE",
"D+	c #92A5BC",
"E+	c #C6D4D9",
"F+	c #B6C2C2",
"G+	c #9AACAA",
"H+	c #6F8084",
"I+	c #2A323F",
"J+	c #171D2C",
"K+	c #0D0F14",
"L+	c #5F6E58",
"M+	c #505B4B",
"N+	c #46573F",
"O+	c #44553E",
"P+	c #43553D",
"Q+	c #4E5C49",
"R+	c #0D110C",
"S+	c #3E464D",
"T+	c #B4CADB",
"U+	c #D6DFE4",
"V+	c #EBEFF0",
"W+	c #DCE5ED",
"X+	c #CFD6DD",
"Y+	c #ABB0BC",
"Z+	c #2E3037",
"`+	c #111835",
" @	c #2F3A62",
".@	c #5D6E90",
"+@	c #B6C3D6",
"@@	c #CAD5DF",
"#@	c #C4CCCE",
"$@	c #81898A",
"%@	c #242837",
"&@	c #110F1E",
"*@	c #110D1A",
"=@	c #0D080B",
"-@	c #626D56",
";@	c #515948",
">@	c #45543D",
",@	c #889283",
"'@	c #9EA79B",
")@	c #6B7866",
"!@	c #4A5646",
"~@	c #0D100C",
"{@	c #414850",
"]@	c #B9CFE1",
"^@	c #A4BECA",
"/@	c #E0EBEF",
"(@	c #EBF2F5",
"_@	c #F0F3F7",
":@	c #A7AFC0",
"<@	c #272A33",
"[@	c #151B36",
"}@	c #2D375C",
"|@	c #3F4C6D",
"1@	c #9DAEC4",
"2@	c #7D90AA",
"3@	c #B9C1C2",
"4@	c #4F4F4C",
"5@	c #1D141F",
"6@	c #261B21",
"7@	c #281A1E",
"8@	c #23140F",
"9@	c #6D6C51",
"0@	c #595743",
"a@	c #48523A",
"b@	c #44513A",
"c@	c #3C4A36",
"d@	c #313E2D",
"e@	c #414B3E",
"f@	c #4E5561",
"g@	c #DBE7F3",
"h@	c #AEC5D2",
"i@	c #B5C5CE",
"j@	c #ECF2F5",
"k@	c #E6E4E6",
"l@	c #A3A1AC",
"m@	c #1A1E2B",
"n@	c #131933",
"o@	c #151D40",
"p@	c #3B4768",
"q@	c #9CABC1",
"r@	c #9EAABE",
"s@	c #747B85",
"t@	c #45423D",
"u@	c #413434",
"v@	c #534643",
"w@	c #564A43",
"x@	c #3B2918",
"y@	c #78704A",
"z@	c #645A3D",
"A@	c #515135",
"B@	c #454B33",
"C@	c #36402E",
"D@	c #394834",
"E@	c #475344",
"F@	c #0C0F0B",
"G@	c #33425C",
"H@	c #869FBE",
"I@	c #B3CBDB",
"J@	c #90A5B5",
"K@	c #D4D7DC",
"L@	c #BAC1C9",
"M@	c #3F4B75",
"N@	c #080C1C",
"O@	c #181F37",
"P@	c #3E4C6E",
"Q@	c #657898",
"R@	c #8796AF",
"S@	c #7E889F",
"T@	c #908E99",
"U@	c #8E8683",
"V@	c #615548",
"W@	c #69604A",
"X@	c #645E3B",
"Y@	c #4D4014",
"Z@	c #827C44",
"`@	c #6E6238",
" #	c #5B542F",
".#	c #504F32",
"+#	c #444C35",
"@#	c #3E4B36",
"##	c #495444",
"$#	c #202A45",
"%#	c #425A7F",
"&#	c #6483A4",
"*#	c #9BB0C2",
"=#	c #B3C0D2",
"-#	c #506490",
";#	c #202D5D",
">#	c #090D1D",
",#	c #2E3851",
"'#	c #3B496B",
")#	c #556787",
"!#	c #73809C",
"~#	c #7F8294",
"{#	c #B4AAA8",
"]#	c #BAAF9F",
"^#	c #9A9870",
"/#	c #A5A45E",
"(#	c #AAA747",
"_#	c #938B23",
":#	c #A9A547",
"<#	c #7A7532",
"[#	c #635B2B",
"}#	c #59512D",
"|#	c #484B31",
"1#	c #3F4833",
"2#	c #475243",
"3#	c #374768",
"4#	c #4E6994",
"5#	c #7287A2",
"6#	c #7287AD",
"7#	c #35487E",
"8#	c #263564",
"9#	c #111626",
"0#	c #3F4961",
"a#	c #6B7997",
"b#	c #3D4968",
"c#	c #424660",
"d#	c #4C4756",
"e#	c #635956",
"f#	c #777159",
"g#	c #A8A75B",
"h#	c #C9C551",
"i#	c #E3DF65",
"j#	c #DDD65B",
"k#	c #DCD45A",
"l#	c #928E2E",
"m#	c #676428",
"n#	c #5C542B",
"o#	c #4C4A2E",
"p#	c #404631",
"q#	c #465042",
"r#	c #0B0E0A",
"s#	c #1C2130",
"t#	c #4C6390",
"u#	c #60799D",
"v#	c #577194",
"w#	c #44588E",
"x#	c #253465",
"y#	c #0C1121",
"z#	c #252E48",
"A#	c #5E6B89",
"B#	c #636F8C",
"C#	c #40445D",
"D#	c #463F4B",
"E#	c #4F4138",
"F#	c #635D39",
"G#	c #A7A23B",
"H#	c #E3DC67",
"I#	c #F8EF93",
"J#	c #F7ED92",
"K#	c #E7E06D",
"L#	c #ABA735",
"M#	c #6B6A26",
"N#	c #5D5628",
"O#	c #4D492C",
"P#	c #40452F",
"Q#	c #454E40",
"R#	c #0B0D0A",
"S#	c #313B54",
"T#	c #6C80A6",
"U#	c #8297B4",
"V#	c #61719D",
"W#	c #44527C",
"X#	c #13192C",
"Y#	c #1B243E",
"Z#	c #333F5A",
"`#	c #2A293B",
" $	c #3F363E",
".$	c #483B2D",
"+$	c #564E26",
"@$	c #A09B36",
"#$	c #DED968",
"$$	c #F6ED93",
"%$	c #F5EC93",
"&$	c #E3DD6F",
"*$	c #A8A436",
"=$	c #6C6A27",
"-$	c #5D5528",
";$	c #4B472B",
">$	c #3D432D",
",$	c #444C3E",
"'$	c #0A0D09",
")$	c #282C3D",
"!$	c #515D7D",
"~$	c #707F9E",
"{$	c #606773",
"]$	c #7A7D6C",
"^$	c #3C352C",
"/$	c #526549",
"($	c #445140",
"_$	c #646C61",
":$	c #656D62",
"<$	c #6B6C5E",
"[$	c #756C58",
"}$	c #817351",
"|$	c #8A814C",
"1$	c #ABA746",
"2$	c #D3CF57",
"3$	c #ECE779",
"4$	c #E9E579",
"5$	c #BEBB47",
"6$	c #746E15",
"7$	c #534B17",
"8$	c #5A5029",
"9$	c #4C492F",
"0$	c #3B402C",
"a$	c #434B3D",
"b$	c #141519",
"c$	c #86847D",
"d$	c #A9AB79",
"e$	c #C6C36F",
"f$	c #63583F",
"g$	c #100F1D",
"h$	c #111727",
"i$	c #131828",
"j$	c #141520",
"k$	c #20191F",
"l$	c #32221C",
"m$	c #3F301C",
"n$	c #4D4417",
"o$	c #625C17",
"p$	c #7A731A",
"q$	c #797117",
"r$	c #5A5107",
"s$	c #443907",
"t$	c #311F00",
"u$	c #241200",
"v$	c #1E160C",
"w$	c #2A2D23",
"x$	c #373F34",
"y$	c #0A0C09",
"z$	c #3B2F21",
"A$	c #7B744D",
"B$	c #8E8862",
"C$	c #686679",
"D$	c #364475",
"E$	c #253462",
"F$	c #283763",
"G$	c #2F416B",
"H$	c #2C395F",
"I$	c #2F3656",
"J$	c #39374B",
"K$	c #453E46",
"L$	c #4A4137",
"M$	c #463E24",
"N$	c #463D15",
"O$	c #43390E",
"P$	c #3A2D06",
"Q$	c #322102",
"R$	c #261300",
"S$	c #200D01",
"T$	c #110500",
"U$	c #050301",
"V$	c #040504",
"W$	c #2E1B14",
"X$	c #373343",
"Y$	c #2C3463",
"Z$	c #33467D",
"`$	c #3C5186",
" %	c #3B4B75",
".%	c #1F2B53",
"+%	c #121A3A",
"@%	c #182140",
"#%	c #1C1D33",
"$%	c #211C29",
"%%	c #2B1E20",
"&%	c #2D1D16",
"*%	c #2F1E11",
"=%	c #2E1D0B",
"-%	c #281503",
";%	c #221000",
">%	c #210C00",
",%	c #101625",
"'%	c #0E1731",
")%	c #142046",
"!%	c #1F2E59",
"~%	c #273968",
"{%	c #2C3F69",
"]%	c #1F2F56",
"^%	c #141B33",
"/%	c #101124",
"(%	c #140F19",
"_%	c #160E10",
":%	c #160A06",
"<%	c #170A02",
"[%	c #190A00",
"}%	c #101729",
"|%	c #0C1327",
"1%	c #060B1A",
"2%	c #0D1322",
"3%	c #0E1421",
"4%	c #070B14",
"5%	c #060509",
"6%	c #090507",
"                                                                ",
"                                                                ",
"                                                                ",
"                        . + @ # $ % & *                         ",
"                  = - ; > , ' ) ! ~ { ] ^ / (                   ",
"              _ : < [ } | 1 2 3 4 5 6 7 8 9 0 a                 ",
"            b c d e f g h i j k l m n o p q r s t u             ",
"          v w x y z A B C D E F G H I J K L M N O P Q   R S     ",
"        T U V W X Y Z `  ...+.@.#.$.%.&.*.=.-.;.>.,.'.).!.~.    ",
"        {.].^./.(._.:.<.[.}.|.1.2.3.4.5.6.7.8.9.0.a.b.c.d.e.    ",
"      f.g.h.i.j.k.l.m.n.o.p.q.r.s.t.u.v.w.x.y.z.A.B.C.D.E.e.    ",
"      F.G.H.I.J.K.L.M.N.O.P.Q.R.S.T.U.V.W.X.Y.Z.D.`. + +.+++    ",
"    @+#+$+%+&+*+=+-+;+>+,+'+)+!+~+{+]+^+/+(+_+:+ +<+[+}+|+1+    ",
"    2+3+4+5+6+7+8+9+0+a+b+c+d+e+f+g+h+i+j+k+l+m+n+}+o+p+q+r+    ",
"    s+t+u+v+w+x+y+z+0+A+B+C+D+E+F+G+H+I+J+K+L+M+N+p+O+P+Q+R+    ",
"    S+T+U+V+W+X+Y+Z+0+`+ @.@+@@@#@$@%@&@*@=@-@;@>@,@'@)@!@~@    ",
"    {@]@^@/@(@_@:@<@0+[@}@|@1@2@3@4@5@6@7@8@9@0@a@b@c@d@e@~@    ",
"    f@g@h@i@j@k@l@m@0+n@o@p@q@r@s@t@u@v@w@x@y@z@A@B@C@D@E@F@    ",
"    G@H@I@J@K@L@M@N@0+O@P@Q@R@S@T@U@V@W@X@Y@Z@`@ #.#+#@###F@    ",
"    $#%#&#*#=#-#;#>#0+,#'#)#!#~#{#]#^#/#(#_#:#<#[#}#|#1#2#F@    ",
"      3#4#5#6#7#8#9#0+0#a#b#c#d#e#f#g#h#i#j#k#l#m#n#o#p#q#r#    ",
"      s#t#u#v#w#x#y#0+z#A#B#C#D#E#F#G#H#I#J#K#L#M#N#O#P#Q#R#    ",
"        S#T#U#V#W#m@0+X#Y#Z#`# $.$+$@$#$$$%$&$*$=$-$;$>$,$'$    ",
"        )$!$~${$]$^$/$($_$:$<$[$}$|$1$2$3$4$5$6$7$8$9$0$a$'$    ",
"          b$c$d$e$f$g$y#h$i$j$k$l$m$n$o$p$q$r$s$t$u$v$w$x$y$    ",
"            z$A$B$C$D$E$F$G$H$I$J$K$L$M$N$O$P$Q$R$S$T$U$y$V$    ",
"              W$X$Y$Z$`$ %.%+%@%#%$%%%&%*%=%-%;%>%              ",
"                  ,%'%)%!%~%{%]%^%/%(%_%:%<%[%                  ",
"                        }%|%1%2%3%4%5%6%                        ",
"                                                                ",
"                                                                ",
"                                                                "};
