/* XPM */
static char * gpe_soundbite_play_xpm[] = {
"32 32 387 2",
"  	c None",
". 	c #000000",
"+ 	c #191919",
"@ 	c #1F1F1E",
"# 	c #292929",
"$ 	c #7B7B79",
"% 	c #222221",
"& 	c #2B2B2A",
"* 	c #939290",
"= 	c #8A8987",
"- 	c #272726",
"; 	c #B4B8C1",
"> 	c #2D2D2C",
", 	c #999896",
"' 	c #B6B5B2",
") 	c #B0AFAC",
"! 	c #353434",
"~ 	c #97A0AC",
"{ 	c #778190",
"] 	c #77808F",
"^ 	c #8C94A2",
"/ 	c #A2AAB6",
"( 	c #A0A8B3",
"_ 	c #2E2E2D",
": 	c #9E9D9A",
"< 	c #BEBCB9",
"[ 	c #C7C5C2",
"} 	c #646463",
"| 	c #CCCCCC",
"1 	c #7F8998",
"2 	c #4F5969",
"3 	c #2B3443",
"4 	c #242E3E",
"5 	c #2A3548",
"6 	c #4A5364",
"7 	c #B2B9C3",
"8 	c #9CA4B1",
"9 	c #313130",
"0 	c #ABA9A7",
"a 	c #B7B6B4",
"b 	c #676766",
"c 	c #767E8B",
"d 	c #2F3744",
"e 	c #1D232D",
"f 	c #212733",
"g 	c #222B3C",
"h 	c #1F2B3F",
"i 	c #202B3E",
"j 	c #364050",
"k 	c #AEB4BE",
"l 	c #747C8C",
"m 	c #353534",
"n 	c #B7B5B3",
"o 	c #696868",
"p 	c #757D8A",
"q 	c #353C47",
"r 	c #1D222A",
"s 	c #1E2530",
"t 	c #202938",
"u 	c #232E43",
"v 	c #263248",
"w 	c #222C3F",
"x 	c #6B7482",
"y 	c #959DA9",
"z 	c #252524",
"A 	c #5E5E5D",
"B 	c #767C8A",
"C 	c #262C37",
"D 	c #1C2129",
"E 	c #1E242B",
"F 	c #1E242D",
"G 	c #1E2632",
"H 	c #232D41",
"I 	c #28354E",
"J 	c #263249",
"K 	c #273244",
"L 	c #A5ACB8",
"M 	c #596270",
"N 	c #393939",
"O 	c #7C818D",
"P 	c #454C59",
"Q 	c #1A2029",
"R 	c #1C212A",
"S 	c #1E242C",
"T 	c #28364F",
"U 	c #283651",
"V 	c #1E293C",
"W 	c #8793A4",
"X 	c #626C7B",
"Y 	c #4C584C",
"Z 	c #5D6758",
"` 	c #6E7B62",
" .	c #9498A1",
"..	c #48505D",
"+.	c #191F2A",
"@.	c #1B2029",
"#.	c #1E232C",
"$.	c #20252C",
"%.	c #20252B",
"&.	c #1F2733",
"*.	c #222C40",
"=.	c #26344E",
"-.	c #2B3B57",
";.	c #1F2C41",
">.	c #627087",
",.	c #667081",
"'.	c #546051",
").	c #3C4439",
"!.	c #40493C",
"~.	c #596551",
"{.	c #727985",
"].	c #1E2531",
"^.	c #191F28",
"/.	c #1C222B",
"(.	c #1F242C",
"_.	c #22262C",
":.	c #21252B",
"<.	c #202832",
"[.	c #273144",
"}.	c #27334A",
"|.	c #26344D",
"1.	c #2E3E5B",
"2.	c #212F47",
"3.	c #5A6A81",
"4.	c #647081",
"5.	c #616E57",
"6.	c #64735D",
"7.	c #40473A",
"8.	c #2E3329",
"9.	c #868B95",
"0.	c #39404D",
"a.	c #171E29",
"b.	c #1B212A",
"c.	c #1E232B",
"d.	c #20242B",
"e.	c #242C36",
"f.	c #3A4860",
"g.	c #51627E",
"h.	c #465772",
"i.	c #2A3952",
"j.	c #304160",
"k.	c #24324C",
"l.	c #606F89",
"m.	c #5F6B7C",
"n.	c #41493A",
"o.	c #505C49",
"p.	c #31372C",
"q.	c #7A7F89",
"r.	c #1F2531",
"s.	c #1B222C",
"t.	c #1D222B",
"u.	c #232931",
"v.	c #364358",
"w.	c #6A7C97",
"x.	c #7285A2",
"y.	c #607490",
"z.	c #35445E",
"A.	c #324361",
"B.	c #263550",
"C.	c #677893",
"D.	c #586475",
"E.	c #363E32",
"F.	c #1A1E18",
"G.	c #484E5C",
"H.	c #19202C",
"I.	c #20252D",
"J.	c #21252C",
"K.	c #384252",
"L.	c #7B8BA2",
"M.	c #7689A4",
"N.	c #657998",
"O.	c #566987",
"P.	c #37455D",
"Q.	c #374865",
"R.	c #6A7E9A",
"S.	c #626E80",
"T.	c #515F4F",
"U.	c #404C3E",
"V.	c #989CA4",
"W.	c #303744",
"X.	c #1F2735",
"Y.	c #202632",
"Z.	c #232934",
"`.	c #21262F",
" +	c #22262E",
".+	c #606E84",
"++	c #9DACC1",
"@+	c #7286A4",
"#+	c #5F7496",
"$+	c #475977",
"%+	c #364359",
"&+	c #425473",
"*+	c #445778",
"=+	c #637796",
"-+	c #525F76",
";+	c #D1D6D1",
">+	c #8F9A8D",
",+	c #343D33",
"'+	c #37362E",
")+	c #676E7C",
"!+	c #2A3345",
"~+	c #293447",
"{+	c #2C3749",
"]+	c #2D3748",
"^+	c #2B3444",
"/+	c #2D3648",
"(+	c #8494AA",
"_+	c #8EA0B9",
":+	c #62789A",
"<+	c #4F6387",
"[+	c #3B4B65",
"}+	c #4F5E76",
"|+	c #556889",
"1+	c #5C7395",
"2+	c #46566E",
"3+	c #3F4E67",
"4+	c #43536F",
"5+	c #737D75",
"6+	c #4E584E",
"7+	c #1C211C",
"8+	c #535D6E",
"9+	c #2E3A50",
"0+	c #313E54",
"a+	c #344056",
"b+	c #344054",
"c+	c #364256",
"d+	c #39465D",
"e+	c #7E8DA5",
"f+	c #6F83A2",
"g+	c #43577B",
"h+	c #394A68",
"i+	c #354155",
"j+	c #75849B",
"k+	c #637898",
"l+	c #5A6E8E",
"m+	c #303A48",
"n+	c #3D4D69",
"o+	c #3D4D68",
"p+	c #373731",
"q+	c #4D5A6F",
"r+	c #34425A",
"s+	c #35435B",
"t+	c #36435B",
"u+	c #37465D",
"v+	c #3F4D65",
"w+	c #4E5D76",
"x+	c #51607A",
"y+	c #3C4E6B",
"z+	c #26334A",
"A+	c #242D3E",
"B+	c #657182",
"C+	c #90A1B8",
"D+	c #667897",
"E+	c #3D485C",
"F+	c #28303F",
"G+	c #313F55",
"H+	c #474E42",
"I+	c #525042",
"J+	c #4F5D74",
"K+	c #37465E",
"L+	c #3A4962",
"M+	c #3D4B64",
"N+	c #42506A",
"O+	c #4C5A73",
"P+	c #63738C",
"Q+	c #525F75",
"R+	c #2F3A4C",
"S+	c #5A6373",
"T+	c #A6B2C5",
"U+	c #8495AF",
"V+	c #53627C",
"W+	c #222832",
"X+	c #202835",
"Y+	c #2C374A",
"Z+	c #2B374D",
"`+	c #4E5F47",
" @	c #40543E",
".@	c #3B4337",
"+@	c #56657D",
"@@	c #3A4861",
"#@	c #47556F",
"$@	c #53617A",
"%@	c #5C6A83",
"&@	c #707E95",
"*@	c #8896AA",
"=@	c #B6C1D0",
"-@	c #B4BECC",
";@	c #B7BECB",
">@	c #C1C9D6",
",@	c #91A0B6",
"'@	c #5B6B85",
")@	c #303B4D",
"!@	c #11161D",
"~@	c #171D26",
"{@	c #262F3E",
"]@	c #486042",
"^@	c #626F86",
"/@	c #3B4961",
"(@	c #55647C",
"_@	c #6D7A90",
":@	c #7C899D",
"<@	c #96A1B2",
"[@	c #ACB5C3",
"}@	c #C8CEDA",
"|@	c #CFD5DF",
"1@	c #C3CAD6",
"2@	c #A1ADBF",
"3@	c #5D6C83",
"4@	c #3A475D",
"5@	c #141B29",
"6@	c #0F131C",
"7@	c #1A1F28",
"8@	c #222937",
"9@	c #7A8078",
"0@	c #959E94",
"a@	c #455246",
"b@	c #50664C",
"c@	c #6F7B8E",
"d@	c #425069",
"e@	c #54627B",
"f@	c #929CAD",
"g@	c #ADB5C1",
"h@	c #BEC3CB",
"i@	c #C6CAD1",
"j@	c #C9CED6",
"k@	c #C2CAD6",
"l@	c #9FABBC",
"m@	c #606B7E",
"n@	c #2A313E",
"o@	c #1D232E",
"p@	c #151C27",
"q@	c #1B1F28",
"r@	c #4D574E",
"s@	c #4C554C",
"t@	c #3C473B",
"u@	c #3D4F3C",
"v@	c #7A8598",
"w@	c #55637C",
"x@	c #4F5D76",
"y@	c #A7B0BF",
"z@	c #BEC4CF",
"A@	c #C5C9D0",
"B@	c #BCC4D0",
"C@	c #A9B4C4",
"D@	c #5C677A",
"E@	c #2D333E",
"F@	c #1C1F25",
"G@	c #08090A",
"H@	c #020203",
"I@	c #050506",
"J@	c #45463B",
"K@	c #858E9D",
"L@	c #677489",
"M@	c #727E92",
"N@	c #8D98A8",
"O@	c #ACB4C1",
"P@	c #B6BEC8",
"Q@	c #B6BDC7",
"R@	c #9198A4",
"S@	c #485060",
"T@	c #212630",
"U@	c #16181C",
"V@	c #010101",
"W@	c #606A7C",
"X@	c #566073",
"Y@	c #717A89",
"Z@	c #7C838F",
"`@	c #696F78",
" #	c #575C66",
".#	c #2D343D",
"+#	c #1E222A",
"@#	c #0C0E10",
"##	c #030303",
"$#	c #020202",
"%#	c #1B1D21",
"&#	c #2E343D",
"*#	c #272D37",
"=#	c #1C1F24",
"-#	c #181A1E",
";#	c #141618",
">#	c #080808",
",#	c #040404",
"'#	c #090A0A",
")#	c #121315",
"!#	c #131416",
"~#	c #101112",
"{#	c #0A0A0A",
"                                                                ",
"                                                                ",
"                .                                               ",
"                + @                                             ",
"                # $ %                                           ",
"                & * = -                     ;                   ",
"                > , ' ) !             ~ { ] ^ / (               ",
"                _ : < [ } |         1 2 3 4 5 6 7 8             ",
"                9 0 a b           c d e f g h i j k l           ",
"                m n o |         p q r r s t u v w x y           ",
"                z A           B C D r E F G H I J K L M         ",
"                N |         O P Q R E E S F w T U V W X         ",
"    Y Z `                  ...+.@.#.$.%.E &.*.=.-.;.>.,.        ",
"    '.).!.~.              {.].^./.(._.:.<.[.}.|.1.2.3.4.        ",
"    5.6.7.8.            9.0.a.b.c.(.d.e.f.g.h.i.j.k.l.m.        ",
"      n.o.p.            q.r.s.t.(.(.u.v.w.x.y.z.A.B.C.D.        ",
"      E.  F.            G.H.e I.J.d.K.L.M.N.O.P.Q.1.R.S.        ",
"    T.U.              V.W.X.Y.Z.`. +.+++@+#+$+%+&+*+=+-+        ",
"  ;+>+,+'+            )+!+~+{+]+^+/+(+_+:+<+[+}+|+1+2+3+4+      ",
"  5+6+7+              8+9+0+a+b+c+d+e+f+g+h+i+j+k+l+m+n+o+      ",
"    p+                q+r+s+t+u+v+w+x+y+z+A+B+C+D+E+F+r+G+      ",
"              H+I+    J+K+L+M+N+O+P+Q+R+F+S+T+U+V+W+X+Y+Z+      ",
"            `+ @.@    +@@@#@$@%@&@*@=@-@;@>@,@'@)@!@~@{@        ",
"            ]@        ^@/@(@_@:@<@[@}@|@1@2@3@4@5@6@7@8@        ",
"    9@0@a@b@          c@d@e@f@g@h@i@j@k@l@m@n@o@p@e q@          ",
"    r@s@t@u@          v@w@x@y@z@A@i@B@C@D@E@F@G@H@I@            ",
"        J@            K@L@M@N@O@P@Q@R@S@T@U@V@. . . . .         ",
"                        W@X@Y@Z@`@ #.#+#@###$#$#$#$#$#$#V@      ",
"                        %#&#*#I.=#-#;#>#########,#,#,#,#        ",
"                          '#)#!#~#{#,#,#,#,#,#######$#          ",
"                                                                ",
"                                                                "};
