/* XPM */
static char * gpe_soundbite_record_xpm[] = {
"32 32 446 2",
"  	c None",
". 	c #000000",
"+ 	c #120502",
"@ 	c #512015",
"# 	c #9D4E3D",
"$ 	c #BA5D48",
"% 	c #AF5845",
"& 	c #662C20",
"* 	c #2D140F",
"= 	c #601A0B",
"- 	c #C77969",
"; 	c #DEA498",
"> 	c #E5B0A6",
", 	c #E2ABA0",
"' 	c #CD877A",
") 	c #8F3626",
"! 	c #382521",
"~ 	c #491309",
"{ 	c #B65745",
"] 	c #DC978A",
"^ 	c #E0978A",
"/ 	c #E2978A",
"( 	c #E1978A",
"_ 	c #DC958A",
": 	c #C8786C",
"< 	c #6E190C",
"[ 	c #655C5A",
"} 	c #842212",
"| 	c #BE5C4C",
"1 	c #D67E6F",
"2 	c #D97E6F",
"3 	c #DA7D6F",
"4 	c #D97C6F",
"5 	c #D57B6E",
"6 	c #CC766A",
"7 	c #8D1E10",
"8 	c #4F332F",
"9 	c #B4B8C1",
"0 	c #961E0D",
"a 	c #B43C2C",
"b 	c #C95748",
"c 	c #CB5748",
"d 	c #CB5648",
"e 	c #CA5447",
"f 	c #C75347",
"g 	c #BC493D",
"h 	c #94170A",
"i 	c #310B07",
"j 	c #FFFFFF",
"k 	c #97A0AC",
"l 	c #778190",
"m 	c #77808F",
"n 	c #8C94A2",
"o 	c #A2AAB6",
"p 	c #A0A8B3",
"q 	c #8A1B0E",
"r 	c #A31E10",
"s 	c #B72F22",
"t 	c #BB3224",
"u 	c #BC3024",
"v 	c #BA3023",
"w 	c #B52D21",
"x 	c #A71F14",
"y 	c #8B140B",
"z 	c #3C1A18",
"A 	c #7F8998",
"B 	c #4F5969",
"C 	c #2B3443",
"D 	c #242E3E",
"E 	c #2A3548",
"F 	c #4A5364",
"G 	c #B2B9C3",
"H 	c #9CA4B1",
"I 	c #510F08",
"J 	c #8F1107",
"K 	c #A11308",
"L 	c #A9160B",
"M 	c #AA160C",
"N 	c #A8150B",
"O 	c #9F0F07",
"P 	c #910C05",
"Q 	c #670C07",
"R 	c #6D5F5E",
"S 	c #767E8B",
"T 	c #2F3744",
"U 	c #1D232D",
"V 	c #212733",
"W 	c #222B3C",
"X 	c #1F2B3F",
"Y 	c #202B3E",
"Z 	c #364050",
"` 	c #AEB4BE",
" .	c #747C8C",
"..	c #260D0B",
"+.	c #6E0A04",
"@.	c #8D0B05",
"#.	c #960B05",
"$.	c #9B0A04",
"%.	c #970A04",
"&.	c #8C0703",
"*.	c #7F0603",
"=.	c #441B18",
"-.	c #B5B5B5",
";.	c #757D8A",
">.	c #353C47",
",.	c #1D222A",
"'.	c #1E2530",
").	c #202938",
"!.	c #232E43",
"~.	c #263248",
"{.	c #222C3F",
"].	c #6B7482",
"^.	c #959DA9",
"/.	c #34201E",
"(.	c #5A0603",
"_.	c #760805",
":.	c #7F0301",
"<.	c #7C0604",
"[.	c #600604",
"}.	c #421918",
"|.	c #ABABAB",
"1.	c #767C8A",
"2.	c #262C37",
"3.	c #1C2129",
"4.	c #1E242B",
"5.	c #1E242D",
"6.	c #1E2632",
"7.	c #232D41",
"8.	c #28354E",
"9.	c #263249",
"0.	c #273244",
"a.	c #A5ACB8",
"b.	c #596270",
"c.	c #3B2D2D",
"d.	c #492D2C",
"e.	c #2A0404",
"f.	c #381616",
"g.	c #6C5E5E",
"h.	c #7C818D",
"i.	c #454C59",
"j.	c #1A2029",
"k.	c #1C212A",
"l.	c #1E242C",
"m.	c #28364F",
"n.	c #283651",
"o.	c #1E293C",
"p.	c #8793A4",
"q.	c #626C7B",
"r.	c #4C584C",
"s.	c #5D6758",
"t.	c #798470",
"u.	c #9498A1",
"v.	c #48505D",
"w.	c #191F2A",
"x.	c #1B2029",
"y.	c #1E232C",
"z.	c #20252C",
"A.	c #20252B",
"B.	c #1F2733",
"C.	c #222C40",
"D.	c #26344E",
"E.	c #2B3B57",
"F.	c #1F2C41",
"G.	c #627087",
"H.	c #667081",
"I.	c #546051",
"J.	c #3C4439",
"K.	c #40493C",
"L.	c #5F6B57",
"M.	c #727985",
"N.	c #1E2531",
"O.	c #191F28",
"P.	c #1C222B",
"Q.	c #1F242C",
"R.	c #22262C",
"S.	c #21252B",
"T.	c #202832",
"U.	c #273144",
"V.	c #27334A",
"W.	c #26344D",
"X.	c #2E3E5B",
"Y.	c #212F47",
"Z.	c #5A6A81",
"`.	c #647081",
" +	c #616E57",
".+	c #64735D",
"++	c #40473A",
"@+	c #2E3329",
"#+	c #868B95",
"$+	c #39404D",
"%+	c #171E29",
"&+	c #1B212A",
"*+	c #1E232B",
"=+	c #20242B",
"-+	c #242C36",
";+	c #3A4860",
">+	c #51627E",
",+	c #465772",
"'+	c #2A3952",
")+	c #304160",
"!+	c #24324C",
"~+	c #606F89",
"{+	c #5F6B7C",
"]+	c #41493A",
"^+	c #505C49",
"/+	c #31372C",
"(+	c #7A7F89",
"_+	c #1F2531",
":+	c #1B222C",
"<+	c #1D222B",
"[+	c #232931",
"}+	c #364358",
"|+	c #6A7C97",
"1+	c #7285A2",
"2+	c #607490",
"3+	c #35445E",
"4+	c #324361",
"5+	c #263550",
"6+	c #677893",
"7+	c #586475",
"8+	c #363E32",
"9+	c #1A1E18",
"0+	c #484E5C",
"a+	c #19202C",
"b+	c #20252D",
"c+	c #21252C",
"d+	c #384252",
"e+	c #7B8BA2",
"f+	c #7689A4",
"g+	c #657998",
"h+	c #566987",
"i+	c #37455D",
"j+	c #374865",
"k+	c #6A7E9A",
"l+	c #626E80",
"m+	c #515F4F",
"n+	c #404C3E",
"o+	c #989CA4",
"p+	c #303744",
"q+	c #1F2735",
"r+	c #202632",
"s+	c #232934",
"t+	c #21262F",
"u+	c #22262E",
"v+	c #606E84",
"w+	c #9DACC1",
"x+	c #7286A4",
"y+	c #5F7496",
"z+	c #475977",
"A+	c #364359",
"B+	c #425473",
"C+	c #445778",
"D+	c #637796",
"E+	c #525F76",
"F+	c #D1D6D1",
"G+	c #8F9A8D",
"H+	c #343D33",
"I+	c #37362E",
"J+	c #676E7C",
"K+	c #2A3345",
"L+	c #293447",
"M+	c #2C3749",
"N+	c #2D3748",
"O+	c #2B3444",
"P+	c #2D3648",
"Q+	c #8494AA",
"R+	c #8EA0B9",
"S+	c #62789A",
"T+	c #4F6387",
"U+	c #3B4B65",
"V+	c #4F5E76",
"W+	c #556889",
"X+	c #5C7395",
"Y+	c #46566E",
"Z+	c #3F4E67",
"`+	c #43536F",
" @	c #737D75",
".@	c #4E584E",
"+@	c #1C211C",
"@@	c #535D6E",
"#@	c #2E3A50",
"$@	c #313E54",
"%@	c #344056",
"&@	c #344054",
"*@	c #364256",
"=@	c #39465D",
"-@	c #7E8DA5",
";@	c #6F83A2",
">@	c #43577B",
",@	c #394A68",
"'@	c #354155",
")@	c #75849B",
"!@	c #637898",
"~@	c #5A6E8E",
"{@	c #303A48",
"]@	c #3D4D69",
"^@	c #3D4D68",
"/@	c #373731",
"(@	c #4D5A6F",
"_@	c #34425A",
":@	c #35435B",
"<@	c #36435B",
"[@	c #37465D",
"}@	c #3F4D65",
"|@	c #4E5D76",
"1@	c #51607A",
"2@	c #3C4E6B",
"3@	c #26334A",
"4@	c #242D3E",
"5@	c #657182",
"6@	c #90A1B8",
"7@	c #667897",
"8@	c #3D485C",
"9@	c #28303F",
"0@	c #313F55",
"a@	c #474E42",
"b@	c #525042",
"c@	c #4F5D74",
"d@	c #37465E",
"e@	c #3A4962",
"f@	c #3D4B64",
"g@	c #42506A",
"h@	c #4C5A73",
"i@	c #63738C",
"j@	c #525F75",
"k@	c #2F3A4C",
"l@	c #5A6373",
"m@	c #A6B2C5",
"n@	c #8495AF",
"o@	c #53627C",
"p@	c #222832",
"q@	c #202835",
"r@	c #2C374A",
"s@	c #2B374D",
"t@	c #4E5F47",
"u@	c #40543E",
"v@	c #3B4337",
"w@	c #56657D",
"x@	c #3A4861",
"y@	c #47556F",
"z@	c #53617A",
"A@	c #5C6A83",
"B@	c #707E95",
"C@	c #8896AA",
"D@	c #B6C1D0",
"E@	c #B4BECC",
"F@	c #B7BECB",
"G@	c #C1C9D6",
"H@	c #91A0B6",
"I@	c #5B6B85",
"J@	c #303B4D",
"K@	c #11161D",
"L@	c #171D26",
"M@	c #262F3E",
"N@	c #486042",
"O@	c #626F86",
"P@	c #3B4961",
"Q@	c #55647C",
"R@	c #6D7A90",
"S@	c #7C899D",
"T@	c #96A1B2",
"U@	c #ACB5C3",
"V@	c #C8CEDA",
"W@	c #CFD5DF",
"X@	c #C3CAD6",
"Y@	c #A1ADBF",
"Z@	c #5D6C83",
"`@	c #3A475D",
" #	c #141B29",
".#	c #0F131C",
"+#	c #1A1F28",
"@#	c #222937",
"##	c #7A8078",
"$#	c #959E94",
"%#	c #455246",
"&#	c #50664C",
"*#	c #6F7B8E",
"=#	c #425069",
"-#	c #54627B",
";#	c #929CAD",
">#	c #ADB5C1",
",#	c #BEC3CB",
"'#	c #C6CAD1",
")#	c #C9CED6",
"!#	c #C2CAD6",
"~#	c #9FABBC",
"{#	c #606B7E",
"]#	c #2A313E",
"^#	c #1D232E",
"/#	c #151C27",
"(#	c #1B1F28",
"_#	c #4D574E",
":#	c #4C554C",
"<#	c #3C473B",
"[#	c #3D4F3C",
"}#	c #7A8598",
"|#	c #55637C",
"1#	c #4F5D76",
"2#	c #A7B0BF",
"3#	c #BEC4CF",
"4#	c #C5C9D0",
"5#	c #BCC4D0",
"6#	c #A9B4C4",
"7#	c #5C677A",
"8#	c #2D333E",
"9#	c #1C1F25",
"0#	c #08090A",
"a#	c #020203",
"b#	c #050506",
"c#	c #45463B",
"d#	c #858E9D",
"e#	c #677489",
"f#	c #727E92",
"g#	c #8D98A8",
"h#	c #ACB4C1",
"i#	c #B6BEC8",
"j#	c #B6BDC7",
"k#	c #9198A4",
"l#	c #485060",
"m#	c #212630",
"n#	c #16181C",
"o#	c #010101",
"p#	c #606A7C",
"q#	c #566073",
"r#	c #717A89",
"s#	c #7C838F",
"t#	c #696F78",
"u#	c #575C66",
"v#	c #2D343D",
"w#	c #1E222A",
"x#	c #0C0E10",
"y#	c #030303",
"z#	c #020202",
"A#	c #1B1D21",
"B#	c #2E343D",
"C#	c #272D37",
"D#	c #1C1F24",
"E#	c #181A1E",
"F#	c #141618",
"G#	c #080808",
"H#	c #040404",
"I#	c #090A0A",
"J#	c #121315",
"K#	c #131416",
"L#	c #101112",
"M#	c #0A0A0A",
"                                                                ",
"              . . .                                             ",
"          + @ # $ % & *                                         ",
"        + = - ; > , ' ) !                                       ",
"        ~ { ] ^ / ( _ : < [                                     ",
"      . } | 1 2 3 4 5 6 7 8                 9                   ",
"      . 0 a b c d e f g h i j         k l m n o p               ",
"      . q r s t u v w x y z j       A B C D E F G H             ",
"        I J K L M N O P Q R j     S T U V W X Y Z `  .          ",
"        ..+.@.#.$.%.&.*.=.-.    ;.>.,.,.'.).!.~.{.].^.          ",
"          /.(._.:.<.[.}.|.j   1.2.3.,.4.5.6.7.8.9.0.a.b.        ",
"            c.d.e.f.g.-.j   h.i.j.k.4.4.l.5.{.m.n.o.p.q.        ",
"    r.s.t.      j j j     u.v.w.x.y.z.A.4.B.C.D.E.F.G.H.        ",
"    I.J.K.L.              M.N.O.P.Q.R.S.T.U.V.W.X.Y.Z.`.        ",
"     +.+++@+            #+$+%+&+*+Q.=+-+;+>+,+'+)+!+~+{+        ",
"      ]+^+/+            (+_+:+<+Q.Q.[+}+|+1+2+3+4+5+6+7+        ",
"      8+  9+            0+a+U b+c+=+d+e+f+g+h+i+j+X.k+l+        ",
"    m+n+              o+p+q+r+s+t+u+v+w+x+y+z+A+B+C+D+E+        ",
"  F+G+H+I+            J+K+L+M+N+O+P+Q+R+S+T+U+V+W+X+Y+Z+`+      ",
"   @.@+@              @@#@$@%@&@*@=@-@;@>@,@'@)@!@~@{@]@^@      ",
"    /@                (@_@:@<@[@}@|@1@2@3@4@5@6@7@8@9@_@0@      ",
"              a@b@    c@d@e@f@g@h@i@j@k@9@l@m@n@o@p@q@r@s@      ",
"            t@u@v@    w@x@y@z@A@B@C@D@E@F@G@H@I@J@K@L@M@        ",
"            N@        O@P@Q@R@S@T@U@V@W@X@Y@Z@`@ #.#+#@#        ",
"    ##$#%#&#          *#=#-#;#>#,#'#)#!#~#{#]#^#/#U (#          ",
"    _#:#<#[#          }#|#1#2#3#4#'#5#6#7#8#9#0#a#b#            ",
"        c#            d#e#f#g#h#i#j#k#l#m#n#o#. . . . .         ",
"                        p#q#r#s#t#u#v#w#x#y#z#z#z#z#z#z#o#      ",
"                        A#B#C#b+D#E#F#G#y#y#y#y#H#H#H#H#        ",
"                          I#J#K#L#M#H#H#H#H#H#y#y#y#z#          ",
"                                                                ",
"                                                                "};
