/* XPM */
static char *main_window[] = {
/* columns rows colors chars-per-pixel */
"32 32 179 2",
"   c #AE1616",
".  c #B41616",
"X  c #B61A1A",
"o  c #BB1C1C",
"O  c #BC2323",
"+  c #BA2C2C",
"@  c #A52B35",
"#  c #BF3030",
"$  c #B43739",
"%  c #BD3A3A",
"&  c #C11F1F",
"*  c #C32222",
"=  c #C92424",
"-  c #C32729",
";  c #C12C2D",
":  c #CB2B2C",
">  c #D02A2A",
",  c #C73333",
"<  c #CC3434",
"1  c #C53E3E",
"2  c #CD3E3E",
"3  c #D23A3A",
"4  c #A83643",
"5  c #A33C4A",
"6  c #AA3F4D",
"7  c #AB404E",
"8  c #BE4141",
"9  c #B6454A",
"0  c #A35467",
"q  c #A0596D",
"w  c #AC6374",
"e  c #C34242",
"r  c #C94040",
"t  c #C24B4B",
"y  c #CA4C4C",
"u  c #D94F4F",
"i  c #C14C55",
"p  c #C65656",
"a  c #CD5555",
"s  c #C65B5B",
"d  c #CB5C5C",
"f  c #D25454",
"g  c #D45E5E",
"h  c #DC5E5E",
"j  c #CA6262",
"k  c #CC6B6B",
"l  c #D46464",
"z  c #DE6364",
"x  c #D36F6F",
"c  c #DD6A6B",
"v  c #CD7373",
"b  c #CF7979",
"n  c #D27474",
"m  c #DA7676",
"M  c #D47C7C",
"N  c #E17374",
"B  c #3B608E",
"V  c #3D6393",
"C  c #3465A4",
"Z  c #416A9E",
"A  c #476FA2",
"S  c #4670A5",
"D  c #4871A5",
"F  c #4E77AA",
"G  c #4E78AD",
"H  c #5177AD",
"J  c #517AAF",
"K  c #537DB3",
"L  c #6C76A1",
"P  c #6D7CA8",
"I  c #A3768A",
"U  c #A77E93",
"Y  c #5780B5",
"T  c #5C84B6",
"R  c #5D87BB",
"E  c #5F89BC",
"W  c #6683B2",
"Q  c #6387B9",
"!  c #6489BA",
"~  c #698FBF",
"^  c #7A89B2",
"/  c #6C90BD",
"(  c #7193BF",
")  c #6D93C3",
"_  c #7496C3",
"`  c #7899C3",
"'  c #769BC8",
"]  c #7BA1CD",
"[  c #A68AA4",
"{  c #AA91A8",
"}  c #A194B0",
"|  c #A39AB5",
" . c #D48181",
".. c #DE8383",
"X. c #D68D8D",
"o. c #D79191",
"O. c #DC9292",
"+. c #DB9C9C",
"@. c #E18585",
"#. c #E09A9A",
"$. c #E99C9C",
"%. c #C59FAC",
"&. c #C6A2AD",
"*. c #DEA5A5",
"=. c #EAA3A3",
"-. c #E6AAAA",
";. c #ECAAAA",
":. c #E4B6B6",
">. c #EDBCBC",
",. c #F1B6B6",
"<. c #F2BEBE",
"1. c #83A0C7",
"2. c #86A3C9",
"3. c #8AA5CB",
"4. c #87A9CF",
"5. c #92ACCE",
"6. c #9EACCF",
"7. c #81A7D4",
"8. c #82A8D5",
"9. c #8BAAD3",
"0. c #8CAFD9",
"q. c #91AED2",
"w. c #9EAED1",
"e. c #96B0D1",
"r. c #9EB6D4",
"t. c #A1B7D4",
"y. c #ADB6D5",
"u. c #A5BAD7",
"i. c #A8B9D7",
"p. c #A6BCD8",
"a. c #ACBDDA",
"s. c #AEC2DB",
"d. c #B2C3DD",
"f. c #A6C3E4",
"g. c #B4C9E0",
"h. c #B1CDEC",
"j. c #BAD2EE",
"k. c #AFCFF1",
"l. c #B1CFF0",
"z. c #B4D4F3",
"x. c #B9D5F3",
"c. c #BED8F4",
"v. c #CDCAD5",
"b. c #D6D7D8",
"n. c #E7C0C0",
"m. c #EDC5C5",
"M. c #F4CCCC",
"N. c #F7D9D9",
"B. c #C1CFE3",
"V. c #C2D0E3",
"C. c #C6D5EA",
"Z. c #CFDCEB",
"A. c #C1D7F0",
"S. c #C3DBF5",
"D. c #C9DCF2",
"F. c #C4DEF8",
"G. c #C8DFF9",
"H. c #D6E1ED",
"J. c #DAE3EE",
"K. c #CCE2F9",
"L. c #D6E4F3",
"P. c #DEE6F0",
"I. c #DDE8F6",
"U. c #D2E5FA",
"Y. c #D7E8FB",
"T. c #DBEAFA",
"R. c #E5E6EA",
"E. c #F6E3E3",
"W. c #F9EBEB",
"Q. c #E6ECF4",
"!. c #E2EEFC",
"~. c #EDF0F4",
"^. c #E6F1FC",
"/. c #ECF4FC",
"(. c #FCF6F6",
"). c #F1F6FD",
"_. c #F5F9FE",
"`. c #FCFDFE",
"'. c None",
/* pixels */
"'.'.'.'.'.'.'.'.'.'.'.'.'.K _ 5.5._ K '.'.'.'.'.'.'.'.'.'.'.'.'.",
"'.'.'.'.'.'.'.'.'.'.'.'.Y ~.`.`.`.`.Q.K '.'.'.'.'.'.'.'.'.'.'.'.",
"'.'.'.'.'.'.'.'.'.'.K ! P.`.`.`.`.`.`.P.Q '.'.'.'.'.'.'.'.'.'.'.",
"'.'.'.'.'.'.'.K T 2.J.`.`.`._._._._.`.`.`.Z.1.Q K '.'.'.'.'.'.'.",
"'.'.'.'.'.Q u.Q.`.`._._.)././././././.)._._.`.`.~.d.! '.'.'.'.'.",
"'.'.'.K p.`.`.`._._././.^.^.!.!.!.!.^.^././._._.`.`.`.r.'.'.'.'.",
"'.'.'.3.`.`.`._././.^.!./.!.^.).).^.^./.!.^././._.`.`.`.3.'.'.'.",
"'.'.T _.`.`._./.^.!.T.Y._._._.`.`._._._.Y.T.!.^./._.`.`._.T '.'.",
"'.'.t.`.`._./.^.T.Y.U.K._.Z.g.K.K.d.L._.K.U.Y.T.^./._.`.`.p.'.'.",
"'.K ).`._./._._.).!.K.F./.R.b.`.`.v.~./.F.K.!.)._._./._.`._.Y '.",
"'.Q `._._._.`.`.`.`./.U.G.`.`.R.R.`.`.K.U.).`.`.`.`._._._.`.! '.",
"'.( `.)./.^./._.`.`._.).Y./.H.v.v.H./.Y./._.`.`._./.^./.).`.( '.",
"'.3._./.!.T.U.U.^._.`._.T.y...-.-...y.T._.`._.^.U.U.T.!./._.2.'.",
"'.e.).^.Y.U.K.F.F._._.^.a.%.:.n.n.:.&.d.^._.).F.F.K.U.Y.^.).q.'.",
"'.C ! !.D.f.h.x.x.^.T.x.} o.+.*.*.+.X.| x.T./.z.x.h.f.D.!.~ C '.",
"'.2._.^.Y.j.0.8.{ S.6.I  .o.+.*.*.+.o.v U w.A.[ 7.0.j.Y./._.1.'.",
"/ `.`._.!.K.l._ - @ $ :.X.E.b M M b v v W.9 @ - _ l.K.!._.`.`./ ",
"d.`.`._.^.Y.c.5 o   % s t v b v v k s t t s *.o 5 c.Y.^._.`.`.s.",
"V.`.`.).^.U.k.- X X % + 8 s O.n v k p t n >.. O - z.U.^.).`.`.B.",
"r.).^.T.U.F.9.= X X e + % p  .+. .n n j + t X . = 0.F.U.T.^.).r.",
"` /.^.T.K.F.^ = X o t + e d M E.E.-.x e + y o X = ^ F.K.T.^./.` ",
"! /.^.T.U.S.L = o O y # e d O.(.(.#.d e # y o o = P S.U.T.^./.Q ",
"K C.^.T.U.f.H = o * y ; e M O.-.m.m a 1 ; y & o = H f.U.T.^.C.K ",
"'.Y I.T.j.) K : * * g 2 l g l n m O.a r , 2 = * : K ) j.T.I.Y '.",
"'.'.K q.4.) R 4 : < W.g f l x m m ..m f f 2 : = 4 R ) 9.q.K '.'.",
"'.'.'.'.Y ' ] W > 2 c ;.c m ..@.@...=.m N.u < : Q ] ' Y '.'.'.'.",
"'.'.'.'.'.'.K E 0 3 g =.$.=.;.;.;.;.N.;.N g 3 q E K '.'.'.'.'.'.",
"'.'.'.'.'.'.'.'.Z 7 z @.=.;.,.<.<.,.;.;.@.h 6 Z '.'.'.'.'.'.'.'.",
"'.'.'.'.'.'.'.'.D 9.w z ;.>.M.N.N.M.>.=.z w 9.S '.'.'.'.'.'.'.'.",
"'.'.'.'.'.'.'.G A.K.c.i.i N $.<.<.$.c i i.c.K.A.G '.'.'.'.'.'.'.",
"'.'.'.'.'.'.'.F T ~ K A B '.'.'.'.'.'.V A J ~ T F '.'.'.'.'.'.'.",
"'.'.'.'.'.'.'.'.'.'.'.'.'.'.'.'.'.'.'.'.'.'.'.'.'.'.'.'.'.'.'.'."
};
