/* XPM */
static char *manedit[] = {
/* columns rows colors chars-per-pixel */
"32 32 18 1",
"  c black",
". c #191919191919",
"X c gray20",
"o c #000000007F7F",
"O c #00007F7F7F7F",
"+ c #7F7F00000000",
"@ c #7F7F7F7F0000",
"# c #4C4C4C4C4C4C",
"$ c #666666666767",
"% c gray50",
"& c cyan",
"* c red",
"= c yellow",
"- c gray60",
"; c #B2B2B2B2B2B2",
": c gray80",
"> c gray90",
", c None",
/* pixels */
",,,X$$%$%$@$%$%$%%$$@$#####.,,,,",
",,,X$-:;;;:;;;=;;;;;>@##@X#.,,,,",
",,,X$->:=>:::>::::::::%+XX#.,,,,",
",, X@->=::;::=:;;;:=::;$#XX.,,,,",
",,.%--:-;;;-;--;=;-;::;;%#X.,, .",
",,.-:;;$@;-=-----;-;:=;=-%#.,.##",
",, X#%;-;::;=::=:;=:;-@--$#..O;O",
",,,X#-=:::=:::;;:;:::;:;;%#.$:;$",
",,,X#%:>:;=;;=;;;;=-;-;;=-$O::&o",
",,,X#-:=::--;;---;;;;=-;;--:;OOX",
",,,XX%>::::::;=;;::;;;;;-;:;OOX.",
",,,X@-:=:;=;;-;;;=-;;=--;:&Oo..,",
",,,X#%::;;;;;--;;;-=;%%;:-O#X ,,",
",,,X#-:::=-;-=-------;::&O#..,,,",
", .##-;;-;---;-==----&:Oo##.,,,,",
", $:;;;@$::=:;;;;;;;:;O#$%#.,,,,",
", X%@-:@@;;=:;=;;;;;-Oo%;%$.,,,,",
",,,X#-:::;;;;;---;:-#$-;;%#.,,,,",
",,,X#-:::;:;;;;;;:OO$-;;=%@.,,,,",
",,,X@-:>:;;;:=-=-$#-=;;;;%#.,,,,",
",,,X#%:==-;----;$#%-=;=;;%#.,,,,",
",,,X@->:::;;;-;;%-;;;;;;=%#.,,,,",
",,,X#-:::;=;------;-;=-;;%$.,,,,",
",,,X+-::=;;--*%-%%=--;;;;%#.,,,,",
",,,X#%::;;=--%%@@%%%%-%--@#.,,,,",
",, X#%=;-;;;;;;=;-@@@*%@@$#.,,,,",
",,.->:;%$-;==;--;;----$%%%+.,,,,",
",, #%-;-@-;;----=--=--=;-@$X,,,,",
",,,XX%:;=;:;;;;;;;;;;=:;:@#.,,,,",
",,,X#%:=:;;;::=;;;;=;;;;;%#.,,,,",
",,,X@$-%--%-%@%-%--%%%%%%@#.,,,,",
",,,X####+###@$##@$+###@####.,,,,"
};
