/* XPM */
static char * mp_viewer_48x48_xpm[] = {
"48 48 855 2",
"  	c None",
". 	c #5E5D5A",
"+ 	c #5E5D5D",
"@ 	c #6B6966",
"# 	c #504D4B",
"$ 	c #515049",
"% 	c #4D4C47",
"& 	c #6E6C69",
"* 	c #625E57",
"= 	c #7E786B",
"- 	c #868071",
"; 	c #545149",
"> 	c #757575",
", 	c #62605A",
"' 	c #837E74",
") 	c #D2C9B1",
"! 	c #E0D8C2",
"~ 	c #8E8877",
"{ 	c #6F6E6B",
"] 	c #65645D",
"^ 	c #A09B8C",
"/ 	c #E5DBC1",
"( 	c #F8F6F0",
"_ 	c #B7AA8F",
": 	c #ACA086",
"< 	c #524F47",
"[ 	c #504F48",
"} 	c #767573",
"| 	c #66645D",
"1 	c #C1BAA5",
"2 	c #ECE4CC",
"3 	c #E9E3D2",
"4 	c #BDB195",
"5 	c #ADA187",
"6 	c #AFA287",
"7 	c #5F594C",
"8 	c #514F47",
"9 	c #514E4A",
"0 	c #4B4844",
"a 	c #403E3C",
"b 	c #302F2F",
"c 	c #6C6B69",
"d 	c #625F58",
"e 	c #D4CBB5",
"f 	c #EDE4CB",
"g 	c #E0D7C2",
"h 	c #C4B79A",
"i 	c #B8AB8F",
"j 	c #B4A78B",
"k 	c #B7AA8D",
"l 	c #635C4F",
"m 	c #4F4E48",
"n 	c #524E44",
"o 	c #827C6D",
"p 	c #706A5C",
"q 	c #5E584B",
"r 	c #544E43",
"s 	c #474540",
"t 	c #3E3D3C",
"u 	c #5E5C58",
"v 	c #6F6C62",
"w 	c #DDD5BC",
"x 	c #F0E9D4",
"y 	c #DBD0B5",
"z 	c #C6B899",
"A 	c #B4A68A",
"B 	c #AFA286",
"C 	c #BAAC8F",
"D 	c #B1A489",
"E 	c #6E6859",
"F 	c #4C483E",
"G 	c #484642",
"H 	c #5C584D",
"I 	c #656256",
"J 	c #736F62",
"K 	c #7D796C",
"L 	c #9D9684",
"M 	c #BCB49E",
"N 	c #B0A892",
"O 	c #B6AD94",
"P 	c #807D6E",
"Q 	c #48443C",
"R 	c #302E2C",
"S 	c #7C7B79",
"T 	c #5A5958",
"U 	c #8B887A",
"V 	c #E3D9BF",
"W 	c #F3EDDB",
"X 	c #D3C5A7",
"Y 	c #CABB99",
"Z 	c #A3977D",
"` 	c #B1A386",
" .	c #B9AB90",
"..	c #C8BDA1",
"+.	c #A99D84",
"@.	c #5D584D",
"#.	c #4A4845",
"$.	c #7E796E",
"%.	c #777265",
"&.	c #736E60",
"*.	c #8A8473",
"=.	c #9E9884",
"-.	c #B0AA95",
";.	c #D1CAB3",
">.	c #D9D2BC",
",.	c #DBD3BD",
"'.	c #D7CEB4",
").	c #C9BFA5",
"!.	c #C1B79E",
"~.	c #878272",
"{.	c #4B463B",
"].	c #24221E",
"^.	c #757470",
"/.	c #6D6A63",
"(.	c #BFB8A5",
"_.	c #E9DEC2",
":.	c #EDE8D7",
"<.	c #CFC1A0",
"[.	c #CCBC99",
"}.	c #C4B490",
"|.	c #BDAE90",
"1.	c #978C74",
"2.	c #B0A389",
"3.	c #C2B89D",
"4.	c #C3B89D",
"5.	c #A89C84",
"6.	c #655F52",
"7.	c #4F4D48",
"8.	c #6D685C",
"9.	c #938D7E",
"0.	c #A29C8A",
"a.	c #A19B88",
"b.	c #ACA691",
"c.	c #C4BCA5",
"d.	c #D1C8B0",
"e.	c #D5CDB5",
"f.	c #D8D0BB",
"g.	c #DCD5C2",
"h.	c #DFD7C1",
"i.	c #E0D8BE",
"j.	c #C2BAA1",
"k.	c #CCC3A7",
"l.	c #898473",
"m.	c #514D41",
"n.	c #282621",
"o.	c #676563",
"p.	c #6C685F",
"q.	c #DED6BD",
"r.	c #EEE3C8",
"s.	c #E4DCC6",
"t.	c #CDBE9D",
"u.	c #CDBC98",
"v.	c #CBB994",
"w.	c #CCBB96",
"x.	c #CCBC97",
"y.	c #BBAF94",
"z.	c #C6BBA0",
"A.	c #C4B99E",
"B.	c #988E78",
"C.	c #676153",
"D.	c #504B40",
"E.	c #49443B",
"F.	c #6F695A",
"G.	c #908977",
"H.	c #ACA590",
"I.	c #C8BFA9",
"J.	c #D3CCB3",
"K.	c #D8D1B9",
"L.	c #D8D1BA",
"M.	c #D6CEB5",
"N.	c #D6D0B8",
"O.	c #D5CEB7",
"P.	c #D8D0BA",
"Q.	c #D7CEB6",
"R.	c #DED6BC",
"S.	c #C8BFA7",
"T.	c #C9C0A5",
"U.	c #908C7B",
"V.	c #595446",
"W.	c #2C2A25",
"X.	c #62605C",
"Y.	c #736E63",
"Z.	c #E8DFC3",
"`.	c #F1EAD5",
" +	c #DBD2B9",
".+	c #CDBD9B",
"++	c #A4987E",
"@+	c #A4987D",
"#+	c #CABA95",
"$+	c #D0BF9A",
"%+	c #C9BDA0",
"&+	c #B4A88F",
"*+	c #C5B99E",
"=+	c #BEB39A",
"-+	c #B0A488",
";+	c #958A77",
">+	c #625C4E",
",+	c #5D574A",
"'+	c #C5BCA6",
")+	c #D1C7AE",
"!+	c #D4CCB3",
"~+	c #D9D2BB",
"{+	c #D9D1B8",
"]+	c #D6CDB2",
"^+	c #D4CBB0",
"/+	c #D1C7AC",
"(+	c #BFB79F",
"_+	c #B4AC97",
":+	c #B2AA95",
"<+	c #D1C8AD",
"[+	c #CAC0A5",
"}+	c #989480",
"|+	c #585247",
"1+	c #35332F",
"2+	c #787672",
"3+	c #5B5954",
"4+	c #837F70",
"5+	c #ECE2C6",
"6+	c #F3EEDD",
"7+	c #D6CAAD",
"8+	c #CBBB99",
"9+	c #C1B18F",
"0+	c #BBAB8A",
"a+	c #938870",
"b+	c #BDAF91",
"c+	c #CFC2A4",
"d+	c #CEC1A3",
"e+	c #CBBEA0",
"f+	c #C3B89C",
"g+	c #B5A88C",
"h+	c #B1A68D",
"i+	c #837C6A",
"j+	c #817A69",
"k+	c #C5BBA3",
"l+	c #D2C9AE",
"m+	c #D0C7AD",
"n+	c #D2C8AE",
"o+	c #CBC1A7",
"p+	c #C7BEA4",
"q+	c #C9C0A6",
"r+	c #C2BAA2",
"s+	c #D5CCB3",
"t+	c #E3DCC8",
"u+	c #DAD1B9",
"v+	c #D6CEB4",
"w+	c #D3CAAE",
"x+	c #CCC2A7",
"y+	c #9C9784",
"z+	c #5D5748",
"A+	c #363431",
"B+	c #6F6D6B",
"C+	c #585550",
"D+	c #9A9583",
"E+	c #EEE3C6",
"F+	c #F0EADA",
"G+	c #D4C7A9",
"H+	c #CAB997",
"I+	c #BBAC8B",
"J+	c #B4A687",
"K+	c #B9AB8B",
"L+	c #AEA186",
"M+	c #CCC0A4",
"N+	c #CCBF9F",
"O+	c #D1C4A3",
"P+	c #C4B89B",
"Q+	c #B7AB8E",
"R+	c #5B5B5B",
"S+	c #858585",
"T+	c #C9C9C9",
"U+	c #D7CCB0",
"V+	c #C2B9A0",
"W+	c #C8BFA5",
"X+	c #BFB69E",
"Y+	c #D1C8AE",
"Z+	c #D3C9B0",
"`+	c #DBD3BC",
" @	c #DAD2BB",
".@	c #E0D9C4",
"+@	c #D8D0B6",
"@@	c #CEC4A8",
"#@	c #9F9A87",
"$@	c #605A4A",
"%@	c #363430",
"&@	c #615F5C",
"*@	c #58554E",
"=@	c #BAB39C",
"-@	c #E8E2D0",
";@	c #D3C6A7",
">@	c #CBBA98",
",@	c #BFB091",
"'@	c #C2B291",
")@	c #C3B391",
"!@	c #C1B292",
"~@	c #B8AE96",
"{@	c #BEB297",
"]@	c #C5B89B",
"^@	c #C2B69A",
"/@	c #B7AB8F",
"(@	c #9E947A",
"_@	c #58554A",
":@	c #58544A",
"<@	c #737373",
"[@	c #D7CDB0",
"}@	c #DBD2B8",
"|@	c #D9D0B8",
"1@	c #D5CCB2",
"2@	c #D3C9B1",
"3@	c #DCD5BE",
"4@	c #DFD8C2",
"5@	c #D6CDB4",
"6@	c #BEB69F",
"7@	c #C0B79F",
"8@	c #D4CAB0",
"9@	c #D2C8AD",
"0@	c #D0C7AA",
"a@	c #A49E8A",
"b@	c #8A8575",
"c@	c #3B3834",
"d@	c #5B5956",
"e@	c #625F55",
"f@	c #C7BEA7",
"g@	c #EEE4CA",
"h@	c #E0D6C1",
"i@	c #D1C2A1",
"j@	c #A5997E",
"k@	c #C6B695",
"l@	c #C2B495",
"m@	c #CCC0A2",
"n@	c #BFB497",
"o@	c #C0B297",
"p@	c #B2A58B",
"q@	c #9B8F76",
"r@	c #6F6857",
"s@	c #716B5A",
"t@	c #B8AF94",
"u@	c #D9CFB2",
"v@	c #D9D0B6",
"w@	c #D6CDB3",
"x@	c #D3CAB0",
"y@	c #D7CFB6",
"z@	c #BEB59E",
"A@	c #C3BAA1",
"B@	c #C5BCA3",
"C@	c #B6AE98",
"D@	c #D4CCB1",
"E@	c #D4CBAF",
"F@	c #CFC6AA",
"G@	c #C4BBA0",
"H@	c #8A8574",
"I@	c #3F3C36",
"J@	c #56544F",
"K@	c #6E6A5E",
"L@	c #D3C9AF",
"M@	c #F0E8D2",
"N@	c #D9CFB7",
"O@	c #D4C5A3",
"P@	c #CEBD9A",
"Q@	c #B1A488",
"R@	c #C9B997",
"S@	c #C8BB9E",
"T@	c #C6BB9F",
"U@	c #C2B599",
"V@	c #BAAC90",
"W@	c #B2A68B",
"X@	c #968B72",
"Y@	c #847B66",
"Z@	c #8B836E",
"`@	c #C1B89E",
" #	c #DBD1B6",
".#	c #BBB29B",
"+#	c #CEC4AA",
"@#	c #CEC5AA",
"##	c #CFC5AB",
"$#	c #C8BFA6",
"%#	c #C2B9A1",
"&#	c #D5CBB2",
"*#	c #D8CFB6",
"=#	c #D6CCB1",
"-#	c #CAC1A4",
";#	c #898372",
">#	c #3F3E3B",
",#	c #322E28",
"'#	c #706E6D",
")#	c #54514D",
"!#	c #9B9485",
"~#	c #E0D5B8",
"{#	c #EBE3CD",
"]#	c #D9CEB3",
"^#	c #D5C5A2",
"/#	c #D3C39E",
"(#	c #CCBB99",
"_#	c #B8AA8E",
":#	c #A79A80",
"<#	c #C5B99C",
"[#	c #C6BB9E",
"}#	c #C5B99D",
"|#	c #B1A48A",
"1#	c #8F856B",
"2#	c #8F856F",
"3#	c #9A917B",
"4#	c #C7BFA6",
"5#	c #DCD3B9",
"6#	c #DCD4BB",
"7#	c #DBD2BA",
"8#	c #D4CBB1",
"9#	c #D6CCB3",
"0#	c #D8D0B7",
"a#	c #DED7C1",
"b#	c #D8CFB5",
"c#	c #D4CAAF",
"d#	c #D5CBAF",
"e#	c #D1C7AA",
"f#	c #8A8573",
"g#	c #47443F",
"h#	c #585755",
"i#	c #5C5A52",
"j#	c #CAC3AC",
"k#	c #E9DDC0",
"l#	c #E7DEC6",
"m#	c #DACEB0",
"n#	c #D6C6A2",
"o#	c #CABB98",
"p#	c #C3B494",
"q#	c #BBB096",
"r#	c #C3B69A",
"s#	c #C1B598",
"t#	c #AFA186",
"u#	c #7E7869",
"v#	c #726D63",
"w#	c #898989",
"x#	c #D8CFBB",
"y#	c #CDC4AB",
"z#	c #DCD3BB",
"A#	c #DCD4BD",
"B#	c #DAD2BA",
"C#	c #D3C9AE",
"D#	c #D6CCAF",
"E#	c #8D8977",
"F#	c #5D574C",
"G#	c #3F3D3C",
"H#	c #52514D",
"I#	c #E6DABE",
"J#	c #D4C7A8",
"K#	c #C8B998",
"L#	c #ADA085",
"M#	c #C3B495",
"N#	c #C6B797",
"O#	c #C5B695",
"P#	c #CBC0A3",
"Q#	c #B4AA90",
"R#	c #C8BC9E",
"S#	c #C4B799",
"T#	c #9F957D",
"U#	c #494949",
"V#	c #525251",
"W#	c #ABABAB",
"X#	c #E1E1E1",
"Y#	c #515050",
"Z#	c #D9D1B7",
"`#	c #D4CBB2",
" $	c #D1C7AD",
".$	c #BEB69E",
"+$	c #C9BFA6",
"@$	c #C8BEA4",
"#$	c #C7BDA4",
"$$	c #C5BBA2",
"%$	c #D4CAAE",
"&$	c #8A8675",
"*$	c #686155",
"=$	c #4D4C49",
"-$	c #656156",
";$	c #CCC3AB",
">$	c #D5CAAD",
",$	c #D8CEB0",
"'$	c #C4B596",
")$	c #BEB091",
"!$	c #AB9E83",
"~$	c #BCAE91",
"{$	c #CEC2A5",
"]$	c #C7BA9C",
"^$	c #B3A98F",
"/$	c #BDB094",
"($	c #B7AA8E",
"_$	c #9C9176",
":$	c #746C59",
"<$	c #746F5F",
"[$	c #6F6C60",
"}$	c #B8B099",
"|$	c #C7BEA5",
"1$	c #D4CAB1",
"2$	c #D5CBB0",
"3$	c #D5CBB1",
"4$	c #D7CEB3",
"5$	c #D2C9AD",
"6$	c #D6CCB0",
"7$	c #DBD1B2",
"8$	c #D3C9AC",
"9$	c #8F8B79",
"0$	c #6E6959",
"a$	c #383634",
"b$	c #4B483F",
"c$	c #918975",
"d$	c #A69B82",
"e$	c #C6B89C",
"f$	c #B7A98B",
"g$	c #BBAD8F",
"h$	c #BEAF91",
"i$	c #ACA085",
"j$	c #C0B292",
"k$	c #CABC9E",
"l$	c #C9BCA0",
"m$	c #BDB093",
"n$	c #968A70",
"o$	c #8B8168",
"p$	c #A0977E",
"q$	c #B3AA91",
"r$	c #D8CEB4",
"s$	c #D9CFB1",
"t$	c #D2C8AC",
"u$	c #928E7D",
"v$	c #746D5E",
"w$	c #575654",
"x$	c #302F2C",
"y$	c #413D31",
"z$	c #736C5B",
"A$	c #7C7565",
"B$	c #A29478",
"C$	c #B4A589",
"D$	c #BAAB8D",
"E$	c #BEB092",
"F$	c #CABEA1",
"G$	c #CABD9F",
"H$	c #C2B699",
"I$	c #B6A98E",
"J$	c #8D8066",
"K$	c #8C8168",
"L$	c #A49A81",
"M$	c #B8AF96",
"N$	c #D3CBB1",
"O$	c #DBD3B9",
"P$	c #D3CAAF",
"Q$	c #D5CCB1",
"R$	c #D3C9AD",
"S$	c #D4CAAD",
"T$	c #938E7D",
"U$	c #7F7766",
"V$	c #1C1B18",
"W$	c #373229",
"X$	c #534D3E",
"Y$	c #756D5A",
"Z$	c #837D6C",
"`$	c #A09278",
" %	c #B4A689",
".%	c #BAAB8E",
"+%	c #BBAD90",
"@%	c #AEA48B",
"#%	c #C1B49A",
"$%	c #C7B99D",
"%%	c #C1B498",
"&%	c #B8AA8D",
"*%	c #B6AA8E",
"=%	c #8A7E64",
"-%	c #8C8169",
";%	c #A69D84",
">%	c #BBB298",
",%	c #D9CFB6",
"'%	c #C4BBA2",
")%	c #C1B89F",
"!%	c #BFB69D",
"~%	c #D0C6AA",
"{%	c #878170",
"]%	c #43403D",
"^%	c #22201C",
"/%	c #323029",
"(%	c #5A5243",
"_%	c #716957",
":%	c #7D7867",
"<%	c #9A8E74",
"[%	c #B0A286",
"}%	c #B8AA8C",
"|%	c #C8BB9D",
"1%	c #C6BA9D",
"2%	c #B6AA8F",
"3%	c #BCB093",
"4%	c #B5A78A",
"5%	c #B0A589",
"6%	c #887D64",
"7%	c #A99F86",
"8%	c #C1B79D",
"9%	c #C6BDA4",
"0%	c #CFC5AA",
"a%	c #CDC2A6",
"b%	c #CBC0A5",
"c%	c #AFA891",
"d%	c #8A8371",
"e%	c #46433F",
"f%	c #322E26",
"g%	c #252320",
"h%	c #38342C",
"i%	c #524B3C",
"j%	c #6A614E",
"k%	c #807A68",
"l%	c #9C8F74",
"m%	c #B5A789",
"n%	c #BFB191",
"o%	c #C1B497",
"p%	c #B9AE93",
"q%	c #B5A78B",
"r%	c #A79B81",
"s%	c #877C64",
"t%	c #898068",
"u%	c #ABA188",
"v%	c #CDC3A9",
"w%	c #C5BDA3",
"x%	c #D2C9AF",
"y%	c #CFC5AC",
"z%	c #CCC2A9",
"A%	c #CAC0A6",
"B%	c #C9BEA4",
"C%	c #C9BEA3",
"D%	c #C9BDA2",
"E%	c #C8BDA2",
"F%	c #B4AE96",
"G%	c #8C8572",
"H%	c #3A3733",
"I%	c #1F1D18",
"J%	c #2A261E",
"K%	c #464033",
"L%	c #6F6856",
"M%	c #78715D",
"N%	c #908770",
"O%	c #B1A485",
"P%	c #C7BB9F",
"Q%	c #C0B497",
"R%	c #BCAE92",
"S%	c #A5997F",
"T%	c #8F836A",
"U%	c #A69D86",
"V%	c #DFD5BC",
"W%	c #CEC5AB",
"X%	c #D5CCAF",
"Y%	c #D8CEB2",
"Z%	c #D8CDB0",
"`%	c #D7CCAF",
" &	c #D4C8AC",
".&	c #D1C5A9",
"+&	c #CEC2A6",
"@&	c #CABFA2",
"#&	c #C5BA9F",
"$&	c #B6AC92",
"%&	c #8B8675",
"&&	c #524E46",
"*&	c #3C3B3A",
"=&	c #0F0E0A",
"-&	c #201D16",
";&	c #423D30",
">&	c #6A6353",
",&	c #7A7461",
"'&	c #9A8F74",
")&	c #C2B798",
"!&	c #BCAF92",
"~&	c #AA9F86",
"{&	c #555555",
"]&	c #E4E4E4",
"^&	c #C7BDA3",
"/&	c #D5CBAE",
"(&	c #D7CBAE",
"_&	c #D8CCAE",
":&	c #D9CCAE",
"<&	c #DACDAE",
"[&	c #D7CCAE",
"}&	c #D3C6A8",
"|&	c #C5BA9C",
"1&	c #BEB397",
"2&	c #ADA389",
"3&	c #898371",
"4&	c #524D45",
"5&	c #3E3B3A",
"6&	c #14120E",
"7&	c #2B271F",
"8&	c #3E392D",
"9&	c #675E4C",
"0&	c #7E7865",
"a&	c #9D947D",
"b&	c #B6AB8E",
"c&	c #908776",
"d&	c #706B5D",
"e&	c #5D584B",
"f&	c #4F4F4E",
"g&	c #636363",
"h&	c #4A4A4A",
"i&	c #C0B69E",
"j&	c #D1C7AB",
"k&	c #D3C8AC",
"l&	c #D3C9AB",
"m&	c #D2C8AA",
"n&	c #D2C7A9",
"o&	c #D1C5A8",
"p&	c #CFC4A6",
"q&	c #CDC2A5",
"r&	c #C9BEA1",
"s&	c #C0B59A",
"t&	c #B5AA90",
"u&	c #918B77",
"v&	c #89816D",
"w&	c #797362",
"x&	c #544E41",
"y&	c #3C3A38",
"z&	c #171512",
"A&	c #211E1A",
"B&	c #3B352B",
"C&	c #686152",
"D&	c #716A58",
"E&	c #837D68",
"F&	c #ADA184",
"G&	c #BCB092",
"H&	c #B4A88D",
"I&	c #6F6754",
"J&	c #6A6455",
"K&	c #787366",
"L&	c #B4AB94",
"M&	c #D6CAAE",
"N&	c #D5CAAC",
"O&	c #D4C9AB",
"P&	c #CEC3A6",
"Q&	c #D0C5A9",
"R&	c #CBC0A4",
"S&	c #C0B69B",
"T&	c #B6AC91",
"U&	c #898270",
"V&	c #867F6C",
"W&	c #756E5D",
"X&	c #736B59",
"Y&	c #716A57",
"Z&	c #6E6756",
"`&	c #706A59",
" *	c #383429",
".*	c #312F2B",
"+*	c #121110",
"@*	c #221F19",
"#*	c #2E2A20",
"$*	c #595242",
"%*	c #787260",
"&*	c #8E8670",
"**	c #A59A81",
"=*	c #978C72",
"-*	c #7A715B",
";*	c #847C66",
">*	c #C0B59B",
",*	c #D2C6A9",
"'*	c #D3C8AB",
")*	c #CFC4A7",
"!*	c #C3B99D",
"~*	c #B7AD91",
"{*	c #8D8672",
"]*	c #807967",
"^*	c #797260",
"/*	c #736A58",
"(*	c #6F6756",
"_*	c #6D6655",
":*	c #686153",
"<*	c #534D3D",
"[*	c #474134",
"}*	c #393529",
"|*	c #25221A",
"1*	c #282623",
"2*	c #100E0B",
"3*	c #17140F",
"4*	c #2F2B22",
"5*	c #625D50",
"6*	c #6A6251",
"7*	c #807863",
"8*	c #827863",
"9*	c #92876E",
"0*	c #6D6552",
"a*	c #7C735F",
"b*	c #978D76",
"c*	c #9C937B",
"d*	c #AAA187",
"e*	c #A39A82",
"f*	c #9D937B",
"g*	c #999078",
"h*	c #867F6B",
"i*	c #756F5D",
"j*	c #746E5D",
"k*	c #706856",
"l*	c #6A6453",
"m*	c #564F41",
"n*	c #443F33",
"o*	c #373228",
"p*	c #2C2921",
"q*	c #26231C",
"r*	c #1D1A15",
"s*	c #191712",
"t*	c #110F0C",
"u*	c #1C1B1B",
"v*	c #040302",
"w*	c #13110D",
"x*	c #221F18",
"y*	c #5D5647",
"z*	c #67604F",
"A*	c #7F7660",
"B*	c #706754",
"C*	c #6A6250",
"D*	c #867E68",
"E*	c #817862",
"F*	c #77715E",
"G*	c #746E5E",
"H*	c #726A59",
"I*	c #6A6351",
"J*	c #564E3F",
"K*	c #444031",
"L*	c #2F2B21",
"M*	c #27231B",
"N*	c #1C1913",
"O*	c #0E0C09",
"P*	c #0B0A07",
"Q*	c #080705",
"R*	c #060504",
"S*	c #0C0A08",
"T*	c #15130E",
"U*	c #1F1C16",
"V*	c #5B5445",
"W*	c #5F5848",
"X*	c #615A4A",
"Y*	c #635C4C",
"Z*	c #655E4E",
"`*	c #6D6656",
" =	c #605948",
".=	c #554E3F",
"+=	c #454035",
"@=	c #3C372E",
"#=	c #2E2B22",
"$=	c #25221B",
"%=	c #1A1712",
"&=	c #16140F",
"*=	c #12110D",
"==	c #080805",
"-=	c #1B1812",
";=	c #242018",
">=	c #585143",
",=	c #676050",
"'=	c #5A5345",
")=	c #332E25",
"!=	c #2D2920",
"~=	c #27241D",
"{=	c #27241E",
"]=	c #26231F",
"^=	c #221F1C",
"/=	c #050503",
"(=	c #0E0D09",
"_=	c #14120C",
":=	c #191611",
"<=	c #1E1B15",
"[=	c #1D1A14",
"                                                                                                ",
"                                                                                                ",
"                                                                                                ",
"                                                                                                ",
"                                                                                                ",
"              . +                                                                               ",
"              @ # $ %                                                                           ",
"              & * = - ;                                                                         ",
"            > , ' ) ! ~ ;                                                                       ",
"            { ] ^ / ( _ : < [                                                                   ",
"            } | 1 2 3 4 5 6 7 8                                             9 0 a b             ",
"            c d e f g h i j k l m                                     n o p q r s t             ",
"            u v w x y z A B C D E F G                         H I J K L M N O P Q R             ",
"          S T U V W X Y Z B `  ...+.@.#.              $.%.&.*.=.-.;.>.,.'.).!.~.{.].            ",
"          ^./.(._.:.<.[.}.|.1.2.3.4.5.6.7.        8.9.0.a.b.c.d.e.f.g.h.i.j.k.l.m.n.            ",
"          o.p.q.r.s.t.u.v.w.x.y.z.A.4.B.C.D.E.F.G.H.I.J.K.L.M.N.O.P.Q.Q.R.S.T.U.V.W.            ",
"          X.Y.Z.`. +.+++@+#+$+%+&+*+=+-+;+>+,+'+)+!+~+,.{+]+^+/+/+(+_+:+'.<+[+}+|+1+            ",
"        2+3+4+5+6+7+8+9+0+a+b+c+d+e+f+g+h+i+j+k+l+m+n+/+o+p+q+q+r+s+t+u+v+w+x+y+z+A+            ",
"        B+C+D+E+F+G+H+I+J+K+L+M+N+O+P+Q+R+S+T+n+U+V+W+X+Y+n+Z+s+`+ @.@u++@l+@@#@$@%@            ",
"        &@*@=@E+-@;@>@,@'@)@!@~@{@]@^@/@(@_@:@<@[@}@|@1@2@3@4@5@s+1@6@7@8@9@0@a@b@c@            ",
"        d@e@f@g@h@i@A j@x.k@l@m@{@n@o@p@q@r@s@t@u@v@w@x@s+y@y@z@A@B@C@x@D@E@F@G@H@I@            ",
"        J@K@L@M@N@O@P@u.Q@R@]@S@T@U@V@W@X@Y@Z@`@ #.#+#@###$#%#x@x@&#y@*#w@=#/+-#;#>#,#          ",
"      '#)#!#~#{#]#^#/#(#_#:#<#[#h }#_#|#1#2#3#4#5#6#7# @8#L@9#5@0#a#1@b#c#d#/+e#f#g#t           ",
"      h#i#j#k#l#m#n#Y o#p#b+q#r#s#%+t#u#v#w#x#y#z#A#1@s+B#8@L@8#1@w@C#B@/+D#/+e#E#F#G#          ",
"      H#e@b#I#6#J#K#L#M#N#O#P#Q#R#S#T#U#V#W#X#Y#Z#{+`# $n+.$+$@$#$).(+$$9@d#%$e#&$*$t           ",
"      =$-$;$>$,$'$)$!$~$O#Y {$]$^$/$($_$:$<$[$U#w@}$q+A@|$1$2$9@L@l+3$4$5$6$7$8$9$0$t           ",
"    B+a$b$c$d$e$f$g$h$i$_#j${$k$l$m$_ n$o$p$q$Y+r$l+/+<+9@5@C#w@1@3$C#=#E@6$s$t$u$v$t           ",
"    w$x$y$z$A$B$C$D$E$~$~$/$F$G$H$C I$J$K$L$M$N$O$P$l+<+l+3$L@Q$l+Q$/+/+R$%$S$@@T$U$t           ",
"      V$W$X$Y$Z$`$ %.%+%~$@%#%$%%%&%*%=%-%;%>%`#,%8#8#9@c#v@b#8#8#'%o+p+)%!%8$~%D+{%]%          ",
"        ^%/%(%_%:%<%[%}%j$|%1%2%3%4%5%6%-%7%8%l+l+P$9@L@/+B@|$#$9%<+l+<+/+0%a%b%c%d%e%f%        ",
"          g%h%i%j%k%l%m%n%%+o%p%/$q%r%s%t%u%!.L@^+(+v%B@w%C#L@x@x%y%z%A%B%C%D%E%F%G%s H%        ",
"            I%J%K%L%M%N%O%P%%%Q%R%Q+S%T%U%V%8%W%n+1$x% $9@X%Y%Y%Z%`% &.&+&@&P%#&$&%&&&*&        ",
"              =&-&;&>&,&'&#&H$)&!&~&U#{&w#]&8%^&z%/+C#%$R$/&(&_&:&<&<&[&}&m@|&1&2&3&4&5&        ",
"                6&7&8&9&0&a&b&!&k c&d&e&f&g&h&i&j&t$k&8$8$l&m&n&o&p&q&r&s&t&u%u&v&w&x&y&        ",
"                  z&A&B&C&D&E&F&G&H&<%I&J&K&U#L&k&M&N&O&o&P&Q&R&S&T&7%U&V&W&X&Y&Z&`& *.*        ",
"                    +*@*#*$*%*&*S%**=*-*;*u%>*@&,*'*)*!*~*2&c${*]*^*W&/*(*_*:*<*[*}*|*1*        ",
"                      2*3*4*5*6*7*8*9*0*a*b*c*d*e*f*g*h*i*j*D&k*(*l*m*n*o*p*q*@*r*s*t*u*        ",
"                        v*w*x*y*z*A*B*C*:$D*E*F*G*z$H*_*I*J*K*L*M*-&N*6&O*P*Q*R*v*              ",
"                          S*T*U*V*W*X*Y*Z*6*k*`* =.=+=@=#=$=U*%=&=*=2*S*Q*                      ",
"                            ==O*-=;=>=,='=)=)=!=~={=]=^=Q*Q*Q*                                  ",
"                              /=(=_=:=<=<=[=N*u*Q*Q*Q*                                          ",
"                                  u*u*u*u*u*u*                                                  ",
"                                                                                                ",
"                                                                                                ",
"                                                                                                ",
"                                                                                                ",
"                                                                                                ",
"                                                                                                "};
