/* XPM */
static char *opencity[] = {
/* columns rows colors chars-per-pixel */
"32 32 257 2",
"   c #000000",
".  c #00005E",
"X  c #196400",
"o  c #650000",
"O  c #586C3B",
"+  c #55782C",
"@  c #41417D",
"#  c #000095",
"$  c #0000B1",
"%  c #0102BC",
"&  c #1B1DAC",
"*  c #023E90",
"=  c #390BB8",
"-  c #0000CB",
";  c #0000DC",
":  c #0B0CDB",
">  c #0018C1",
",  c #0E17D7",
"<  c #0000E5",
"1  c #0B0CEF",
"2  c #0006FF",
"3  c #060EF7",
"4  c #010EFD",
"5  c #0F10E4",
"6  c #0812FA",
"7  c #181EEA",
"8  c #1F2AFF",
"9  c #1922F4",
"0  c #252BF5",
"q  c #2631FF",
"w  c #2B35FF",
"e  c #2F38FE",
"r  c #2E32F6",
"t  c #08769E",
"y  c #3D4099",
"u  c #207BA4",
"i  c #2E4FD8",
"p  c #2B43F1",
"a  c #3D45FF",
"s  c #395AE2",
"d  c #216AC2",
"f  c #3264D5",
"g  c #5531AD",
"h  c #5B33C9",
"j  c #636892",
"k  c #494BED",
"l  c #6468E5",
"z  c #0BA300",
"x  c #05A019",
"c  c #07B300",
"v  c #08B000",
"b  c #06B604",
"n  c #089641",
"m  c #00B150",
"M  c #299364",
"N  c #12AA6E",
"B  c #01CF00",
"V  c #0DCB0A",
"C  c #00D500",
"Z  c #00D800",
"A  c #0BDA0B",
"S  c #09D407",
"D  c #14DD15",
"F  c #1BDE1C",
"G  c #17D419",
"H  c #06DE35",
"J  c #1EDA22",
"K  c #03EC0C",
"L  c #00EF1F",
"P  c green",
"I  c #00FE0D",
"U  c #03F20E",
"Y  c #00F716",
"T  c #01F21C",
"R  c #02FD13",
"E  c #0BFF1A",
"W  c #1AE01C",
"Q  c #10F31A",
"!  c #02E727",
"~  c #05E231",
"^  c #00FF25",
"/  c #29E62D",
"(  c #2EEF36",
")  c #20FF2E",
"_  c #2DFD39",
"`  c #38ED3E",
"'  c #33E736",
"]  c #31FF3D",
"[  c #36F03D",
"{  c #0AC05C",
"}  c #07D244",
"|  c #3BEE40",
" . c #3BF342",
".. c #37FF43",
"X. c #42F64A",
"o. c #42FC4D",
"O. c #4BFD56",
"+. c #4DFF58",
"@. c #47FF52",
"#. c #54FD5F",
"$. c #5CFE66",
"%. c #5FFF69",
"&. c #56FD60",
"*. c #62FE6C",
"=. c #67FF70",
"-. c #68FF71",
";. c #158386",
":. c #9F0000",
">. c #AD0000",
",. c #A20000",
"<. c #B20000",
"1. c #BC0102",
"2. c #BC020D",
"3. c #B90316",
"4. c #BA1D00",
"5. c #AF0828",
"6. c #870450",
"7. c #8A1A64",
"8. c #A21140",
"9. c #B95F00",
"0. c #BE6405",
"q. c #BD6903",
"w. c #C50000",
"e. c #C30308",
"r. c #C70B00",
"t. c #C90303",
"y. c #CA0A06",
"u. c #CD1014",
"i. c #D00B0E",
"p. c #D40D11",
"a. c #D80F13",
"s. c #DC1C0B",
"d. c #C60B13",
"f. c #D2172E",
"g. c #CB3A00",
"h. c #E10E11",
"j. c #E41318",
"k. c red",
"l. c #F3191E",
"z. c #F3171E",
"x. c #FE1D24",
"c. c #F51A20",
"v. c #ED241F",
"b. c #F22619",
"n. c #FD2123",
"m. c #FE252C",
"M. c #FD2D34",
"N. c #F12833",
"B. c #FD3339",
"V. c #FF393F",
"C. c #D84721",
"Z. c #C06709",
"A. c #C56A0A",
"S. c #C96D0B",
"D. c #C26707",
"F. c #C46D11",
"G. c #CE700D",
"H. c #C67117",
"J. c #D16F07",
"K. c #D37107",
"L. c #D47108",
"P. c #D27616",
"I. c #CC7A24",
"U. c #C67824",
"Y. c #CA7D7D",
"T. c #FA4443",
"R. c #FA5453",
"E. c #FB777C",
"W. c #FA6468",
"Q. c #905382",
"!. c #9269A5",
"~. c #B4B300",
"^. c #BEBD00",
"/. c #CA8336",
"(. c #EAAD00",
"). c #E9A119",
"_. c #CC8B45",
"`. c #CC9457",
"'. c #C39763",
"]. c #CCA06E",
"[. c #C8A478",
"{. c #C9C800",
"}. c #D6D600",
"|. c #DCDC00",
" X c #DDDD16",
".X c #DFDF28",
"XX c #ECEC02",
"oX c #EEED0A",
"OX c #E2E210",
"+X c #F0EF01",
"@X c #F9EB00",
"#X c #F4F300",
"$X c #F9F701",
"%X c #FEFE00",
"&X c #FFFF11",
"*X c #FCFC1D",
"=X c #E4E322",
"-X c #FFFF25",
";X c #FFFF2A",
":X c #FEFE52",
">X c #FEEE73",
",X c #FFFF67",
"<X c #FFFF71",
"1X c #FFFF7D",
"2X c #8085A1",
"3X c #9398B6",
"4X c #9DA2AE",
"5X c #B5B6B6",
"6X c #B7B9B6",
"7X c #B8BAB6",
"8X c #BABDBB",
"9X c #A3A7A9",
"0X c #8A908E",
"qX c #8B8ED3",
"wX c #9296CE",
"eX c #9AEFA4",
"rX c #BFC0BD",
"tX c #CE888C",
"yX c #CCAC86",
"uX c #CEB090",
"iX c #DDB282",
"pX c #D2B59C",
"aX c #DCA4A4",
"sX c #DEB8B7",
"dX c #FD8A8D",
"fX c #FD9799",
"gX c #FAA1A1",
"hX c #FBB5B5",
"jX c #C7BAC0",
"kX c #D2D489",
"lX c #DDC7AE",
"zX c #DDC7BA",
"xX c #E5C39C",
"cX c #E0C9AB",
"vX c #EBD2B4",
"bX c #CCCECB",
"nX c #C5C7C3",
"mX c #CED1CD",
"MX c #D5CEC3",
"NX c #D8CEC0",
"BX c #D3D3CD",
"VX c #D4D6D3",
"CX c #D6D9D6",
"ZX c #D8DAD6",
"AX c #DADDDA",
"SX c #DFE3DF",
"DX c #E0C9C6",
"FX c #E5D4CF",
"GX c #FECACA",
"HX c #FEDCDB",
"JX c #F1E1CC",
"KX c #F5EBDD",
"LX c #FAEAE3",
"PX c #F9F5EC",
"IX c #FFFFF7",
"UX c #FEFFFC",
"YX c None",
/* pixels */
"YXYXYXYXYXYXYXYXYXYXYXYXYXYXYXYXYXYXYXYXYXYXYXYXYXYXYXYXYXYXYXYX",
"YXYXYXYXYXYXYXYXYXYXYXYXYXYXYXYXYXYXYXYXYXYXYXYXYXYXYXYXYXYXYXYX",
"YXYXYXYXYXYXYXYXYXYXYXYXYXYXYXYXYXYXYXYXYXYXYXYXYXYXYXYXYXYXYXYX",
"YXYXYXYXYXYXYXYXYXYX}.|.}.{.~.~.{.{.|.+X$XYXYXYXYXYXYXYXYXYXYXYX",
"YXYXYXYXYXYXYXYXYXYX#X#XXX X.XOX=XXX#X$X%XYXYXYXYXYXYXYXYXYXYXYX",
"YXYXYXYXYXYXYX  # $ @  XoX-X:X,X<X&X%X%X%XYXYXYXYXYXYXYXYXYXYXYX",
"YXYXYXYXYX; ; - % % % & y j 2XkX1X*X%X%X%XYXYXYXYXYXYXYXYXYXYXYX",
"YXYXYXYXYX; ; ; : 7 9 0 6 2 3 9X1X-X%X%X%XYXYXYXYXYXYXYXYXYXYXYX",
"YXYXYXYXYX< < < 5 0 e k 8 4 3 4X1X;X%X%X%XYXYXYXYXYXYXYXYXYXYXYX",
"X z v v v x * > , 0 w a q 4 4 3X1X;X%X%X%XYXYXYXYXYXYXYXYXYXYXYX",
"C b v v b v b x n ;.p a q 4 2 3X>X).(.@X%XYXYXYXYXYXYXYXYXYXYXYX",
"C C V G J / ( Q P ! i a w 4 1 Q.C.r.r.g.4.>.>.YXYXYXYXYXYXYXYXYX",
"Z Z W o.*.*.%._ R T d a r = 6.e.w.w.w.w.1.>.>.>.<.YXYXYXYXYXYXYX",
"Z Z F X.-.*.*.o.R Y u h 7.3.w.w.w.w.w.w.w.w.<.>.>.>.YXYXYXYXYXYX",
"Z Z F  .*.-.*.+.E R O 3.w.w.w.w.w.w.w.w.w.w.t.d.1.>.>.:.YXYXYXYX",
"Z Z F [ *.*.%.+.E R + e.w.w.w.w.w.w.w.w.t.h.c.x.l.p.1.<.,.YXYXYX",
"Z Z D ` $.-.*.+.E R M 5.w.w.w.w.w.w.y.s.z.x.x.x.x.x.z.a.e.<.o YX",
"Z Z A ` #.-.*.+.E R N 7.w.w.w.1.r.s.b.n.x.x.x.x.x.x.x.x.z.h.p.i.",
"Z Z S ' O.-.*.@.R I { g 2.w.1.u.v.n.x.x.x.z.x.x.m.m.M.B.V.M.c.j.",
"YXZ C / @.-.*.o.R I } i 8.d.f.N.M.B.T.R.W.E.dXfXgXhXGXHXLXLXk.x.",
"YXZ Z F @.*.*...R I H s !.tXtXaXsXNXFXzXpXuXyX[.'.cXUXUXUXUXYXYX",
"YXZ Z D  .*.*...R I ~ s wXrX5XbXZXAXSX].G.F.Z.9.9.iXUXUXUXUXYXYX",
"YXZ Z A  .%.-._ I I ! f qX5X8XbXCXAXAX`.L.G.S.D.Z.xXUXUXUXUXYXYX",
"YXZ Z A  .%.*._ I R T d l 5X8XbXVXZXZX`.L.S.F.D.F.vXUXUXUXUXYXYX",
"YXYXZ A  .&.*._ I R Y t k 5X8XbXVXZXVX_.L.G.A.0.H.JXUXUXUXUXYXYX",
"YXYXZ A ` O.*.) I I Y m jX7X8XbXVXZXMX/.L.S.Z.0.U.LXUXUXUXYXYXYX",
"YXYXYXS / ] _ E I I YXYXYX5XrXbXbXVXMXI.L.S.0.0./.PXUXUXUXYXYXYX",
"YXYXYXYXK I I YXYXYXYXYXYX5XzXnXmXVXNXI.L.S.0.0._.IXUXUXUXYXYXYX",
"YXYXYXYXYXYXYXYXYXYXYXYXYX0XbXbXmXVXNXP.L.A.0.0.H.KXUXIXYXYXYXYX",
"YXYXYXYXYXYXYXYXYXYXYXYXYXYXZXZXVXAXlXP.J.A.0.q.YXYXYXYXYXYXYXYX",
"YXYXYXYXYXYXYXYXYXYXYXYXYXYXYXYXYXYXYXYXYXYXYXYXYXYXYXYXYXYXYXYX",
"YXYXYXYXYXYXYXYXYXYXYXYXYXYXYXYXYXYXYXYXYXYXYXYXYXYXYXYXYXYXYXYX"
};
