/* XPM */
static char *qlandkarte__[] = {
/* columns rows colors chars-per-pixel */
"16 16 124 2",
"   c #3E5857",
".  c #294464",
"X  c #2B4667",
"o  c #304E6B",
"O  c #365670",
"+  c #3B5B72",
"@  c #385874",
"#  c #3C5C74",
"$  c #3C5D74",
"%  c #3D5E74",
"&  c #406069",
"*  c #406375",
"=  c #416475",
"-  c #416476",
";  c #446776",
":  c #7EAC73",
">  c #8ABB76",
",  c #83B47A",
"<  c #8CBD7F",
"1  c #8EC27E",
"2  c #93C677",
"3  c #92C67F",
"4  c #96CB7C",
"5  c #9ACE7D",
"6  c #9FD579",
"7  c #A0D678",
"8  c #102E8D",
"9  c #1438B1",
"0  c #163DB6",
"q  c #163CB7",
"w  c #183EB6",
"e  c #294A89",
"r  c #4D7AA1",
"t  c #486CB8",
"y  c #1D44C8",
"u  c #1C45D1",
"i  c #1A44D4",
"p  c #1A45D7",
"a  c #1D47D6",
"s  c #1844D9",
"d  c #1845DA",
"f  c #1946DC",
"g  c #1946DD",
"h  c #1946DE",
"j  c #1946DF",
"k  c #1C48DE",
"l  c #2045C6",
"z  c #2348C5",
"x  c #2A4EC4",
"c  c #284CC7",
"v  c #2550C8",
"b  c #3458CF",
"n  c #244FDF",
"m  c #2B51D4",
"M  c #375BD4",
"N  c #1946E0",
"B  c #1947E0",
"V  c #1947E1",
"C  c #1947E2",
"Z  c #1A49E7",
"A  c #1C4CE7",
"S  c #1C4DEC",
"D  c #1C4EEF",
"F  c #1C4EF0",
"G  c #2551EA",
"H  c #2C58EE",
"J  c #325BE7",
"K  c #305CEF",
"L  c #2151F0",
"P  c #2352F0",
"I  c #2554F2",
"U  c #2656F6",
"Y  c #2757FA",
"T  c #325FF4",
"R  c #3B61E1",
"E  c #3E64E4",
"W  c #3F66E7",
"Q  c #3F66E8",
"!  c #3D65EA",
"~  c #3C64EE",
"^  c #3F68EE",
"/  c #3562F6",
"(  c #3663F8",
")  c #3664FA",
"_  c #3263FF",
"`  c #3463FD",
"'  c #3265FE",
"]  c #3664FE",
"[  c #3F6AF9",
"{  c #3A69FE",
"}  c #447DDE",
"|  c #4068EB",
" . c #4068EE",
".. c #4973EA",
"X. c #4068F0",
"o. c #406AF3",
"O. c #406AF7",
"+. c #68968C",
"@. c #5282AC",
"#. c #5D91AD",
"$. c #5184BE",
"%. c #628EBF",
"&. c #5487C0",
"*. c #5E8DC0",
"=. c #568ECC",
"-. c #6997C0",
";. c #6E9CC4",
":. c #6C9EE1",
">. c #88B786",
",. c #8CBE82",
"<. c #8CBE8A",
"1. c #86BB93",
"2. c #86BC92",
"3. c #88BE92",
"4. c #8FC483",
"5. c #8CC28F",
"6. c #8EC58E",
"7. c #90C481",
"8. c #9ACF86",
"9. c #91C88C",
"0. c #9CD280",
"q. c #8BC090",
"w. c #8DC495",
"e. c None",
/* pixels */
"e.e.e.e.e.e.Y U I P e.e.e.e.e.e.",
"e.e.e.e._ ` ) ( / T H G e.e.e.e.",
"e.e.' { [ o.X. . .^ ~ J n k e.e.",
"e.e.] O.| Q Q Q Q Q Q R m a e.e.",
"e.L K ! W Q Q Q Q Q E M c u h e.",
"e.} &.*.%.-.;...:.t b x l p V e.",
"=.7 1 7.3 < 8.>.<.  z y i N C h ",
"#.4 8 q 0 w @.5 : & A S D F F Z ",
"$.6 ,.3.2.1.4.0., > 5.q.9.6.w.r ",
"s e O ; * = +.2 . + $ - @ % # X ",
"e.C C C C C v o 9 C C C C C B e.",
"e.C C C C C C C C C C C C C f e.",
"e.e.C C C C C C C C C C C j e.e.",
"e.e.V V C C C C C C C C j d e.e.",
"e.e.e.e.B C C C C C B f e.e.e.e.",
"e.e.e.e.e.e.h h h g e.e.e.e.e.e."
};
