/* XPM */
static char * tleenx2_xpm[] = {
"32 32 423 2",
"  	c None",
". 	c #124A77",
"+ 	c #145384",
"@ 	c #165589",
"# 	c #145383",
"$ 	c #145182",
"% 	c #155486",
"& 	c #16578B",
"* 	c #16578C",
"= 	c #16588C",
"- 	c #16578A",
"; 	c #155385",
"> 	c #145181",
", 	c #1F314E",
"' 	c #24385A",
") 	c #213F66",
"! 	c #20446D",
"~ 	c #20446E",
"{ 	c #214571",
"] 	c #214570",
"^ 	c #1F436B",
"/ 	c #1F4169",
"( 	c #1E3C60",
"_ 	c #1F3251",
": 	c #1E3B5F",
"< 	c #25395C",
"[ 	c #55678D",
"} 	c #54668C",
"| 	c #53668C",
"1 	c #52658C",
"2 	c #51658C",
"3 	c #51648B",
"4 	c #50638B",
"5 	c #4F638B",
"6 	c #4F628B",
"7 	c #4E628B",
"8 	c #4D618B",
"9 	c #4C608A",
"0 	c #4B5F8A",
"a 	c #4B5F8B",
"b 	c #2D4063",
"c 	c #183454",
"d 	c #0C3554",
"e 	c #1D4874",
"f 	c #263B5F",
"g 	c #B2BFE7",
"h 	c #AEBCE4",
"i 	c #ACBAE4",
"j 	c #AAB8E3",
"k 	c #A7B6E3",
"l 	c #A5B5E2",
"m 	c #A3B3E2",
"n 	c #A1B1E1",
"o 	c #9FAFE1",
"p 	c #9DAEE0",
"q 	c #9AACE0",
"r 	c #99AADF",
"s 	c #96A8DF",
"t 	c #94A7DE",
"u 	c #93A7E0",
"v 	c #455880",
"w 	c #1A395C",
"x 	c #11436C",
"y 	c #1D4D7B",
"z 	c #B6C3E7",
"A 	c #B2BFE5",
"B 	c #B0BDE5",
"C 	c #ABB9E3",
"D 	c #A8B7E2",
"E 	c #A6B4E1",
"F 	c #A4B3E1",
"G 	c #A1B1E0",
"H 	c #9FB0E0",
"I 	c #9DAEDF",
"J 	c #9BACDF",
"K 	c #99AADE",
"L 	c #97A9DE",
"M 	c #96A9DF",
"N 	c #465980",
"O 	c #1B3A5D",
"P 	c #124874",
"Q 	c #145081",
"R 	c #16588E",
"S 	c #1E4D7D",
"T 	c #586A8D",
"U 	c #56688D",
"V 	c #55678C",
"W 	c #7283AA",
"X 	c #ACBAE3",
"Y 	c #A9B7E2",
"Z 	c #A7B6E2",
"` 	c #A4B4E1",
" .	c #A2B3E1",
"..	c #A0B1E3",
"+.	c #9EAFE2",
"@.	c #9BADE0",
"#.	c #99ABE0",
"$.	c #475A81",
"%.	c #1B3A5E",
"&.	c #124977",
"*.	c #155589",
"=.	c #155689",
"-.	c #145080",
";.	c #16588D",
">.	c #175990",
",.	c #1B5184",
"'.	c #20416A",
").	c #495B7F",
"!.	c #57698D",
"~.	c #7585AA",
"{.	c #B0BDE4",
"].	c #ADBAE3",
"^.	c #ABB9E2",
"/.	c #A7B5E2",
"(.	c #7888B2",
"_.	c #495C83",
":.	c #1B3B60",
"<.	c #134A79",
"[.	c #16568B",
"}.	c #134F7F",
"|.	c #16598F",
"1.	c #175A92",
"2.	c #165992",
"3.	c #15548A",
"4.	c #8E9BBC",
"5.	c #BAC5E7",
"6.	c #B8C4E7",
"7.	c #B5C1E5",
"8.	c #B3BFE4",
"9.	c #AEBCE3",
"0.	c #ABBAE3",
"a.	c #9BAAD4",
"b.	c #7E8EB7",
"c.	c #A1B2E2",
"d.	c #4B5D84",
"e.	c #1B3C62",
"f.	c #134B7B",
"g.	c #16578D",
"h.	c #155384",
"i.	c #175A91",
"j.	c #175B95",
"k.	c #185C99",
"l.	c #175C98",
"m.	c #909EBD",
"n.	c #BEC9E8",
"o.	c #BBC6E7",
"p.	c #B8C3E5",
"q.	c #B6C2E5",
"r.	c #B4C0E4",
"s.	c #B2BFE4",
"t.	c #AFBCE3",
"u.	c #AEBBE3",
"v.	c #ABBAE4",
"w.	c #A9B7E3",
"x.	c #A6B5E3",
"y.	c #A4B4E2",
"z.	c #4C5F86",
"A.	c #1C3D63",
"B.	c #134C7D",
"C.	c #16588F",
"D.	c #145281",
"E.	c #155587",
"F.	c #175A93",
"G.	c #185C96",
"H.	c #185D9B",
"I.	c #185D9C",
"J.	c #4A5D7F",
"K.	c #5B6E93",
"L.	c #9FADD0",
"M.	c #BBC6E6",
"N.	c #B9C5E6",
"O.	c #B7C3E5",
"P.	c #B1BEE4",
"Q.	c #AAB8E2",
"R.	c #A8B7E3",
"S.	c #4E6087",
"T.	c #1C3E64",
"U.	c #144D7E",
"V.	c #165990",
"W.	c #175B94",
"X.	c #185C98",
"Y.	c #185E9C",
"Z.	c #185E9E",
"`.	c #4C5E7F",
" +	c #5C6D8E",
".+	c #A1ADCA",
"++	c #BFC9E7",
"@+	c #BDC8E7",
"#+	c #BBC5E6",
"$+	c #B9C4E6",
"%+	c #B7C2E5",
"&+	c #506289",
"*+	c #1D3E67",
"=+	c #144D7F",
"-+	c #175992",
";+	c #175991",
">+	c #185D99",
",+	c #185F9D",
"'+	c #185F9F",
")+	c #97A3BF",
"!+	c #C8D0EA",
"~+	c #C5CEE9",
"{+	c #C2CCE8",
"]+	c #C0CAE8",
"^+	c #BEC8E7",
"/+	c #BCC7E7",
"(+	c #BAC5E6",
"_+	c #B8C4E6",
":+	c #B3C0E5",
"<+	c #AFBDE4",
"[+	c #AFBCE5",
"}+	c #516389",
"|+	c #1D3F68",
"1+	c #144D80",
"2+	c #16568A",
"3+	c #124A75",
"4+	c #175B96",
"5+	c #185D9A",
"6+	c #195F9E",
"7+	c #185FA0",
"8+	c #99A4BF",
"9+	c #CAD2EA",
"0+	c #C9D1E9",
"a+	c #C6CFE9",
"b+	c #C4CDE8",
"c+	c #C2CBE8",
"d+	c #C0CAE7",
"e+	c #BCC6E6",
"f+	c #B4C1E5",
"g+	c #A3B1D8",
"h+	c #4D6086",
"i+	c #1E4068",
"j+	c #144E81",
"k+	c #175A94",
"l+	c #195F9F",
"m+	c #9BA6BF",
"n+	c #CDD5EA",
"o+	c #CCD4EA",
"p+	c #C7D0E9",
"q+	c #C5CEE8",
"r+	c #C3CDE8",
"s+	c #C1CBE7",
"t+	c #BCC7E6",
"u+	c #BAC6E6",
"v+	c #B8C4E5",
"w+	c #B9C4E7",
"x+	c #45587D",
"y+	c #304469",
"z+	c #1E416A",
"A+	c #16598E",
"B+	c #9EA8C0",
"C+	c #D1D8EB",
"D+	c #CFD6EB",
"E+	c #CDD4EA",
"F+	c #CBD3EA",
"G+	c #C5CDE8",
"H+	c #C3CCE8",
"I+	c #BDC8E9",
"J+	c #1C3D65",
"K+	c #174573",
"L+	c #155187",
"M+	c #175A95",
"N+	c #A0AAC0",
"O+	c #D4DBEC",
"P+	c #D2D9EC",
"Q+	c #D0D7EB",
"R+	c #CED6EB",
"S+	c #C8D0E9",
"T+	c #C1CBEA",
"U+	c #18406A",
"V+	c #144E82",
"W+	c #165791",
"X+	c #185D98",
"Y+	c #185E9D",
"Z+	c #A3ADC1",
"`+	c #D8DDED",
" @	c #D7DCED",
".@	c #D4DAEC",
"+@	c #D0D6EB",
"@@	c #CED5EB",
"#@	c #CCD3EA",
"$@	c #C4CEEA",
"%@	c #18416C",
"&@	c #15548C",
"*@	c #185C97",
"=@	c #185E9B",
"-@	c #A5AEC1",
";@	c #DBE0EE",
">@	c #DADFED",
",@	c #D7DDED",
"'@	c #D5DBEC",
")@	c #D3D9EC",
"!@	c #D0D7EC",
"~@	c #C8D1E9",
"{@	c #C8D1EB",
"]@	c #19416C",
"^@	c #15538B",
"/@	c #155688",
"(@	c #A7B0C2",
"_@	c #DFE3EF",
":@	c #DEE2EE",
"<@	c #D9DEED",
"[@	c #D2D8EC",
"}@	c #274372",
"|@	c #9AA7C4",
"1@	c #CBD4EB",
"2@	c #CDD5ED",
"3@	c #18416B",
"4@	c #155389",
"5@	c #155383",
"6@	c #145283",
"7@	c #175B93",
"8@	c #AAB2C2",
"9@	c #E2E6EF",
"0@	c #E1E5EF",
"a@	c #DCE1EE",
"b@	c #DADFEE",
"c@	c #D8DEED",
"d@	c #9FACC5",
"e@	c #7688AA",
"f@	c #61769B",
"g@	c #60759B",
"h@	c #5F759B",
"i@	c #5F759C",
"j@	c #155287",
"k@	c #165689",
"l@	c #145180",
"m@	c #155588",
"n@	c #ACB4C3",
"o@	c #E6E9F0",
"p@	c #E5E7F0",
"q@	c #E2E5EF",
"r@	c #E0E4EF",
"s@	c #DCE1EF",
"t@	c #DCE0EF",
"u@	c #8C9BB8",
"v@	c #64789C",
"w@	c #637699",
"x@	c #637698",
"y@	c #184069",
"z@	c #145185",
"A@	c #145485",
"B@	c #13507F",
"C@	c #AEB6C3",
"D@	c #EAECF1",
"E@	c #E8EAF1",
"F@	c #E5E8F0",
"G@	c #E3E7F0",
"H@	c #DDE1EE",
"I@	c #DCE0EE",
"J@	c #D9DDED",
"K@	c #DADFEF",
"L@	c #183F67",
"M@	c #145083",
"N@	c #134F7D",
"O@	c #15568A",
"P@	c #165890",
"Q@	c #B1B8C4",
"R@	c #EEEEF2",
"S@	c #ECEDF2",
"T@	c #E9EBF1",
"U@	c #E7EAF1",
"V@	c #E3E6F0",
"W@	c #E1E4EF",
"X@	c #DBDFEE",
"Y@	c #DADFF0",
"Z@	c #173E66",
"`@	c #134F80",
" #	c #155283",
".#	c #B3B9C4",
"+#	c #F1F1F3",
"@#	c #EFF0F2",
"##	c #ECEEF2",
"$#	c #E4E7F0",
"%#	c #DDE2F0",
"&#	c #173E65",
"*#	c #134E7E",
"=#	c #A6AFBE",
"-#	c #DFE3EA",
";#	c #DEE2E9",
">#	c #DCE0E8",
",#	c #DADEE7",
"'#	c #D8DDE6",
")#	c #D6DBE6",
"!#	c #D4D9E5",
"~#	c #D2D7E4",
"{#	c #D0D6E4",
"]#	c #CED5E3",
"^#	c #CCD2E2",
"/#	c #CDD4E4",
"(#	c #173D63",
"_#	c #134D7B",
":#	c #145586",
"<#	c #465979",
"[#	c #546786",
"}#	c #546685",
"|#	c #536584",
"1#	c #526584",
"2#	c #526483",
"3#	c #516383",
"4#	c #516382",
"5#	c #506282",
"6#	c #4F6281",
"7#	c #4F6181",
"8#	c #173D61",
"9#	c #124B76",
"0#	c #203657",
"a#	c #1E3A5C",
"b#	c #1F3E63",
"c#	c #1F3E64",
"d#	c #1F3D62",
"e#	c #1C3B5E",
"f#	c #113657",
"g#	c #10436A",
"h#	c #124872",
"i#	c #124B78",
"j#	c #134B78",
"k#	c #134B79",
"l#	c #134C79",
"m#	c #124B77",
"n#	c #104269",
"o#	c #114872",
"p#	c #145284",
"                                                                ",
"                          . + @ @ # .                           ",
"                    $ % & * * = * * & - ; >                     ",
"              , ' ) ! ! ~ ~ ~ ~ ~ { ] ~ ^ / ( _                 ",
"            : < [ } | 1 2 3 4 5 6 7 8 8 9 0 a b c d             ",
"            e f g h i j k l m n o p q r s t u v w x             ",
"          ; y f z A B h C D E F G H I J K L M N O P Q           ",
"        & R S f T U U V W X Y Z `  .n ..+.@.#.$.%.&.*.=.        ",
"      -.;.>.,.'.f ).T !.~.{.].^.D /.(.f f f +._.:.<.[.& }.      ",
"      *.|.1.2.3.f 4.5.6.7.8.{.9.0.j a.b.b.b.c.d.e.f.g.g.%       ",
"    h.;.i.j.k.l.f m.n.o.p.q.r.s.t.u.X v.w.x.y.z.A.B.C.R - D.    ",
"    E.R F.G.H.I.f J.K.L.M.N.O.7.s.P.9.X Q.D R.S.T.U.V.V.* h.    ",
"    * >.W.X.Y.Z.f `. +.+++@+#+$+%+7.s.{.u.X v.&+*+=+-+;+;.=.    ",
"  . g.;+j.>+,+'+f )+!+~+{+]+^+/+(+_+7.:+P.<+[+}+|+1+F.1.R 2+3+  ",
"  + ;.i.4+5+6+7+f 8+9+0+a+b+c+d+^+e+$+O.7.f+g+h+i+j+k+F.R 2+D.  ",
"  @ ;.i.4+5+l+7+f m+n+o+0+p+q+r+s+++t+u+v+w+x+y+z+j+k+F.A+& %   ",
"  @ ;.i.4+5+6+7+f B+C+D+E+F+0+p+G+H+d+++t+I+f J+K+L+M+F.A+- %   ",
"  # g.;+j.>+6+'+f N+O+P+Q+R+o+9+S+a+r+c+++T+f U+V+W+j.F.R 2+D.  ",
"  . * >.j.X+Y+Z.f Z+`+ @.@P++@@@#@9+p+~+H+$@f %@&@4+4+1.;.=.3+  ",
"    & |.F.*@=@Y+f -@;@>@,@'@)@Q+!@R+9+~@a+{@f ]@^@4+W.>.= /@    ",
"    % ;.1.j.>+5+f (@_@:@;@<@,@[@}@|@!@@@1@2@f 3@4@k+F.|.& 5@    ",
"    6@* >.7@*@l.f 8@9@0@:@a@b@c@d@e@f@g@h@i@f U+j@2.;+;.k@l@    ",
"      m@R ;+j.4+f n@o@p@q@r@:@s@t@u@v@v@w@x@f y@z@C.R & A@      ",
"      B@* |.1.F.f C@D@E@F@G@0@_@H@s@I@b@J@K@f L@M@g.= k@N@      ",
"        O@* |.P@f Q@R@S@T@U@F@V@W@_@a@X@`+Y@f Z@`@O@2+E.        ",
"           #= g.f .#+#@###D@E@o@$#9@_@:@;@%#f &#*#m@>           ",
"             #=.f =#-#;#>#,#'#)#!#~#{#]#^#/#f (#_#B@            ",
"              :#f <#[#}#}#|#1#2#3#4#5#6#7#7#f 8#9#              ",
"                0#a#b#b#c#c#c#c#c#c#c#b#b#d#e#f#                ",
"                    g#h#i#j#k#l#l#j#i#m#h#n#                    ",
"                          o#B@p#p#B@o#                          ",
"                                                                "};
