/* XPM */
static const char * vipec_xpm[] = {
"32 32 3 1",
" 	c #000000000000",
".	c #DFDFDEDEDDDD",
"X	c #00000000FFFF",
"                                ",
" .............................. ",
" ......... .................... ",
" ...  .  ...    .    ..   ..... ",
" .... . .. .. .. . ... ... .... ",
" .... . .. ..   ..  .. ........ ",
" ..... ... .. .... ... ... .... ",
" ..... ... .  ...    ..   ..... ",
" .............................. ",
" .............................. ",
" .............................. ",
" ............XXXXXX............ ",
" .......XXXXXXXXXXXXXXX........ ",
" .......X....XXXXXX...X........ ",
" .......X.............X........ ",
" .......X.............X........ ",
" .......X....X........X........ ",
" ..X....X....XXX......X.....X.. ",
" .XXX...X....XXXXX....X....XXX. ",
" XXXXXXXXXXXXXXXXXXXXXXXXXXXXXX ",
" .XXX........XXXXX....X....XXX. ",
" ..X.........XXX......X.....X.. ",
" ............X.......XXX....... ",
" ....................XXX....... ",
" ....................XXX....... ",
" ....................XXX....... ",
" ....................XXX....... ",
" .....................X........ ",
" ...................XXXXX...... ",
" .....................X........ ",
" .............................. ",
"                                "};
