/* XPM */
static char * bum_xpm[] = {
"32 32 524 2",
"  	c None",
". 	c #212424",
"+ 	c #323536",
"@ 	c #333737",
"# 	c #1F2122",
"$ 	c #202222",
"% 	c #2F3131",
"& 	c #383C3C",
"* 	c #3A3D3D",
"= 	c #404443",
"- 	c #5D6363",
"; 	c #727A7A",
"> 	c #7D8383",
", 	c #848C8B",
"' 	c #909A99",
") 	c #9DA7A7",
"! 	c #9EA8A9",
"~ 	c #4A5050",
"{ 	c #454848",
"] 	c #7B8081",
"^ 	c #868C8D",
"/ 	c #7E8484",
"( 	c #777D7D",
"_ 	c #788080",
": 	c #7E8585",
"< 	c #798181",
"[ 	c #757E7F",
"} 	c #6E787B",
"| 	c #687377",
"1 	c #636F74",
"2 	c #5F6D73",
"3 	c #5D6C73",
"4 	c #758186",
"5 	c #9EA8A8",
"6 	c #505758",
"7 	c #696E6E",
"8 	c #3C4850",
"9 	c #42535C",
"0 	c #475964",
"a 	c #4D5F6B",
"b 	c #546B7A",
"c 	c #506877",
"d 	c #496171",
"e 	c #4E6172",
"f 	c #6C5361",
"g 	c #555262",
"h 	c #334E62",
"i 	c #2F4B5F",
"j 	c #2C485D",
"k 	c #586A77",
"l 	c #A0AAA9",
"m 	c #525C5C",
"n 	c #0F1111",
"o 	c #2A2C2C",
"p 	c #5C6365",
"q 	c #4C6474",
"r 	c #577080",
"s 	c #5D7585",
"t 	c #617787",
"u 	c #6F7A83",
"v 	c #9B776C",
"w 	c #BA6C4E",
"x 	c #B67367",
"y 	c #D22A2C",
"z 	c #9F3941",
"A 	c #344C60",
"B 	c #2D485D",
"C 	c #2A455A",
"D 	c #6C7C87",
"E 	c #9CA6A6",
"F 	c #4F5959",
"G 	c #171C1C",
"H 	c #2E3131",
"I 	c #546065",
"J 	c #536C7D",
"K 	c #6A7E8C",
"L 	c #908D7F",
"M 	c #D3A263",
"N 	c #D68053",
"O 	c #EC6028",
"P 	c #E47349",
"Q 	c #D15445",
"R 	c #B26257",
"S 	c #364E5F",
"T 	c #2B465B",
"U 	c #264155",
"V 	c #70818A",
"W 	c #99A3A3",
"X 	c #485252",
"Y 	c #202727",
"Z 	c #424647",
"` 	c #51616A",
" .	c #546D7D",
"..	c #5D7383",
"+.	c #7C878A",
"@.	c #CC9A51",
"#.	c #EB9A2C",
"$.	c #A2886B",
"%.	c #7E6C6B",
"&.	c #8A6C64",
"*.	c #CE6840",
"=.	c #E95E27",
"-.	c #686265",
";.	c #29455A",
">.	c #243E53",
",.	c #7A8992",
"'.	c #919C9C",
").	c #424C4C",
"!.	c #262E2E",
"~.	c #0C0E0E",
"{.	c #5F6769",
"].	c #455965",
"^.	c #516A7B",
"/.	c #897773",
"(.	c #D1805A",
"_.	c #E39944",
":.	c #C59146",
"<.	c #5E6D73",
"[.	c #425D6E",
"}.	c #3E586B",
"|.	c #7E635C",
"1.	c #DD6437",
"2.	c #A07366",
"3.	c #264257",
"4.	c #243F53",
"5.	c #839097",
"6.	c #869191",
"7.	c #3A4444",
"8.	c #0B0D0D",
"9.	c #1F2121",
"0.	c #687376",
"a.	c #435968",
"b.	c #4D6778",
"c.	c #AF7863",
"d.	c #F2662A",
"e.	c #D78C46",
"f.	c #B08748",
"g.	c #4D616D",
"h.	c #3B5669",
"i.	c #355064",
"j.	c #5D5461",
"k.	c #AE4F4B",
"l.	c #865D62",
"m.	c #254056",
"n.	c #263F54",
"o.	c #879399",
"p.	c #7F8989",
"q.	c #343D3D",
"r.	c #252D2D",
"s.	c #0B0E0E",
"t.	c #3D4040",
"u.	c #59666C",
"v.	c #425B6C",
"w.	c #476173",
"x.	c #616A73",
"y.	c #9C7F6F",
"z.	c #D99944",
"A.	c #D9932F",
"B.	c #757369",
"C.	c #3F5265",
"D.	c #495062",
"E.	c #9E383F",
"F.	c #D41112",
"G.	c #744B57",
"H.	c #233E54",
"I.	c #30485A",
"J.	c #939FA4",
"K.	c #788382",
"L.	c #2D3636",
"M.	c #222B2B",
"N.	c #545959",
"O.	c #4C5B64",
"P.	c #415D6F",
"Q.	c #425D6F",
"R.	c #445D6F",
"S.	c #4E636F",
"T.	c #998156",
"U.	c #E29837",
"V.	c #AE705D",
"W.	c #98343D",
"X.	c #AC3A3F",
"Y.	c #CD4240",
"Z.	c #BF3F42",
"`.	c #394457",
" +	c #213D53",
".+	c #3D5263",
"++	c #98A3A6",
"@+	c #737F7E",
"#+	c #283030",
"$+	c #202828",
"%+	c #0A0D0D",
"&+	c #6D7575",
"*+	c #3F515C",
"=+	c #3C586B",
"-+	c #3C5669",
";+	c #3A5668",
">+	c #375266",
",+	c #425765",
"'+	c #796F6B",
")+	c #A54244",
"!+	c #CF2526",
"~+	c #D55B4E",
"{+	c #F09A3E",
"]+	c #B88B52",
"^+	c #253F53",
"/+	c #1F3B51",
"(+	c #445868",
"_+	c #95A1A3",
":+	c #6D7878",
"<+	c #212929",
"[+	c #1D2424",
"}+	c #090B0B",
"|+	c #788081",
"1+	c #394F5E",
"2+	c #395568",
"3+	c #365265",
"4+	c #335064",
"5+	c #314D61",
"6+	c #2F4A5F",
"7+	c #314A5E",
"8+	c #444A5B",
"9+	c #5E4C5B",
"0+	c #746664",
"a+	c #E89B32",
"b+	c #C79954",
"c+	c #243E52",
"d+	c #1E394F",
"e+	c #99A4A6",
"f+	c #646F6F",
"g+	c #1E2626",
"h+	c #192020",
"i+	c #0D1010",
"j+	c #414545",
"k+	c #98A2A2",
"l+	c #889498",
"m+	c #7F8D94",
"n+	c #667882",
"o+	c #5D727E",
"p+	c #556B79",
"q+	c #506675",
"r+	c #455C6D",
"s+	c #3C5567",
"t+	c #364F62",
"u+	c #2F495E",
"v+	c #2A4459",
"w+	c #264157",
"x+	c #213C52",
"y+	c #1D384E",
"z+	c #6B7A84",
"A+	c #99A5A6",
"B+	c #586363",
"C+	c #1B2323",
"D+	c #101717",
"E+	c #525757",
"F+	c #A7B0B0",
"G+	c #AAB4B3",
"H+	c #A9B4B2",
"I+	c #AAB4B4",
"J+	c #A8B2B2",
"K+	c #A3ADAD",
"L+	c #9DA8A9",
"M+	c #95A2A4",
"N+	c #909DA1",
"O+	c #8A989D",
"P+	c #85949A",
"Q+	c #7C8B94",
"R+	c #748690",
"S+	c #6D7F8B",
"T+	c #697A86",
"U+	c #929DA3",
"V+	c #97A2A2",
"W+	c #182121",
"X+	c #0A0F0F",
"Y+	c #000000",
"Z+	c #070808",
"`+	c #575D5D",
" @	c #838B8B",
".@	c #95A09F",
"+@	c #8D9997",
"@@	c #8A9595",
"#@	c #8B9696",
"$@	c #909B9B",
"%@	c #96A09F",
"&@	c #96A2A1",
"*@	c #95A1A0",
"=@	c #939F9F",
"-@	c #919D9D",
";@	c #8E9B9B",
">@	c #8E9898",
",@	c #434D4D",
"'@	c #131C1C",
")@	c #070A0A",
"!@	c #313535",
"~@	c #292D2D",
"{@	c #252A2A",
"]@	c #626B6B",
"^@	c #7D8988",
"/@	c #6E7B7A",
"(@	c #4C5757",
"_@	c #444E4E",
":@	c #424B4B",
"<@	c #444E4D",
"[@	c #4B5555",
"}@	c #596464",
"|@	c #727C7C",
"1@	c #778282",
"2@	c #323B3A",
"3@	c #080B0B",
"4@	c #B4BCBC",
"5@	c #A8AFAF",
"6@	c #A4ACAC",
"7@	c #A1AAAA",
"8@	c #9BA5A5",
"9@	c #949D9D",
"0@	c #869090",
"a@	c #798383",
"b@	c #6F7A7A",
"c@	c #616B6B",
"d@	c #4F5858",
"e@	c #404A4A",
"f@	c #2F3838",
"g@	c #232B2A",
"h@	c #181F1F",
"i@	c #121919",
"j@	c #0F1515",
"k@	c #101515",
"l@	c #070909",
"m@	c #010101",
"n@	c #010202",
"o@	c #000101",
"p@	c #A2A9A9",
"q@	c #747C7C",
"r@	c #7A8383",
"s@	c #848E8E",
"t@	c #8F9898",
"u@	c #9BA4A4",
"v@	c #A5AEAE",
"w@	c #9FA7A7",
"x@	c #B6BFBF",
"y@	c #ADB8B7",
"z@	c #A6B0B0",
"A@	c #9EA9A8",
"B@	c #889292",
"C@	c #7F8A89",
"D@	c #747F7F",
"E@	c #636C6C",
"F@	c #545C5C",
"G@	c #303636",
"H@	c #191E1E",
"I@	c #030808",
"J@	c #010303",
"K@	c #A1A8A9",
"L@	c #919999",
"M@	c #7C8484",
"N@	c #697171",
"O@	c #707877",
"P@	c #9CA5A4",
"Q@	c #C2C9C9",
"R@	c #C0C8C8",
"S@	c #C2CACA",
"T@	c #ADB7B7",
"U@	c #A9B3B2",
"V@	c #A5B0B0",
"W@	c #A2ACAC",
"X@	c #9FAAA9",
"Y@	c #9BA6A6",
"Z@	c #707A79",
"`@	c #4A5252",
" #	c #4B5252",
".#	c #313939",
"+#	c #020808",
"@#	c #000202",
"##	c #A3ABAB",
"$#	c #AAB1B1",
"%#	c #BFC6C6",
"&#	c #BEC6C5",
"*#	c #BEC6C6",
"=#	c #BFC7C7",
"-#	c #ABB5B4",
";#	c #9BA7A7",
">#	c #8F9A99",
",#	c #606968",
"'#	c #484E4E",
")#	c #444B4B",
"!#	c #4F5656",
"~#	c #010606",
"{#	c #2B2D2D",
"]#	c #B2B9B9",
"^#	c #BFC5C5",
"/#	c #C9CECE",
"(#	c #CCD2D2",
"_#	c #C6CECE",
":#	c #C7CFCE",
"<#	c #C7CECE",
"[#	c #C4CBCB",
"}#	c #C0C8C7",
"|#	c #A6B1B0",
"1#	c #9FAAAA",
"2#	c #97A3A3",
"3#	c #7C8585",
"4#	c #474D4D",
"5#	c #454B4B",
"6#	c #4D5454",
"7#	c #4C5454",
"8#	c #272E2E",
"9#	c #000303",
"0#	c #686C6C",
"a#	c #9EA4A4",
"b#	c #A7ADAD",
"c#	c #A1A7A7",
"d#	c #A5ACAB",
"e#	c #A9AFAF",
"f#	c #ACB2B2",
"g#	c #B1B9B9",
"h#	c #BDC4C4",
"i#	c #B4BDBD",
"j#	c #A3AEAD",
"k#	c #9CA7A7",
"l#	c #5E6766",
"m#	c #494F4F",
"n#	c #3E4343",
"o#	c #4F5655",
"p#	c #464C4B",
"q#	c #4F5757",
"r#	c #212828",
"s#	c #6B6D6D",
"t#	c #9FA3A3",
"u#	c #BABFBF",
"v#	c #B1B8B8",
"w#	c #B6BDBD",
"x#	c #ABB3B3",
"y#	c #A5ACAC",
"z#	c #A5ADAC",
"A#	c #9FA6A6",
"B#	c #8D9595",
"C#	c #808887",
"D#	c #858F8E",
"E#	c #889192",
"F#	c #949E9E",
"G#	c #808B8B",
"H#	c #6D7777",
"I#	c #717979",
"J#	c #5D6464",
"K#	c #677070",
"L#	c #596060",
"M#	c #464F4F",
"N#	c #171D1C",
"O#	c #2F3030",
"P#	c #6D6F6F",
"Q#	c #A8ACAC",
"R#	c #CDD2D2",
"S#	c #D0D6D5",
"T#	c #C5CCCB",
"U#	c #B9BFBF",
"V#	c #ADB5B5",
"W#	c #A1A8A8",
"X#	c #A2AAAA",
"Y#	c #9FA8A7",
"Z#	c #9AA4A3",
"`#	c #8D9696",
" $	c #848D8D",
".$	c #5B6262",
"+$	c #8F9A9A",
"@$	c #A9B2B2",
"#$	c #899292",
"$$	c #768080",
"%$	c #7D8888",
"&$	c #444A4A",
"*$	c #141717",
"=$	c #373939",
"-$	c #717574",
";$	c #9B9F9F",
">$	c #B9BEBE",
",$	c #C1C7C7",
"'$	c #BDC5C5",
")$	c #B3BABA",
"!$	c #9EA7A6",
"~$	c #899393",
"{$	c #6D7675",
"]$	c #99A3A2",
"^$	c #AEB5B5",
"/$	c #8E9696",
"($	c #8E9595",
"_$	c #818C8B",
":$	c #495353",
"<$	c #0C1010",
"[$	c #646867",
"}$	c #B5BBBB",
"|$	c #C1C8C7",
"1$	c #B1BABA",
"2$	c #B5BEBE",
"3$	c #6C7575",
"4$	c #9BA4A3",
"5$	c #B0B8B8",
"6$	c #919898",
"7$	c #8D9695",
"8$	c #818B8A",
"9$	c #5D6666",
"0$	c #4E5858",
"a$	c #1C2424",
"b$	c #020404",
"c$	c #3C3E3E",
"d$	c #7D8181",
"e$	c #818787",
"f$	c #B6BEBE",
"g$	c #ADB6B6",
"h$	c #8C9594",
"i$	c #5A6161",
"j$	c #596262",
"k$	c #171E1E",
"l$	c #040908",
"m$	c #333635",
"n$	c #5F6363",
"o$	c #8D9494",
"p$	c #A7AEAE",
"q$	c #ACB4B3",
"r$	c #868E8E",
"s$	c #5A6565",
"t$	c #303939",
"u$	c #050808",
"v$	c #343535",
"w$	c #656A6A",
"x$	c #737B7A",
"y$	c #373F3F",
"                                                                ",
"                                            . + @ #             ",
"                          $ % & * = - ; > , ' ) ! ~             ",
"                  { ] ^ / ( _ : < [ } | 1 2 3 4 5 6             ",
"                  7 8 9 0 a b c d e f g h i j k l m n           ",
"                o p q r s t u v w x y z A B C D E F G           ",
"                H I J s K L M N O P Q R S T U V W X Y           ",
"                Z `  ...+.@.#.$.%.&.*.=.-.;.>.,.'.).!.~.        ",
"                {.].^./.(._.:.<.[.}.|.1.2.3.4.5.6.7.!.8.        ",
"              9.0.a.b.c.d.e.f.g.h.i.j.k.l.m.n.o.p.q.r.s.        ",
"              t.u.v.w.x.y.z.A.B.C.D.E.F.G.H.I.J.K.L.M.s.        ",
"              N.O.P.Q.R.S.T.U.V.W.X.Y.Z.`. +.+++@+#+$+%+        ",
"              &+*+=+-+;+>+,+'+)+!+~+{+]+^+/+(+_+:+<+[+}+        ",
"              |+1+2+3+4+5+6+7+8+9+0+a+b+c+d+k e+f+g+h+i+        ",
"            j+k+l+m+n+o+p+q+r+s+t+u+v+w+x+y+z+A+B+C+D+          ",
"            E+F+G+H+I+J+K+L+M+N+O+P+Q+R+S+T+U+V+F W+X+          ",
"              Y+Z+& `+ @.@+@@@#@$@%@&@*@=@-@;@>@,@'@)@          ",
"            * * !@~@{@]@^@/@B+(@_@:@<@[@}@f+|@1@2@3@            ",
"          Y+4@5@6@7@8@9@0@a@b@c@d@e@f@g@h@i@j@k@l@m@n@o@        ",
"          Y+p@q@r@s@t@u@v@w@x@y@z@A@'.B@C@D@E@F@G@H@I@J@        ",
"          Y+K@L@M@N@O@P@Q@R@S@T@U@V@W@X@Y@k+Z@`@ #.#+#@#        ",
"          Y+##$#S@%#&#*#R@=#Q@-#z@K+X@;#>#,#'#)#!#!.~#@#        ",
"          {#]#^#/#(#_#:#<#[#}#|#K+1#2#3#4#5#5#6#7#8#9#Y+        ",
"        0#a#b#c#d#e#f#p@g#h#i#j#1#k#l#m#n#o#p#!#q#r#o@Y+        ",
"    s#t#(#u#v#w#x#y#z#A#B#C#D#B@E#F#G#H#I#J#K#L#M#N#            ",
"    O#P#Q#R#S#T#U#V#W#X#Y#Z#`# $.$+$@$#$< Z@$$%$&$*$            ",
"          =$-$;$>$,$'$)$!$%@~${$]$^$/$($#$_$F@:$<$              ",
"                [$[$}$|$1$2$3$4$5$u@6$7$8$9$0$a$b$              ",
"                    Y+c$d$e$l f$g$e#h$3#i$j$k$l$                ",
"                            m$n$o$p$q$r$s$t$u$                  ",
"                                  v$w$x$y$)@                    ",
"                                                                "};
