/* XPM */
static char * gksu_debian_xpm[] = {
"32 32 551 2",
"  	c None",
". 	c #000000",
"+ 	c #939291",
"@ 	c #9E9E9C",
"# 	c #A0A09E",
"$ 	c #A1A09F",
"% 	c #A1A19F",
"& 	c #9E9E9B",
"* 	c #9D9C9A",
"= 	c #9C9C9A",
"- 	c #9B9A98",
"; 	c #9A9997",
"> 	c #989794",
", 	c #92918E",
"' 	c #8E8C89",
") 	c #8B8986",
"! 	c #878582",
"~ 	c #85837F",
"{ 	c #817F7C",
"] 	c #7D7C78",
"^ 	c #7A7874",
"/ 	c #777470",
"( 	c #3F3E3B",
"_ 	c #E6E5E1",
": 	c #D7D4CC",
"< 	c #DAD7CF",
"[ 	c #DBD8D1",
"} 	c #DDDBD3",
"| 	c #DEDCD4",
"1 	c #DEDCD5",
"2 	c #DFDCD5",
"3 	c #DEDBD4",
"4 	c #DEDAD3",
"5 	c #DCD9D2",
"6 	c #DAD7D0",
"7 	c #D9D5CD",
"8 	c #D5D2CA",
"9 	c #D2CFC7",
"0 	c #CFCBC3",
"a 	c #CBC7BF",
"b 	c #C5C1B9",
"c 	c #C0BCB3",
"d 	c #B9B5AD",
"e 	c #B4B0A8",
"f 	c #AEAAA1",
"g 	c #A8A49B",
"h 	c #A29D95",
"i 	c #9E9991",
"j 	c #55534E",
"k 	c #E7E6E2",
"l 	c #D8D5CD",
"m 	c #CBC8C0",
"n 	c #C5C2BB",
"o 	c #C7C4BD",
"p 	c #C8C5BE",
"q 	c #C7C5BE",
"r 	c #C6C3BC",
"s 	c #C5C1BA",
"t 	c #C3C0B8",
"u 	c #C1BEB6",
"v 	c #BEBCB4",
"w 	c #BBB8B0",
"x 	c #B9B5AE",
"y 	c #B5B1AA",
"z 	c #B1ADA6",
"A 	c #ACA8A0",
"B 	c #A6A29B",
"C 	c #A09C94",
"D 	c #9B988F",
"E 	c #959189",
"F 	c #918D85",
"G 	c #9E9A91",
"H 	c #9A968D",
"I 	c #514F4A",
"J 	c #E9E7E3",
"K 	c #7A7873",
"L 	c #0E0F0E",
"M 	c #161816",
"N 	c #181918",
"O 	c #191A19",
"P 	c #1A1C1A",
"Q 	c #1B1D1B",
"R 	c #1C1E1C",
"S 	c #1C1D1C",
"T 	c #1A1B1A",
"U 	c #191B19",
"V 	c #181A18",
"W 	c #171917",
"X 	c #141614",
"Y 	c #121312",
"Z 	c #101110",
"` 	c #0D0E0D",
" .	c #040404",
"..	c #A7A399",
"+.	c #959188",
"@.	c #4F4D47",
"#.	c #E8E7E3",
"$.	c #D9D5CE",
"%.	c #797772",
"&.	c #252825",
"*.	c #7F827F",
"=.	c #818481",
"-.	c #848784",
";.	c #878A87",
">.	c #858885",
",.	c #7E827E",
"'.	c #767A76",
").	c #6E726E",
"!.	c #646964",
"~.	c #5B605B",
"{.	c #505450",
"].	c #474C47",
"^.	c #434743",
"/.	c #404440",
"(.	c #3C403C",
"_.	c #373C37",
":.	c #303430",
"<.	c #2A2D2A",
"[.	c #222622",
"}.	c #0A0C0A",
"|.	c #A8A399",
"1.	c #918C83",
"2.	c #4C4A45",
"3.	c #E5E3DE",
"4.	c #777570",
"5.	c #2A2E2A",
"6.	c #A3A6A3",
"7.	c #A5A8A5",
"8.	c #A6A9A6",
"9.	c #A1A4A1",
"0.	c #989B98",
"a.	c #8F938F",
"b.	c #848884",
"c.	c #797E79",
"d.	c #6B716B",
"e.	c #616561",
"f.	c #575B57",
"g.	c #535853",
"h.	c #505550",
"i.	c #4E524E",
"j.	c #494E49",
"k.	c #424742",
"l.	c #393E39",
"m.	c #272A27",
"n.	c #0C0D0C",
"o.	c #A39D94",
"p.	c #8A867D",
"q.	c #494742",
"r.	c #E3E1DD",
"s.	c #D1CEC6",
"t.	c #75736E",
"u.	c #2E302E",
"v.	c #9D9F9D",
"w.	c #969996",
"x.	c #888C88",
"y.	c #7D817D",
"z.	c #727872",
"A.	c #676D67",
"B.	c #626762",
"C.	c #5E645E",
"D.	c #5C615C",
"E.	c #575D57",
"F.	c #555A55",
"G.	c #4F554F",
"H.	c #484C48",
"I.	c #3E433E",
"J.	c #363A36",
"K.	c #292D29",
"L.	c #9E9A8F",
"M.	c #858178",
"N.	c #46443F",
"O.	c #DFDDD9",
"P.	c #CCC9C0",
"Q.	c #72706B",
"R.	c #2E312E",
"S.	c #979997",
"T.	c #909390",
"U.	c #898D89",
"V.	c #7F847F",
"W.	c #7A807A",
"X.	c #6C736C",
"Y.	c #6A6F6A",
"Z.	c #676C67",
"`.	c #636963",
" +	c #5F655F",
".+	c #585D58",
"++	c #515751",
"@+	c #4A4F4A",
"#+	c #3D423D",
"$+	c #343934",
"%+	c #292C29",
"&+	c #99948A",
"*+	c #7F7B72",
"=+	c #43413C",
"-+	c #DCD9D5",
";+	c #C7C3BB",
">+	c #6F6C68",
",+	c #313431",
"'+	c #828582",
")+	c #7B807B",
"!+	c #787D78",
"~+	c #757B75",
"{+	c #767C76",
"]+	c #747B74",
"^+	c #717771",
"/+	c #6E746E",
"(+	c #666C66",
"_+	c #616761",
":+	c #5D635D",
"<+	c #565B56",
"[+	c #4D524D",
"}+	c #404540",
"|+	c #353A35",
"1+	c #0C0E0C",
"2+	c #948F85",
"3+	c #7A766D",
"4+	c #403E39",
"5+	c #D3D1CC",
"6+	c #C1BDB4",
"7+	c #6A6862",
"8+	c #363936",
"9+	c #787C78",
"0+	c #858985",
"a+	c #D3D5D3",
"b+	c #7D827D",
"c+	c #C1C4C1",
"d+	c #ACB1AC",
"e+	c #828882",
"f+	c #808680",
"g+	c #7D837D",
"h+	c #777E77",
"i+	c #737973",
"j+	c #6D736D",
"k+	c #686E68",
"l+	c #5F645F",
"m+	c #555B55",
"n+	c #474D47",
"o+	c #3D413D",
"p+	c #0D0F0D",
"q+	c #8E897F",
"r+	c #736F66",
"s+	c #3D3A35",
"t+	c #CFCDC7",
"u+	c #BBB7AE",
"v+	c #67645F",
"w+	c #686D68",
"x+	c #919591",
"y+	c #CED0CE",
"z+	c #D5D7D5",
"A+	c #A5AAA5",
"B+	c #858B85",
"C+	c #858C85",
"D+	c #848A84",
"E+	c #818781",
"F+	c #7C827C",
"G+	c #787E78",
"H+	c #6C726C",
"I+	c #626862",
"J+	c #2D312D",
"K+	c #8A857A",
"L+	c #6E6A61",
"M+	c #3A3733",
"N+	c #CAC7C2",
"O+	c #B3AFA6",
"P+	c #62605A",
"Q+	c #353935",
"R+	c #9C9F9C",
"S+	c #C9CBC9",
"T+	c #A9ACA9",
"U+	c #ECEDEC",
"V+	c #8A908A",
"W+	c #7F867F",
"X+	c #7D847D",
"Y+	c #797F79",
"Z+	c #6F756F",
"`+	c #535953",
" @	c #444944",
".@	c #383D38",
"+@	c #0D0D0D",
"@@	c #858075",
"#@	c #68645B",
"$@	c #373530",
"%@	c #C5C3BD",
"&@	c #AEA99F",
"*@	c #5F5C57",
"=@	c #353835",
"-@	c #949794",
";@	c #E4E5E4",
">@	c #B9BCB9",
",@	c #AFB3AF",
"'@	c #E3E4E3",
")@	c #9DA09D",
"!@	c #7F857F",
"~@	c #7E847E",
"{@	c #5D625D",
"]@	c #434843",
"^@	c #393D39",
"/@	c #817C71",
"(@	c #646057",
"_@	c #34332E",
":@	c #BFBCB6",
"<@	c #A5A197",
"[@	c #5A5852",
"}@	c #343834",
"|@	c #727772",
"1@	c #898E89",
"2@	c #AAAEAA",
"3@	c #C7C9C7",
"4@	c #7B817B",
"5@	c #777D77",
"6@	c #6F766F",
"7@	c #5E655E",
"8@	c #545A54",
"9@	c #454B45",
"0@	c #3A3F3A",
"a@	c #2C312C",
"b@	c #7D786D",
"c@	c #5E5B52",
"d@	c #31302B",
"e@	c #B9B6B0",
"f@	c #9E9A90",
"g@	c #56544E",
"h@	c #6C6E6C",
"i@	c #CFD0CF",
"j@	c #F6F6F6",
"k@	c #D0D3D0",
"l@	c #E7E7E7",
"m@	c #B6B9B6",
"n@	c #767D76",
"o@	c #6E756E",
"p@	c #686F68",
"q@	c #4F544F",
"r@	c #383C38",
"s@	c #2C2F2C",
"t@	c #797469",
"u@	c #5A574E",
"v@	c #2F2D29",
"w@	c #AEAAA3",
"x@	c #969288",
"y@	c #514F49",
"z@	c #383B38",
"A@	c #929592",
"B@	c #D2D4D2",
"C@	c #858A85",
"D@	c #DADBDA",
"E@	c #929692",
"F@	c #6C716C",
"G@	c #646B64",
"H@	c #656B65",
"I@	c #646A64",
"J@	c #606660",
"K@	c #515651",
"L@	c #484D48",
"M@	c #414741",
"N@	c #2F342F",
"O@	c #262826",
"P@	c #0B0C0B",
"Q@	c #757064",
"R@	c #555249",
"S@	c #2D2B26",
"T@	c #A7A39D",
"U@	c #8F8A81",
"V@	c #4D4B45",
"W@	c #2B2F2B",
"X@	c #9B9D9B",
"Y@	c #B4B6B4",
"Z@	c #7A7F7A",
"`@	c #DEDFDE",
" #	c #767B76",
".#	c #BFC1BF",
"+#	c #CACCCA",
"@#	c #959895",
"##	c #5A5F5A",
"$#	c #4A504A",
"%#	c #464B46",
"&#	c #313631",
"*#	c #242724",
"=#	c #726D61",
"-#	c #514D44",
";#	c #2B2824",
">#	c #9E9B93",
",#	c #878278",
"'#	c #494641",
")#	c #8C908C",
"!#	c #6D716D",
"~#	c #A2A5A2",
"{#	c #4E534E",
"]#	c #4C524C",
"^#	c #434943",
"/#	c #3F443F",
"(#	c #3B3F3B",
"_#	c #323732",
":#	c #272B27",
"<#	c #212521",
"[#	c #0A0B0A",
"}#	c #6E695D",
"|#	c #4C4940",
"1#	c #282722",
"2#	c #99958E",
"3#	c #807C71",
"4#	c #45433D",
"5#	c #0C0C0C",
"6#	c #121412",
"7#	c #131513",
"8#	c #151615",
"9#	c #151715",
"0#	c #141514",
"a#	c #131413",
"b#	c #111311",
"c#	c #111211",
"d#	c #0F100F",
"e#	c #090A09",
"f#	c #030303",
"g#	c #6C685A",
"h#	c #4B483E",
"i#	c #282721",
"j#	c #918E86",
"k#	c #787369",
"l#	c #8F8B7F",
"m#	c #9C978A",
"n#	c #9C988B",
"o#	c #9D978B",
"p#	c #9B9689",
"q#	c #9A9487",
"r#	c #979285",
"s#	c #958F82",
"t#	c #928D80",
"u#	c #8F897C",
"v#	c #8B8679",
"w#	c #888275",
"x#	c #858072",
"y#	c #827D6F",
"z#	c #807A6C",
"A#	c #7C7669",
"B#	c #7A7465",
"C#	c #787263",
"D#	c #757061",
"E#	c #736E5F",
"F#	c #726D5E",
"G#	c #5E5A4E",
"H#	c #282621",
"I#	c #8B8880",
"J#	c #726E64",
"K#	c #736E64",
"L#	c #736F64",
"M#	c #736E63",
"N#	c #726D63",
"O#	c #716C62",
"P#	c #6E6A5F",
"Q#	c #6C675C",
"R#	c #69655A",
"S#	c #666257",
"T#	c #635E54",
"U#	c #605C51",
"V#	c #5C584E",
"W#	c #5A574C",
"X#	c #575449",
"Y#	c #565348",
"Z#	c #545045",
"`#	c #524E44",
" $	c #504C42",
".$	c #555148",
"+$	c #636057",
"@$	c #56534A",
"#$	c #827F77",
"$$	c #6B675D",
"%$	c #6C685E",
"&$	c #6C685D",
"*$	c #6D685E",
"=$	c #6B675C",
"-$	c #6A655B",
";$	c #686359",
">$	c #656156",
",$	c #625E54",
"'$	c #5D594E",
")$	c #5C584D",
"!$	c #59554A",
"~$	c #585449",
"{$	c #555247",
"]$	c #545046",
"^$	c #504D43",
"/$	c #4F4B41",
"($	c #605D53",
"_$	c #48453B",
":$	c #454239",
"<$	c #2A2823",
"[$	c #6D6B63",
"}$	c #58554C",
"|$	c #59564D",
"1$	c #59554C",
"2$	c #58544C",
"3$	c #57534A",
"4$	c #545148",
"5$	c #524F46",
"6$	c #4E4A42",
"7$	c #4D4941",
"8$	c #4A473E",
"9$	c #49453D",
"0$	c #47443C",
"a$	c #46433A",
"b$	c #444138",
"c$	c #434037",
"d$	c #423F36",
"e$	c #413E35",
"f$	c #3C3931",
"g$	c #3E3B33",
"h$	c #3F3D35",
"i$	c #2B2924",
"j$	c #6D6B68",
"k$	c #686660",
"l$	c #6C6B64",
"m$	c #7F7C77",
"n$	c #878581",
"o$	c #85837E",
"p$	c #82807C",
"q$	c #7F7C78",
"r$	c #7C7976",
"s$	c #787671",
"t$	c #74726D",
"u$	c #706E69",
"v$	c #6C6A64",
"w$	c #65645E",
"x$	c #61605A",
"y$	c #5F5D57",
"z$	c #5E5C56",
"A$	c #5F5D56",
"B$	c #605C55",
"C$	c #292724",
"D$	c #1E1D1C",
"E$	c #191816",
"F$	c #1B1A18",
"G$	c #1D1D1A",
"H$	c #201F1D",
"I$	c #222220",
"J$	c #252423",
"K$	c #262523",
"L$	c #252422",
"M$	c #242321",
"N$	c #232220",
"O$	c #22211F",
"P$	c #21201E",
"Q$	c #1F1F1C",
"R$	c #1D1D1B",
"S$	c #1C1B19",
"T$	c #191916",
"U$	c #181714",
"V$	c #171614",
"W$	c #161613",
"X$	c #171613",
"Y$	c #161512",
"Z$	c #0B0A09",
"                                                                ",
"                                                                ",
"                                                                ",
"  . + @ # $ # % % % % % # & * = - ; > , ' ) ! ~ { ] ^ / (       ",
"  . _ : < [ } | 1 | 2 3 4 5 6 7 8 9 0 a b c d e f g h i j       ",
"  . k l m n o p p q o r s t u v w x y z A B C D E F G H I       ",
"  . J < K L M N O P Q Q R S Q P T U V W M X Y Z `  ...+.@..     ",
"  . #.$.%.&.*.=.-.;.>.,.'.).!.~.{.].^./.(._.:.<.[.}.|.1.2..     ",
"  . 3.8 4.5.6.7.8.9.0.a.b.c.d.e.f.g.h.i.j.k.l.:.m.n.o.p.q..     ",
"  . r.s.t.u.7.6.v.w.a.x.y.z.A.B.C.D.E.F.G.H.I.J.K.n.L.M.N..     ",
"  . O.P.Q.R.S.T.U.b.V.W.z.X.Y.Z.`. +D..+++@+#+$+%+n.&+*+=+.     ",
"  . -+;+>+,+;.'+)+!+~+{+~+]+^+/+d.(+_+:+<+[+}+|+5.1+2+3+4+.     ",
"  . 5+6+7+8+9+0+a+b+c+d+e+e+f+g+h+i+j+k+l+m+n+o+R.p+q+r+s+.     ",
"  . t+u+v+J.w+x+y+]+z+A+B+C+D+E+F+G+^+H+I+.+j.(.J+p+K+L+M+.     ",
"  . N+O+P+Q+R+S+z+T+U+c+V+E+W+X+Y+~+Z+w+:+`+ @.@<.+@@@#@$@.     ",
"  . %@&@*@=@-@;@>@,@'@)@B+!@~@F+Y+~+/+Z.{@++]@^@5.` /@(@_@.     ",
"  . :@<@[@}@|@'@1@2@3@j+~@W+!@~@4@5@6@k+7@8@9@0@a@p+b@c@d@.     ",
"  . e@f@g@h@i@j@k@;@l@m@{+h+h+n@i+o@p@I+.+q@}+r@s@` t@u@v@.     ",
"  . w@x@y@z@A@B@C@D@E@F@G@H@I@`.J@D.<+K@L@M@_.N@O@P@Q@R@S@.     ",
"  . T@U@V@W@X@Y@Z@`@I@<+ #.#+#S+@###$#%#I.l.&#W@*#}.=#-#;#.     ",
"  . >#,#'#<.)#!# +~#{#h.h.h.]#$#%#^#/#(#8+_#W@:#<#[#}#|#1#.     ",
"  . 2#3#4#5#6#6#7#8#8#8#9#8#X 0#a#b#c#d#L ` n.}.e#f#g#h#i#.     ",
"  . j#k#l#m#n#o#o#p#q#r#s#t#u#v#w#x#y#z#A#B#C#D#E#F#G#h#H#.     ",
"  . I#J#J#K#L#M#N#O#P#Q#R#S#T#U#V#W#X#Y#Z#`# $.$+$@$h#h#1#.     ",
"  . #$$$%$%$&$*$=$-$;$>$,$U#'$)$!$~${$]$`#^$/$($_$:$h#h#<$.     ",
"  . [$}$|$|$|$|$1$2$3$4$5$^$6$7$8$9$0$a$b$c$d$e$f$g$h$h$i$.     ",
"    . . j$k$l$Q.K m$~ n$o$p$q$r$s$t$u$v$w$x$y$z$A$B$C$. .       ",
"        D$E$F$G$H$I$J$K$L$M$N$O$P$Q$R$S$T$U$V$W$X$Y$Z$          ",
"                                                                ",
"                                                                ",
"                                                                ",
"                                                                "};
