/* XPM */
static char *ktoon[] = {
/* columns rows colors chars-per-pixel */
"32 32 107 2",
"   c #CF3087B43E18",
".  c #D5D38B333DB2",
"X  c #DB3D8D123E05",
"o  c #E855935D3CEE",
"O  c #EC44956E3E09",
"+  c #EFBD99DC3DA4",
"@  c #F38899DB3E51",
"#  c #FEEC9EBB3E75",
"$  c #FE22A0523F1A",
"%  c #BC58823148FF",
"&  c #B67185F0544C",
"*  c #BE368A225779",
"=  c #BDCB93C46720",
"-  c #B844944E6F2B",
";  c #B49594D973B1",
":  c #B54099AF7AEE",
">  c #B9179A977CF9",
",  c #C4778514442E",
"<  c #CDEB86954027",
"1  c #CB43885743B1",
"2  c #C164858B47EB",
"3  c #C805887348EC",
"4  c #D3A38BB84465",
"5  c #D9548FAE4595",
"6  c #D1908E7A4C50",
"7  c #DADA91254517",
"8  c #D6B694344EC5",
"9  c #DD1E96EF4F7F",
"0  c #C2FD89994FF2",
"q  c #C8728E9F5227",
"w  c #E34B939D43BD",
"e  c #E81E9832476E",
"r  c #EF59991B3FDE",
"t  c #ECCC9E8D4A11",
"y  c #F5B79B324114",
"u  c #FF179F67406E",
"i  c #F5559E6D48DE",
"p  c #E3129CA95333",
"a  c #FDBFA1974419",
"s  c #FDA3A4654B35",
"d  c #FD9DA88A4E11",
"f  c #F4ADA498562D",
"g  c #FD0AA70E5146",
"h  c #FCEFA9A055C1",
"j  c #FD60AC785C3D",
"k  c #C6BF97A96BE5",
"l  c #D4C49D6465AD",
"z  c #C37C992271C0",
"x  c #D860A361678F",
"c  c #DF02A6606AB6",
"v  c #CC45A3687798",
"b  c #C9B4A2FF7A45",
"n  c #DF25AD7D76AB",
"m  c #D583AAF47E0C",
"M  c #EC66A57F60BC",
"N  c #E4CFA7C86849",
"B  c #E4A5A9326BF5",
"V  c #ED91AC2D6AA0",
"C  c #FCECAEA56183",
"Z  c #EE7BB0AA6EEA",
"A  c #FC9BB11D6492",
"S  c #F45BB16C6E66",
"D  c #FCCCB4576C9E",
"F  c #EE2AB0CE7341",
"G  c #E9B1B41D7C4C",
"H  c #F35EB525767B",
"J  c #FC34B7027321",
"K  c #FC9FB934757D",
"L  c #FC7ABB817B25",
"P  c #BB4AA045858C",
"I  c #C1B6A38585AA",
"U  c #CAAEA97688BC",
"Y  c #D19EAC158288",
"T  c #DE08B564863F",
"R  c #D2E4B0368A2B",
"E  c #DB2BB2BF8936",
"W  c #C40DAD379633",
"Q  c #CB13B23697DC",
"!  c #D039B7E69DE6",
"~  c #D92CB923978C",
"^  c #E5A1BB0D8D97",
"/  c #F412BB9384C7",
"(  c #FC9EBEF08349",
")  c #F829BFA68A5D",
"_  c #D931BE6DA291",
"`  c #FE54C29F8608",
"'  c #FDB5C3F28A46",
"]  c #E0E3C17C9EBF",
"[  c #FA97C6E19235",
"{  c #FCA6CA94954E",
"}  c #FCBACCD09BCF",
"|  c #FB97CF00A0CF",
" . c #FDA6D222A513",
".. c #FD7DD5B0AD1F",
"X. c #FD2BDA1EB516",
"o. c #FB89DC7EBADD",
"O. c #FC9AE0CCC25F",
"+. c #FC53E35ACA1A",
"@. c #FD07E777D354",
"#. c #FBCFE8ACD370",
"$. c #FBF0EC7DD98F",
"%. c #FD86F1A3E539",
"&. c #FC8EF51CEB2F",
"*. c #FD38F825F078",
"=. c #FDE9FA10F506",
"-. c #FE14FEFAFDE8",
";. c None",
/* pixels */
";.;.;.;.;.;.;.;.;.;.;.;.X.........X.X.O.;.;.;.;.;.;.;.;.;.;.;.;.",
";.;.;.;.;.;.;.;.;...{ ( J A A A A A D L ' } X.;.;.;.;.;.;.;.;.;.",
";.;.;.;.;.;.;. .` D h s a u u # # a $ a s j L { X.;.;.;.;.;.;.;.",
";.;.;.;.;.;.{ D h a # # u u a s A D D j a $ a h L  .;.;.;.;.;.;.",
";.;.;.;.;.' j s a s g j A J L ( ' K ( ( L K D C A K } ;.;.;.;.;.",
";.;.;.;.[ J J L L L L K D C h s a # a d j K ' [ ' L ( } ;.;.;.;.",
";.;.;.[ L D K L L J C g s s s d h C A C j g s a s A C L } ;.;.;.",
";.;.{ J A C a # u s d D J C D L h s a u # # # # # j h D D  .;.;.",
";.;.D C j C a u # # a A a # u j h # # u a s g j C D K D d L ;.;.",
";.) g h L J A C h s h j # u u s A s h j A C j g s s K C a j { ;.",
";.S u s K h a s h j J A a # # g J j h s a u # # u a J j u s L ;.",
";.f u s J h # # # # a D D C A K d # u # # # # # u a J j # a C ;.",
"/ i u s D h # u u u # j s a a C s u u u s j L j # s K h # u g [ ",
"F y u s D h # u u u # j s # # j s # A X.o.+.-.` # s K h # u s / ",
"V @ u a D j # u u u u j s # # j s # ' -.%.@.-.` # s K g # u y H ",
"N @ u a D j # u u u u j s # # j s # ' -.&.%.-.L # s K d # u y Z ",
"N @ # a D j # u u u # j s # # j d # ' -.-.-.-.( # d K s # u @ F ",
"B + # a D C # u u u # j s u # j d # ' -.=.*.-.' # d K s # # @ F ",
"n O u a D C u u u u # j s u # j d # ' -.%.#.-.' # h L s u u r G ",
"T w u a D A u u u u u j s u # j g # ' -.%.O.+.D # h L a u u e ^ ",
";.9 y a D A u u u u u j s u # j g # L $.| j s u # h L a # @ p ;.",
";.l O u A D u u u u u C s # # j g # a g $ # # # # j L a u O c ;.",
";.E 7 @ D D u u a u u C s u # h g # u u a # u s j K J s @ w ^ ;.",
";.;.l w J L d a # u u C s u # h g # # # a g j C h L D a o x ;.;.",
";.;.~ 6 M L A C h a # j s # # h g u s j C j h j C j a + 8 ] ;.;.",
";.;.;.Y 6 V A h j C j J j s s A A C j g h j j d a # @ 5 E ;.;.;.",
";.;.;.;.v 4 t C C h j D h j j A D d h C j s u # u @ 5 m ;.;.;.;.",
";.;.;.;.;.b 1 o s j D J a # # C K C h a # # u u O 4 m ;.;.;.;.;.",
";.;.;.;.;.;.U 0 . + u j A C A A g u u u u u y X q R ;.;.;.;.;.;.",
";.;.;.;.;.;.;.! = 2 . o y s a # # # u y O X 3 k _ ;.;.;.;.;.;.;.",
";.;.;.;.;.;.;.;.;.W - & % ,       < < 2 * z Q ;.;.;.;.;.;.;.;.;.",
";.;.;.;.;.;.;.;.;.;.;.;.W P : ; ; > I Q ;.;.;.;.;.;.;.;.;.;.;.;."
};
