/* XPM */
static char * qdvdauthor_xpm[] = {
"32 32 415 2",
"  	c None",
". 	c #EC8138",
"+ 	c #EE9A4D",
"@ 	c #EE9C51",
"# 	c #ED843C",
"$ 	c #EC8238",
"% 	c #EE994C",
"& 	c #EC813A",
"* 	c #ED8C45",
"= 	c #F1BB72",
"- 	c #F2CE85",
"; 	c #F2CE86",
"> 	c #F1BA71",
", 	c #ED843F",
"' 	c #EE9048",
") 	c #F1BC72",
"! 	c #F0B86E",
"~ 	c #ED843E",
"{ 	c #F0AE6A",
"] 	c #F2D38F",
"^ 	c #F5E5AB",
"/ 	c #F5E6AE",
"( 	c #F2D28D",
"_ 	c #EFA55C",
": 	c #ED803A",
"< 	c #EF9A52",
"[ 	c #EE954D",
"} 	c #EB7531",
"| 	c #F0B26D",
"1 	c #F2D490",
"2 	c #F5E4AB",
"3 	c #F5E5AE",
"4 	c #F2D18A",
"5 	c #EEAF6D",
"6 	c #F2D693",
"7 	c #F8EFC4",
"8 	c #FAF5D5",
"9 	c #F4DE9E",
"0 	c #F0B36A",
"a 	c #EB6123",
"b 	c #ED8A43",
"c 	c #F1BA72",
"d 	c #F1CD88",
"e 	c #F2CC86",
"f 	c #F0B46A",
"g 	c #EC843D",
"h 	c #E94210",
"i 	c #EFB270",
"j 	c #F2D794",
"k 	c #FAF4D5",
"l 	c #F4DC9B",
"m 	c #EE9952",
"n 	c #F3D089",
"o 	c #F7EBB6",
"p 	c #F9F3CE",
"q 	c #F0AF66",
"r 	c #EA5A1F",
"s 	c #EB6729",
"t 	c #F0B16A",
"u 	c #F2D491",
"v 	c #F5E5AD",
"w 	c #F6E6AF",
"x 	c #F3D795",
"y 	c #F1B66D",
"z 	c #EC7331",
"A 	c #E9350A",
"B 	c #EE9C56",
"C 	c #F3D28B",
"D 	c #FAF4D0",
"E 	c #F4DD9B",
"F 	c #F0B167",
"G 	c #EC752C",
"H 	c #F1BE6D",
"I 	c #F6E4A8",
"J 	c #F7EBB7",
"K 	c #F3D693",
"L 	c #EF9E54",
"M 	c #EA4914",
"N 	c #EA4E17",
"O 	c #ED8A44",
"P 	c #F2C681",
"Q 	c #F3DB9A",
"R 	c #F7EBB8",
"S 	c #F9F3CF",
"T 	c #F7EAB9",
"U 	c #F3D592",
"V 	c #EFA258",
"W 	c #EA5D20",
"X 	c #EC782F",
"Y 	c #F1C071",
"Z 	c #F5E4A6",
"` 	c #F7ECBA",
" .	c #F3D58F",
"..	c #EC7027",
"+.	c #F1BE70",
"@.	c #F4E09F",
"#.	c #F2C67F",
"$.	c #EC7E39",
"%.	c #E93309",
"&.	c #E92807",
"*.	c #EB5928",
"=.	c #ED813F",
"-.	c #F1CE88",
";.	c #F3DA97",
">.	c #F5E2A2",
",.	c #FAF4D4",
"'.	c #F6E8B2",
").	c #F2C880",
"!.	c #ED8B44",
"~.	c #EA4612",
"{.	c #EC732C",
"].	c #F1BF73",
"^.	c #F4DE9D",
"/.	c #F2C67D",
"(.	c #ED873E",
"_.	c #F2CA85",
":.	c #F2D691",
"<.	c #F2D18C",
"[.	c #EFA359",
"}.	c #EA531B",
"|.	c #E92402",
"1.	c #EA4416",
"2.	c #ED894E",
"3.	c #EFAD6A",
"4.	c #F3CE8A",
"5.	c #F2D893",
"6.	c #F3D38A",
"7.	c #F1C574",
"8.	c #F4DB99",
"9.	c #F9F0C8",
"0.	c #FAF5D4",
"a.	c #F5DE9F",
"b.	c #F1B66E",
"c.	c #EC7230",
"d.	c #E92A06",
"e.	c #EE8F4A",
"f.	c #F2C984",
"g.	c #F2D692",
"h.	c #F3D28C",
"i.	c #EFA559",
"j.	c #F0AB67",
"k.	c #F1CA8B",
"l.	c #F2CD8A",
"m.	c #F1B86F",
"n.	c #EC7532",
"o.	c #E92F08",
"p.	c #E92101",
"q.	c #EB5B24",
"r.	c #EFA663",
"s.	c #F0C580",
"t.	c #F5DFA0",
"u.	c #F5E4AA",
"v.	c #F3D38C",
"w.	c #EFAF5B",
"x.	c #F2C278",
"y.	c #F6E5AD",
"z.	c #FBF6DA",
"A.	c #F8EDC0",
"B.	c #F3D08B",
"C.	c #EE9951",
"D.	c #EA4915",
"E.	c #E92002",
"F.	c #EA4E1E",
"G.	c #EFA464",
"H.	c #F1C989",
"I.	c #F2CE8A",
"J.	c #F1BA70",
"K.	c #EC7C33",
"L.	c #F0B479",
"M.	c #F1C488",
"N.	c #F1B972",
"O.	c #EA4111",
"P.	c #E91801",
"Q.	c #E92D06",
"R.	c #EC7635",
"S.	c #F1BD76",
"T.	c #F7EAB3",
"U.	c #F8F0C6",
"V.	c #F4DC9E",
"W.	c #F0AF60",
"X.	c #EFA556",
"Y.	c #F3D390",
"Z.	c #F5E2A8",
"`.	c #EB6D2D",
" +	c #E93207",
".+	c #EB5122",
"++	c #EFA56D",
"@+	c #F0C084",
"#+	c #F1BA73",
"$+	c #EE9045",
"%+	c #EA4B16",
"&+	c #EF9952",
"*+	c #F2D08C",
"=+	c #F4E2A4",
"-+	c #F8EFBD",
";+	c #FBF7DB",
">+	c #F6E9B7",
",+	c #F2C57E",
"'+	c #EE9647",
")+	c #F1B96E",
"!+	c #FBF8E1",
"~+	c #F8EFC7",
"{+	c #F4D593",
"]+	c #EE944D",
"^+	c #EA4913",
"/+	c #E94014",
"(+	c #EC7D48",
"_+	c #EE9959",
":+	c #EB712F",
"<+	c #F3DA98",
"[+	c #F5E5A8",
"}+	c #F6EBB2",
"|+	c #FAF7DC",
"1+	c #F9F2CF",
"2+	c #F4D999",
"3+	c #EFA356",
"4+	c #EFA557",
"5+	c #F3D28D",
"6+	c #FAF3D2",
"7+	c #FBF6DD",
"8+	c #F5E3A8",
"9+	c #F1B26A",
"0+	c #EB6325",
"a+	c #E93409",
"b+	c #EA5018",
"c+	c #EE984F",
"d+	c #F3D08C",
"e+	c #F4E3A6",
"f+	c #F5E1A1",
"g+	c #F5E29E",
"h+	c #F8F1C9",
"i+	c #F6E7B2",
"j+	c #F1BE75",
"k+	c #EFA150",
"l+	c #F1C278",
"m+	c #F7EAB8",
"n+	c #FBF9E4",
"o+	c #F7ECBE",
"p+	c #F2C983",
"q+	c #EC7F3B",
"r+	c #E9390C",
"s+	c #E9320A",
"t+	c #EC7C38",
"u+	c #F1BF78",
"v+	c #F5E2A6",
"w+	c #F7E9B5",
"x+	c #F3D28A",
"y+	c #F2C87C",
"z+	c #F4E0A4",
"A+	c #FAF5D9",
"B+	c #FAF6D8",
"C+	c #F3D998",
"D+	c #F0B86A",
"E+	c #F0B666",
"F+	c #F4DE9F",
"G+	c #F3D794",
"H+	c #EF9D55",
"I+	c #EA4D18",
"J+	c #EA4E18",
"K+	c #EF9D56",
"L+	c #F3D28E",
"M+	c #F8EEC2",
"N+	c #F6E7B4",
"O+	c #F1C176",
"P+	c #EFA555",
"Q+	c #F2CB86",
"R+	c #F7EABA",
"S+	c #FBF8E0",
"T+	c #F7EBBD",
"U+	c #F3D18A",
"V+	c #F1BF6D",
"W+	c #F4D994",
"X+	c #F9F2CC",
"Y+	c #FBF8E2",
"Z+	c #F4DD9F",
"`+	c #F0AC65",
" @	c #EA5C21",
".@	c #F0B56D",
"+@	c #F5E1A6",
"@@	c #F1B76B",
"#@	c #ED8838",
"$@	c #F0AD62",
"%@	c #F4DA98",
"&@	c #F9F2CE",
"*@	c #FBF6DC",
"=@	c #F6E5AC",
"-@	c #F3D387",
";@	c #F4DC94",
">@	c #F8F0C3",
",@	c #F4DEA0",
"'@	c #F0B06A",
")@	c #EA6024",
"!@	c #ED7C39",
"~@	c #F7EBBC",
"{@	c #FBF9E3",
"]@	c #F7E9B3",
"^@	c #F2C67C",
"/@	c #EE9D4D",
"(@	c #F0A958",
"_@	c #F3D188",
":@	c #F7ECB7",
"<@	c #FCFBEA",
"[@	c #FAF5D7",
"}@	c #F6E8AC",
"|@	c #F6EAAE",
"1@	c #F9F1C6",
"2@	c #F3D694",
"3@	c #EFA35D",
"4@	c #EA561E",
"5@	c #ED8641",
"6@	c #F2CC87",
"7@	c #F8EEC6",
"8@	c #FDFBEE",
"9@	c #F9F2CB",
"0@	c #F5E0A1",
"a@	c #F2CF87",
"b@	c #F3CE85",
"c@	c #F5DF9B",
"d@	c #F8F0C1",
"e@	c #FDFCEE",
"f@	c #FDFCF1",
"g@	c #FAF6D7",
"h@	c #F9F3C9",
"i@	c #F5E4AD",
"j@	c #F1C47F",
"k@	c #ED8642",
"l@	c #ED8440",
"m@	c #F2CA84",
"n@	c #F8ECC1",
"o@	c #FCFAE8",
"p@	c #F7EDBE",
"q@	c #F7EBBB",
"r@	c #F8EFC3",
"s@	c #FAF7DA",
"t@	c #FEFDF5",
"u@	c #FEFEFA",
"v@	c #FDFCF3",
"w@	c #FBF7DE",
"x@	c #F7EAB7",
"y@	c #EFA059",
"z@	c #EB5E23",
"A@	c #EC7433",
"B@	c #F1BD75",
"C@	c #FBF6DE",
"D@	c #FDFBEF",
"E@	c #FCFAEC",
"F@	c #FBFAE9",
"G@	c #FBF9E7",
"H@	c #FBFAE8",
"I@	c #FCFBEC",
"J@	c #FEFDF7",
"K@	c #F5E1A3",
"L@	c #F1B368",
"M@	c #EB6B29",
"N@	c #E93007",
"O@	c #EA581E",
"P@	c #F5E2AA",
"Q@	c #F7ECC0",
"R@	c #F8EEC5",
"S@	c #F8EFC5",
"T@	c #F8EEC4",
"U@	c #F7EDC0",
"V@	c #F8EDBE",
"W@	c #FBF9E6",
"X@	c #FAF4D6",
"Y@	c #F4D895",
"Z@	c #EE9E53",
"`@	c #EA4912",
" #	c #EC7533",
".#	c #EFA760",
"+#	c #F1C47D",
"@#	c #F3D18C",
"##	c #F3D490",
"$#	c #F3D38F",
"%#	c #F3D18D",
"&#	c #F5E2A3",
"*#	c #F9F3D2",
"=#	c #EE9953",
"-#	c #E9400F",
";#	c #EB682A",
">#	c #ED8842",
",#	c #EE9750",
"'#	c #EE9B52",
")#	c #EE9A51",
"!#	c #EE974F",
"~#	c #EE934D",
"{#	c #EE8F48",
"]#	c #EE9D4E",
"^#	c #F2C87E",
"/#	c #F6E9B4",
"(#	c #EE9652",
"_#	c #E93D0E",
":#	c #EA3D0E",
"<#	c #EA4814",
"[#	c #EA4A14",
"}#	c #EA4815",
"|#	c #EA4211",
"1#	c #EA4310",
"2#	c #EB6C28",
"3#	c #F0B46C",
"4#	c #F4DDA0",
"5#	c #F2C57F",
"6#	c #E90F00",
"7#	c #E91800",
"8#	c #EA581F",
"9#	c #EFA865",
"0#	c #F1CC89",
"a#	c #F2D08E",
"b#	c #F0B067",
"c#	c #EB6D2A",
"d#	c #EA4917",
"e#	c #EE9353",
"f#	c #F0B875",
"g#	c #F1B56F",
"h#	c #ED8841",
"                                                                ",
"                                                                ",
"                                                                ",
"      . + @ #                                       $ % @ &     ",
"    * = - ; > ,                                   ' ) - ; ! ~   ",
"    { ] ^ / ( _             : < [ }               | 1 2 3 4 _   ",
"    5 6 7 8 9 0 a         b c d e f g h           i j 7 k l f   ",
"    m n o p 9 q r       s t u v w x y z A         B C o D E F   ",
"    G H I J K L M     N O P Q R S T U V W         X Y Z `  .V   ",
"    ..+.9 @.#.$.%.&.*.=.q -.;.>.` ,.'.).!.~.      {.].^.@./.(.  ",
"    ' _.:.<.[.}.|.1.2.3.4.5.6.7.8.9.0.a.b.c.d.    e.f.g.h.i.    ",
"    j.k.l.m.n.o.p.q.r.s.t.u.v.w.x.y.z.A.B.C.D.E.F.G.H.I.J.K.    ",
"    L.M.N.b O.P.Q.R.S.x T.U.V.W.X.Y.9.z.Z.c `. +.+++@+#+$+      ",
"              P.%+&+*+=+-+;+>+,+'+)+Z.!+~+{+]+^+/+(+_+          ",
"              o.:+N.<+[+}+|+1+2+3+4+5+6+7+8+9+0+a+              ",
"              b+c+d+e+f+g+h+!+i+j+k+l+m+n+o+p+q+r+              ",
"            s+t+u+v+w+x+y+z+A+B+C+D+E+F+;+B+G+H+I+              ",
"            J+K+L+M+N+O+P+Q+R+S+T+U+V+W+X+Y+Z+`+ @              ",
"            s .@+@8 y.@@#@$@%@&@*@=@-@;@>@!+,@'@)@              ",
"            !@#.~@{@]@^@/@(@_@:@<@[@}@|@1@S 2@3@4@              ",
"            5@6@7@8@9@0@a@b@c@d@e@f@g@h@1@i@j@k@                ",
"            l@m@n@f@o@p p@q@r@s@t@u@v@w@x@L+y@z@                ",
"            A@B@Z.C@D@E@F@G@H@I@D@v@J@7+K@L@M@N@                ",
"            O@y@e P@Q@R@S@T@T@U@V@X+W@X@Y@Z@`@                  ",
"               #.#+#@#####$#%#I.x+&#9@*#U =#-#                  ",
"                ;#>#,#'#)#!#~#{#]#^#/#R@%#(#_#                  ",
"                  :#<#[#}#~.|#1#2#3#4#Z.5#5@                    ",
"                            6#7#8#9#0#a#b#c#                    ",
"                                d#e#f#g#h#                      ",
"                                                                ",
"                                                                ",
"                                                                "};
