<?xml version="1.0" encoding="UTF-8" standalone="no"?>
<!-- Created with Inkscape (http://www.inkscape.org/) -->
<svg
   xmlns:dc="http://purl.org/dc/elements/1.1/"
   xmlns:cc="http://web.resource.org/cc/"
   xmlns:rdf="http://www.w3.org/1999/02/22-rdf-syntax-ns#"
   xmlns:svg="http://www.w3.org/2000/svg"
   xmlns="http://www.w3.org/2000/svg"
   xmlns:xlink="http://www.w3.org/1999/xlink"
   xmlns:sodipodi="http://sodipodi.sourceforge.net/DTD/sodipodi-0.dtd"
   xmlns:inkscape="http://www.inkscape.org/namespaces/inkscape"
   width="48px"
   height="48px"
   id="sunflow_logo_svgdoc"
   sodipodi:version="0.32"
   inkscape:version="0.45.1"
   inkscape:output_extension="org.inkscape.output.svg.inkscape">
  <defs
     id="defs2221">
    <linearGradient
       id="linearGradient3738">
      <stop
         style="stop-color:#eeeeec;stop-opacity:1"
         offset="0"
         id="stop3740" />
      <stop
         style="stop-color:#eeeeec;stop-opacity:0"
         offset="1"
         id="stop3742" />
    </linearGradient>
    <radialGradient
       cx="57.443813"
       cy="-107.74509"
       r="3.3587573"
       fx="57.443813"
       fy="-107.74509"
       id="radialGradient3443"
       xlink:href="#linearGradient3738"
       gradientUnits="userSpaceOnUse"
       gradientTransform="matrix(-29.05392,-41.34754,57.16841,-40.18718,7526.501,-1314.492)" />
  </defs>
  <sodipodi:namedview
     id="base"
     pagecolor="#ffffff"
     bordercolor="#666666"
     borderopacity="1.0"
     inkscape:pageopacity="0"
     inkscape:pageshadow="2"
     inkscape:zoom="7.875"
     inkscape:cx="24"
     inkscape:cy="24"
     inkscape:document-units="px"
     inkscape:current-layer="layer1"
     inkscape:window-width="797"
     inkscape:window-height="581"
     inkscape:window-x="477"
     inkscape:window-y="142" />
  <metadata
     id="metadata2224">
    <rdf:RDF>
      <cc:Work
         rdf:about="">
        <dc:format>image/svg+xml</dc:format>
        <dc:type
           rdf:resource="http://purl.org/dc/dcmitype/StillImage" />
        <dc:title>Sunflow logo</dc:title>
      </cc:Work>
    </rdf:RDF>
  </metadata>
  <g
     id="layer1">
    <g
       id="g7800"
       transform="matrix(0.1627239,0,0,0.1627454,83.764499,-92.92388)">
      <path
         id="path7802"
         style="fill:#e4c600;fill-opacity:1;stroke:none;stroke-opacity:1"
         transform="matrix(43.84168,0,0,43.84168,-8396.705,-180.992)"
         d="M 186.49941,20.516603 C 186.50082,21.717507 185.86095,22.82779 184.82117,23.428647 C 183.78139,24.029505 182.49992,24.029505 181.46014,23.428647 C 180.42036,22.82779 179.78049,21.717507 179.7819,20.516603 C 179.78049,19.315699 180.42036,18.205416 181.46014,17.604559 C 182.49992,17.003701 183.78139,17.003701 184.82117,17.604559 C 185.86095,18.205416 186.50082,19.315699 186.49941,20.516603 L 186.49941,20.516603 z " />
      <path
         id="path7804"
         style="fill:#2e3436;fill-opacity:1;stroke:none;stroke-opacity:1"
         transform="matrix(33.35971,0,0,33.35971,-6477.028,34.06362)"
         d="M 186.49941,20.516603 C 186.50082,21.717507 185.86095,22.82779 184.82117,23.428647 C 183.78139,24.029505 182.49992,24.029505 181.46014,23.428647 C 180.42036,22.82779 179.78049,21.717507 179.7819,20.516603 C 179.78049,19.315699 180.42036,18.205416 181.46014,17.604559 C 182.49992,17.003701 183.78139,17.003701 184.82117,17.604559 C 185.86095,18.205416 186.50082,19.315699 186.49941,20.516603 L 186.49941,20.516603 z " />
      <path
         id="path7806"
         style="fill:#e4c600;fill-opacity:1;fill-rule:evenodd;stroke:none;stroke-width:1px;stroke-linecap:butt;stroke-linejoin:miter;stroke-opacity:1"
         d="M -365.1065,622.72249 C -365.1065,622.72249 -355.50695,646.5144 -363.40893,671.09754 C -364.30276,673.87753 -365.29265,676.47763 -366.23771,679.30138 C -374.05888,651.79006 -408.67225,630.64352 -408.67225,630.64352 C -408.67225,630.64352 -390.78883,648.76446 -388.58679,674.49223 C -388.34805,677.27816 -388.22563,680.13774 -388.02089,682.97901 C -408.63886,663.33003 -448.84332,662.3278 -448.84332,662.3278 C -448.84332,662.3278 -424.29204,668.87157 -409.52096,690.05149 C -408.29432,691.81019 -407.05365,693.62058 -405.84317,695.42639 C -433.45023,689.39152 -468.08022,708.43968 -468.08006,708.43968 C -468.08006,708.43968 -443.43731,701.87076 -419.98797,712.68307 C -417.46898,713.84462 -414.89937,714.8595 -412.34989,716.07791 C -439.68604,724.21024 -460.44199,758.79495 -460.44199,758.79495 C -460.44199,758.79495 -442.30702,740.78744 -416.59328,738.42654 C -412.60845,738.06065 -408.52559,737.98839 -404.42886,737.57783 C -421.10012,760.04888 -418.85646,798.40026 -418.85646,798.40026 C -418.85646,798.40026 -414.35328,773.35884 -394.52745,756.81473 C -392.40347,755.04246 -390.20905,753.21484 -388.02089,751.43967 C -392.39356,779.61935 -369.9158,813.39377 -369.9155,813.39362 C -369.9155,813.39362 -378.53019,789.2593 -369.63254,765.01872 C -368.91845,763.07265 -368.13011,761.03617 -367.36937,759.0779 C -356.43784,785.09198 -320.97469,802.64366 -320.97469,802.64366 C -320.97469,802.64366 -340.73207,786.18919 -345.30369,760.77532 C -345.78255,758.11303 -346.26979,755.28852 -346.71831,752.57134 C -324.37075,770.22562 -284.19861,767.28174 -284.19861,767.28174 C -284.19861,767.28174 -309.40087,762.95922 -326.06679,743.23569 C -326.83302,742.32874 -327.57349,741.33322 -328.32997,740.40676 C -300.07894,743.61637 -267.22458,720.3213 -267.22458,720.3213 C -267.22458,720.3213 -291.06604,729.78928 -315.59979,721.73577 C -318.19836,720.88264 -320.88718,720.09582 -323.52066,719.18964 C -297.29148,707.98262 -280.80378,671.09754 -280.80378,671.09754 C -280.80378,671.09754 -296.54964,691.26578 -321.8234,696.55806 C -323.87405,696.98752 -325.96053,697.29319 -328.04701,697.68957 C -311.76436,674.6398 -315.59979,635.45267 -315.59979,635.45267 C -315.59979,635.45267 -319.37926,660.83147 -338.51402,678.16986 C -340.60111,680.06105 -342.58605,681.92922 -344.73794,683.82787 C -341.51903,655.49376 -365.1065,622.72249 -365.1065,622.72249 z " />
      <path
         id="path7808"
         style="fill:#cea900;fill-opacity:1;stroke:none;stroke-opacity:1"
         transform="matrix(12.25324,0,0,12.25324,-2611.576,467.0959)"
         d="M 186.49941,20.516603 C 186.50082,21.717507 185.86095,22.82779 184.82117,23.428647 C 183.78139,24.029505 182.49992,24.029505 181.46014,23.428647 C 180.42036,22.82779 179.78049,21.717507 179.7819,20.516603 C 179.78049,19.315699 180.42036,18.205416 181.46014,17.604559 C 182.49992,17.003701 183.78139,17.003701 184.82117,17.604559 C 185.86095,18.205416 186.50082,19.315699 186.49941,20.516603 L 186.49941,20.516603 z " />
      <path
         id="path7810"
         style="fill:#8f5f02;fill-opacity:1;stroke:none;stroke-opacity:1"
         transform="matrix(9.531155,0,0,9.531155,-2113.054,522.9442)"
         d="M 186.49941,20.516603 C 186.50082,21.717507 185.86095,22.82779 184.82117,23.428647 C 183.78139,24.029505 182.49992,24.029505 181.46014,23.428647 C 180.42036,22.82779 179.78049,21.717507 179.7819,20.516603 C 179.78049,19.315699 180.42036,18.205416 181.46014,17.604559 C 182.49992,17.003701 183.78139,17.003701 184.82117,17.604559 C 185.86095,18.205416 186.50082,19.315699 186.49941,20.516603 L 186.49941,20.516603 z " />
      <path
         id="path7812"
         style="opacity:0.6;fill:url(#radialGradient3443);fill-opacity:1;stroke:none;stroke-opacity:1"
         d="M -368.57269,571.09057 C -438.17431,571.09057 -496.6706,619.21911 -512.65003,683.92499 C -476.41364,699.86112 -426.56649,709.54878 -371.71963,709.54878 C -313.94231,709.54878 -262.02241,698.69027 -225.39436,681.22778 C -242.25832,617.89535 -299.94615,571.09057 -368.57269,571.09057 z " />
      <path
         id="path7814"
         style="opacity:0.2;fill:#ffffff;fill-opacity:1;stroke:none;stroke-opacity:1"
         d="M -420.57247,580.51251 C -455.0183,593.49454 -481.48333,618.10162 -497.90639,648.05266 C -481.29535,620.96409 -456.28519,598.80908 -424.27054,586.74344 C -347.69051,557.88199 -261.77665,596.763 -232.91551,673.34303 C -217.03594,715.47724 -221.92726,760.15743 -242.01607,796.79355 C -218.89283,759.08553 -212.42163,711.67764 -229.21729,667.1121 C -258.07858,590.53206 -343.99244,551.65106 -420.57247,580.51251 z " />
    </g>
  </g>
</svg>
