/* XPM */
static char *sunflow[] = {
/* columns rows colors chars-per-pixel */
"21 21 239 2",
"   c #2E2E34343636",
".  c #2F2F35353636",
"X  c #2F2F35353737",
"o  c #303035353535",
"O  c #303036363636",
"+  c #343438383434",
"@  c #343439393434",
"#  c #38383B3B3333",
"$  c #38383C3C3333",
"%  c #38383D3D3333",
"&  c #3B3B3E3E3232",
"*  c #3C3C3F3F3232",
"=  c #3C3C40403232",
"-  c #3D3D40403434",
";  c #444446462F2F",
":  c #454546462F2F",
">  c #4C4C4C4C2D2D",
",  c #50504E4E2C2C",
"<  c #535352522B2B",
"1  c #515150502C2C",
"2  c #5B5B58582929",
"3  c #5E5E5A5A2828",
"4  c #5F5F5B5B2828",
"5  c #434345453030",
"6  c #646460602626",
"7  c #6D6D66662323",
"8  c #696963632424",
"9  c #686863632525",
"0  c #6A6A64642424",
"q  c #6B6B65652424",
"w  c #6C6C66662424",
"e  c #73736B6B2222",
"r  c #74746B6B2121",
"t  c #76766D6D2121",
"y  c #7A7A73732E2E",
"u  c #3B3B41414242",
"i  c #5C5C5E5E4D4D",
"p  c #4A4A4F4F5050",
"a  c #525256565656",
"s  c #525256565757",
"d  c #56565B5B5D5D",
"f  c #5A5A5E5E5E5E",
"g  c #5D5D60605D5D",
"h  c #646464644848",
"j  c #797978785454",
"k  c #767676765E5E",
"l  c #777777775F5F",
"z  c #7E7E7C7C5C5C",
"x  c #5C5C61616161",
"c  c #5F5F64646464",
"v  c #66666B6B6B6B",
"b  c #6B6B6F6F6868",
"n  c #68686C6C6D6D",
"m  c #6A6A6E6E6D6D",
"M  c #78787A7A6D6D",
"N  c #6F6F73737575",
"B  c #737376767878",
"V  c #737377777878",
"C  c #79797C7C7C7C",
"Z  c #8F8F5F5F0202",
"A  c #9E9E70700202",
"S  c #9F9F72720202",
"D  c #828277771D1D",
"F  c #A1A173730101",
"G  c #82827D7D4747",
"H  c #8D8D80801A1A",
"J  c #969687871717",
"K  c #9E9E8E8E1515",
"L  c #9E9E8F8F1515",
"P  c #919184841919",
"I  c #929284841818",
"U  c #ADAD82820101",
"Y  c #AFAF84840101",
"T  c #AFAF85850101",
"R  c #A3A392921313",
"E  c #A4A492921313",
"W  c #A6A694941212",
"Q  c #A2A291911414",
"!  c #AAAA97971111",
"~  c #A9A997971212",
"^  c #AEAE9A9A1010",
"/  c #B4B4A0A00E0E",
"(  c #BFBFA8A80B0B",
")  c #BFBFA9A90B0B",
"_  c #A9A99C9C3232",
"`  c #BDBD9D9D3B3B",
"'  c #B6B6A4A42525",
"]  c #C6C6AAAA0606",
"[  c #C1C1AAAA0A0A",
"{  c #C6C6AEAE0909",
"}  c #C8C8B0B00808",
"|  c #CACAB1B10808",
" . c #D4D4B2B20000",
".. c #D3D3B4B40202",
"X. c #D7D7B4B40000",
"o. c #D7D7B6B60101",
"O. c #D1D1B5B50404",
"+. c #D7D7B8B80202",
"@. c #DADABFBF0303",
"#. c #C3C3AEAE1F1F",
"$. c #CFCFBDBD3E3E",
"%. c #D3D3BFBF3838",
"&. c #DDDDC0C00202",
"*. c #DEDEC1C10202",
"=. c #E0E0C0C00000",
"-. c #E3E3C5C50000",
";. c #E2E2C5C50101",
":. c #E3E3C6C60000",
">. c #E4E4C6C60000",
",. c #E5E5C6C60000",
"<. c #E4E4C7C70000",
"1. c #E4E4C6C60101",
"2. c #E5E5C6C60101",
"3. c #E4E4C6C60707",
"4. c #E4E4C7C70808",
"5. c #E4E4C7C70E0E",
"6. c #E6E6C9C90C0C",
"7. c #E5E5C8C80E0E",
"8. c #E5E5C9C90F0F",
"9. c #E6E6C9C90E0E",
"0. c #E6E6C9C91010",
"q. c #E6E6CACA1313",
"w. c #E4E4C9C91515",
"e. c #E5E5C9C91515",
"r. c #E5E5CACA1616",
"t. c #E5E5CACA1717",
"y. c #E4E4C9C91818",
"u. c #E5E5CACA1919",
"i. c #E6E6CBCB1A1A",
"p. c #E5E5CBCB1C1C",
"a. c #E5E5CBCB1F1F",
"s. c #DFDFC7C72727",
"d. c #E6E6CCCC2121",
"f. c #E6E6CCCC2222",
"g. c #E1E1C9C92626",
"h. c #E5E5CCCC2626",
"j. c #E6E6CDCD2B2B",
"k. c #E7E7CECE2E2E",
"l. c #E6E6CECE2F2F",
"z. c #E1E1C8C83030",
"x. c #E6E6CECE3232",
"c. c #E6E6CFCF3838",
"v. c #E7E7D1D13232",
"b. c #E7E7D0D03A3A",
"n. c #888882824B4B",
"m. c #AAAA87874444",
"M. c #ACAC8B8B4A4A",
"N. c #ADAD8C8C4B4B",
"B. c #A3A39A9A5353",
"V. c #B0B0A4A44444",
"C. c #B6B6ABAB5353",
"Z. c #BBBBAFAF5757",
"A. c #BEBEA2A25D5D",
"S. c #8A8A88886D6D",
"D. c #8A8A8A8A7575",
"F. c #89898A8A7B7B",
"G. c #919191917C7C",
"H. c #969695957E7E",
"J. c #A2A29C9C6565",
"K. c #ADADA5A56161",
"L. c #B2B2A9A96363",
"P. c #A5A5A1A17D7D",
"I. c #B1B1ACAC7F7F",
"U. c #BDBDB4B47676",
"Y. c #C2C2A4A44747",
"T. c #CCCCBCBC4A4A",
"R. c #C5C5AAAA5656",
"E. c #C9C9B0B06363",
"W. c #C0C0B5B56868",
"Q. c #C4C4BBBB7171",
"!. c #C2C2B9B97777",
"~. c #C7C7BEBE7777",
"^. c #DDDDC5C54E4E",
"/. c #DBDBC8C84A4A",
"(. c #DBDBCBCB5E5E",
"). c #E3E3CCCC4040",
"_. c #E7E7D1D14343",
"`. c #EAEAD5D54343",
"'. c #E9E9D2D24545",
"]. c #E8E8D3D34B4B",
"[. c #EAEAD5D54B4B",
"{. c #E8E8D4D45353",
"}. c #E8E8D5D55353",
"|. c #EAEAD6D65252",
" X c #E8E8D5D55555",
".X c #E5E5D1D15858",
"XX c #E7E7D5D55B5B",
"oX c #EAEAD7D75A5A",
"OX c #E8E8D6D65D5D",
"+X c #D6D6C6C66464",
"@X c #D4D4C6C66A6A",
"#X c #E1E1CECE6767",
"$X c #E8E8D6D66363",
"%X c #E9E9D7D76565",
"&X c #EAEAD8D86060",
"*X c #E9E9D9D96363",
"=X c #EBEBD9D96262",
"-X c #EAEAD8D86565",
";X c #E7E7D5D56868",
":X c #E3E3D3D36D6D",
">X c #E8E8D8D86A6A",
",X c #E8E8D8D86B6B",
"<X c #EAEADADA6E6E",
"1X c #E2E2D3D37474",
"2X c #E9E9D9D97171",
"3X c #EBEBDBDB7373",
"4X c #E9E9DADA7575",
"5X c #E9E9DADA7676",
"6X c #E9E9DADA7777",
"7X c #EAEADCDC7676",
"8X c #E9E9DBDB7C7C",
"9X c #EBEBDCDC7E7E",
"0X c #EBEBDDDD7E7E",
"qX c #EAEADCDC7F7F",
"wX c #7F7F82828080",
"eX c #7F7F82828282",
"rX c #818184848080",
"tX c #868689898989",
"yX c #8B8B8E8E8E8E",
"uX c #8C8C8E8E8C8C",
"iX c #8C8C8F8F8F8F",
"pX c #919192928383",
"aX c #939394948484",
"sX c #9E9E9D9D8B8B",
"dX c #8C8C90909090",
"fX c #8E8E91919191",
"gX c #929295959595",
"hX c #939396969696",
"jX c #9D9D9E9E9494",
"kX c #9F9F9F9F9494",
"lX c #9A9A9D9D9D9D",
"zX c #9B9B9E9E9C9C",
"xX c #B5B5B0B08D8D",
"cX c #A8A8A8A89999",
"vX c #BABAB6B69696",
"bX c #C5C5BDBD8585",
"nX c #CACAC2C28484",
"mX c #E7E7DADA8282",
"MX c None",
/* pixels */
"MXMXMXMXMXMXMX`.'.[.}.oX&X=XMXMXMXMXMXMXMX",
"MXMXMXMXMXv.k.x.b._.].{.XX$X3X<XMXMXMXMXMX",
"MXMXMXMXf.h.l.c.T.Z.L.W.@X>X2X5X9XMXMXMXMX",
"MXMXMXu.d.j.V.l n N C eXtXsXnXqX8X0XMXMXMX",
"MXMXe.p.s.n.x b M V F.pXyXhXzXvXmX6X7XMXMX",
"MX5.w.a.G d c v K.D.rX!.fXjXcXlXxX4X,X*XMX",
"MX7.t._ a j z m S.(.G.:XdXbXkXgXfX~.%X-XMX",
"3.8.y.h s f B./.J..X+X;XI.1XiXuXaXH.OX X|.",
"2.4.#.p s g k C.^.R.A.E.#XU.P.Q.wXB $.r.i.",
">.>.R - y ' g.z.` m.N.M.Y.).%.i u X ~ >.q.",
">.>.P       6 o.A Z Z Z F ..4 * 5 $ J >.0.",
">.>.R   . I ;.O.U Z Z Z T =.@.! 2   ~ >.6.",
",.>.(   0 q # D  .U S Y X.^ +       { >.6.",
">.>.-.> @     } 9 +.] =.8 E ! 3 + < >.>.9.",
"MX>.>.K     & H   | 1 / t         W >.1.MX",
"MX:.>.>.w   ; &   P % @ I %     r >.>.2.MX",
"MXMX>.>.&.7 O     5 :     =   e *.>.>.MXMX",
"MXMXMX>.>.>.L >     o     , Q >.>.>.MXMXMX",
"MXMXMXMX>.>.>.>.) R P E [ >.>.>.>.MXMXMXMX",
"MXMXMXMXMX,.>.>.>.>.>.>.>.>.>.>.MXMXMXMXMX",
"MXMXMXMXMXMXMX:.>.>.>.>.<.-.MXMXMXMXMXMXMX"
};
