/* XPM */
static char * xfce4_mcs_manager_xpm[] = {
"32 32 286 2",
"  	c None",
". 	c #010101",
"+ 	c #0D0D0D",
"@ 	c #565554",
"# 	c #646464",
"$ 	c #2C2B2B",
"% 	c #0A0909",
"& 	c #030303",
"* 	c #151414",
"= 	c #7E7E7E",
"- 	c #DFDEDE",
"; 	c #F2F2F2",
"> 	c #F7F6F6",
", 	c #F6F6F6",
"' 	c #AAAAAA",
") 	c #070603",
"! 	c #191818",
"~ 	c #8B8A8A",
"{ 	c #EAEAEA",
"] 	c #FBFAFA",
"^ 	c #E6E5E5",
"/ 	c #61605E",
"( 	c #151515",
"_ 	c #0A0805",
": 	c #8F8F8F",
"< 	c #EDECEC",
"[ 	c #F2F1F1",
"} 	c #F4F4F4",
"| 	c #FBFBFB",
"1 	c #E5E5E5",
"2 	c #4A4949",
"3 	c #1B1A1A",
"4 	c #3C3B3B",
"5 	c #E9E8E8",
"6 	c #F1F0F0",
"7 	c #FAFAFA",
"8 	c #605F5F",
"9 	c #1E1D1D",
"0 	c #050505",
"a 	c #9B9B9B",
"b 	c #FAF9F9",
"c 	c #FDFCFC",
"d 	c #BDBDBD",
"e 	c #282726",
"f 	c #131313",
"g 	c #B4B4B4",
"h 	c #F7F7F7",
"i 	c #CBCACA",
"j 	c #2D2C2B",
"k 	c #050502",
"l 	c #0C0B0B",
"m 	c #ADADAD",
"n 	c #F9F8F8",
"o 	c #F8F7F7",
"p 	c #DEDDDD",
"q 	c #413F3E",
"r 	c #595856",
"s 	c #979696",
"t 	c #080707",
"u 	c #040404",
"v 	c #868585",
"w 	c #F5F4F4",
"x 	c #E7E6E6",
"y 	c #494847",
"z 	c #414141",
"A 	c #C8C7C7",
"B 	c #2E2D2C",
"C 	c #242323",
"D 	c #F3F3F3",
"E 	c #F0EFEF",
"F 	c #EBEAEA",
"G 	c #999898",
"H 	c #4F4F4F",
"I 	c #444341",
"J 	c #343333",
"K 	c #202020",
"L 	c #5C5C5C",
"M 	c #BEBEBE",
"N 	c #C7C7C7",
"O 	c #C4C4C4",
"P 	c #565555",
"Q 	c #E8E7E7",
"R 	c #E2E1E1",
"S 	c #DDDCDC",
"T 	c #CECDCD",
"U 	c #BAB9B9",
"V 	c #A9A8A8",
"W 	c #BFBFBF",
"X 	c #CAC9C9",
"Y 	c #C0C0C0",
"Z 	c #494848",
"` 	c #070605",
" .	c #141310",
"..	c #D4D3D3",
"+.	c #F1F1F1",
"@.	c #ECEBEB",
"#.	c #E2E2E2",
"$.	c #DBDADA",
"%.	c #D6D5D5",
"&.	c #D2D1D1",
"*.	c #CCCCCC",
"=.	c #C9C8C8",
"-.	c #C0BFBF",
";.	c #AEADAD",
">.	c #111111",
",.	c #130D01",
"'.	c #858484",
").	c #EFEFEF",
"!.	c #EEEDED",
"~.	c #E4E3E3",
"{.	c #E0DFDF",
"].	c #DCDBDB",
"^.	c #C6C6C6",
"/.	c #B7B6B6",
"(.	c #595858",
"_.	c #101010",
":.	c #362808",
"<.	c #916D1A",
"[.	c #69614C",
"}.	c #D7D6D6",
"|.	c #E5E4E4",
"1.	c #E1E0E0",
"2.	c #D3D2D2",
"3.	c #CDCDCD",
"4.	c #C9C9C9",
"5.	c #C7C6C6",
"6.	c #5E5E5E",
"7.	c #212121",
"8.	c #0E0E0E",
"9.	c #271C03",
"0.	c #B3871F",
"a.	c #DBAB35",
"b.	c #B39748",
"c.	c #7A7563",
"d.	c #A6A6A6",
"e.	c #CFCFCF",
"f.	c #C1C0C0",
"g.	c #B1B0B0",
"h.	c #5C5B5B",
"i.	c #292929",
"j.	c #3B2C09",
"k.	c #B38721",
"l.	c #DCAF3D",
"m.	c #E3BF58",
"n.	c #E8CB6E",
"o.	c #D2AD49",
"p.	c #746C57",
"q.	c #B8B7B6",
"r.	c #53524F",
"s.	c #2F2E2D",
"t.	c #2A2929",
"u.	c #232323",
"v.	c #595958",
"w.	c #797978",
"x.	c #80807F",
"y.	c #656565",
"z.	c #292828",
"A.	c #121212",
"B.	c #2D2004",
"C.	c #B68A22",
"D.	c #DBAC37",
"E.	c #E3C059",
"F.	c #E9CC6F",
"G.	c #E3BE57",
"H.	c #DDB03E",
"I.	c #AB8323",
"J.	c #4D422A",
"K.	c #1C1C1C",
"L.	c #141414",
"M.	c #181818",
"N.	c #313130",
"O.	c #3B3938",
"P.	c #323232",
"Q.	c #262525",
"R.	c #423109",
"S.	c #B88B21",
"T.	c #DCB03E",
"U.	c #E4C15D",
"V.	c #E8CA6D",
"W.	c #E2BC54",
"X.	c #D6A022",
"Y.	c #C99011",
"Z.	c #6F510D",
"`.	c #342506",
" +	c #B98D23",
".+	c #DCAE3B",
"++	c #E5C360",
"@+	c #E8CC70",
"#+	c #E1BB51",
"$+	c #DCAE3A",
"%+	c #D29713",
"&+	c #7F5E11",
"*+	c #181205",
"=+	c #4B380C",
"-+	c #BC9026",
";+	c #DEB445",
">+	c #E6C563",
",+	c #E9CB6F",
"'+	c #E1B94E",
")+	c #DAAA33",
"!+	c #D49E20",
"~+	c #C99112",
"{+	c #7E5D11",
"]+	c #0A0803",
"^+	c #362707",
"/+	c #BD9127",
"(+	c #DDB140",
"_+	c #E6C664",
":+	c #E1BA50",
"<+	c #DBAB36",
"[+	c #D29813",
"}+	c #7B5C13",
"|+	c #171206",
"1+	c #4E3A0C",
"2+	c #BF9329",
"3+	c #E0B74A",
"4+	c #E7C766",
"5+	c #E8C869",
"6+	c #E0B74B",
"7+	c #D9A830",
"8+	c #D49C1B",
"9+	c #C89011",
"0+	c #7A5B13",
"a+	c #0A0905",
"b+	c #060401",
"c+	c #382908",
"d+	c #C19429",
"e+	c #DEB343",
"f+	c #E7C869",
"g+	c #E8CA6B",
"h+	c #E0B649",
"i+	c #DAA932",
"j+	c #D29712",
"k+	c #785A13",
"l+	c #181307",
"m+	c #533E0E",
"n+	c #C2972C",
"o+	c #E7C868",
"p+	c #DFB648",
"q+	c #D8A52B",
"r+	c #C89013",
"s+	c #755813",
"t+	c #3C2D09",
"u+	c #C4992E",
"v+	c #DFB649",
"w+	c #E8C96A",
"x+	c #DEB344",
"y+	c #D9A72F",
"z+	c #D39A17",
"A+	c #D39815",
"B+	c #725614",
"C+	c #161107",
"D+	c #785E1F",
"E+	c #E1BC52",
"F+	c #E5C461",
"G+	c #DDB242",
"H+	c #D7A328",
"I+	c #C79014",
"J+	c #725715",
"K+	c #42330E",
"L+	c #E9CB6E",
"M+	c #E6C462",
"N+	c #DEB241",
"O+	c #D8A62C",
"P+	c #D29916",
"Q+	c #D29A18",
"R+	c #6F5515",
"S+	c #161207",
"T+	c #110F09",
"U+	c #CBAC52",
"V+	c #DDB13F",
"W+	c #D7A327",
"X+	c #D39916",
"Y+	c #C69118",
"Z+	c #6E5415",
"`+	c #151413",
" @	c #483A17",
".@	c #96731E",
"+@	c #CA9214",
"@@	c #6A5217",
"#@	c #151107",
"$@	c #282623",
"%@	c #232118",
"&@	c #241E10",
"*@	c #0B0B0B",
"=@	c #070707",
"                                                                ",
"                                    . + @ # $ %                 ",
"                                & * = - ; > , ' ) &             ",
"                                ! ~ { ; > ] ^ / ( &             ",
"                              _ : < [ } | 1 2 3                 ",
"                              4 5 6 } 7 1 8 9 %                 ",
"                            0 a [ } b c d e                     ",
"                            f g } h c b i j             . k     ",
"                            l m n c ] o p q           . r s t   ",
"                            u v b | > w x y .       . z d A B   ",
"                              C c n D E F G H I J K L M N O P   ",
"                              . Q } E < 5 R S T U V W X O Y Z ` ",
"                            &  ...+.@.Q #.S $.%.&.*.=.O -.;.>.  ",
"                          ,. .'.).!.Q ~.{.].%...*.=.^.Y /.(._.  ",
"                        :.<.[.}.< 5 |.1.$.%.2.3.4.5.-./.6.7.8.  ",
"                      9.0.a.b.c.~.^ 2.a d.=.e.X 5.f.g.h.i.(     ",
"                    j.k.l.m.n.o.p.q.r.s.t.u.v.w.x.y.$ z.A.      ",
"                  B.C.D.E.F.G.H.I.J.s.K.L.M.s.N.O.P.Q.8.        ",
"                R.S.T.U.V.W.D.X.Y.Z.k         . . .             ",
"              `. +.+++@+#+$+X.%+&+*+.                           ",
"            =+-+;+>+,+'+)+!+~+{+]+.                             ",
"          ^+/+(+_+F.:+<+!+[+}+|+. .                             ",
"        1+2+3+4+5+6+7+8+9+0+a+.                                 ",
"    b+c+d+e+f+g+h+i+8+j+k+l+. .                                 ",
"  b+m+n+'+o+4+p+q+8+r+s+a+.                                     ",
"  t+u+v+w+o+x+y+z+A+B+C+. .                                     ",
"  D+E+g+F+G+H+z+I+J+a+.                                         ",
"  K+L+M+N+O+P+Q+R+S+.                                           ",
"  T+U+V+W+X+Y+Z+a+.                                             ",
"  `+ @.@+@Q+@@#@.                                               ",
"    7.$@%@&@a+.                                                 ",
"    *@L._.=@.                                                   "};
