/* XPM */
static char * abi_xpm[] = {
"32 32 19 1",
" 	c None",
".	c #666667",
"+	c #333333",
"@	c #7F7F7F",
"#	c #B2B2B2",
"$	c #7F007F",
"%	c #999999",
"&	c #00007F",
"*	c #191919",
"=	c #E5E5E5",
"-	c #CCCCCC",
";	c #007F7F",
">	c #4C4C4C",
",	c #000000",
"'	c #0000FF",
")	c #7F7F00",
"!	c #7F0000",
"~	c #FFFF00",
"{	c #FFFFFF",
"                                ",
"                       ...+     ",
"                  @#  $%%.&*    ",
"                #=-# ;-#@&>+    ",
"            %%=----#>%#%.>>*    ",
"          ===--##-##@##@&>&*,   ",
"       %==--#-#---#%%#';.>>,,   ",
"    %-=--#-#-#-#-##@#%@.&>+,,   ",
"  -=---##--#-#----#'#%.&.>*,    ",
" %---#%%@%#------#%%#@&>>&,,    ",
" @-#-#@##%#-----#%%#@&>;+*,,    ",
" %--#@%--#%-----#@##..>>*,,     ",
"  -#-##--%%#----#%-@.&.&,,,     ",
"  ------#%##----'##;&>.*,,,     ",
"   ----##--#--=#@-@&>.+++,      ",
"   =---%#--#---@%#&>&>*>>*      ",
"   %---#-=-##-#%#@&&>+>..>      ",
"    =-------==#=#%..++>.@%      ",
"    #--#----=##=%.@.+>.@%##     ",
"     ==---=--#==-@>$+>.%#-=@    ",
"     #=====-#-==-)!+>.@#-===@   ",
"      =====-~=#=~)+>.@%#=={{=   ",
"      %====-=-)=~)).@%#=={{{{=  ",
"       ====-=--#)@..@#-={{{{{=- ",
"       -===-=-#)++>@%-={{{{=#@  ",
"        {={--#)+>.@%#=={{-%.    ",
"        %{=-%).@@@%#-={-%>      ",
"         #{=@@#@%%#--#.         ",
"          {{--####-%            ",
"           ={=-#%@+             ",
"            --#>+               ",
"                                "};


